<?xml version="1.0" encoding="utf-8"?><svg xmlns="http://www.w3.org/2000/svg" xmlns:xlink="http://www.w3.org/1999/xlink"><symbol viewBox="0 0 100 100" id="address"><path d="M52.7 12s.1 0 0 0c14.7 1.9 23.6 17.4 18.4 31-2.7 7.1-7 13.2-11.8 19-3 3.6-6 7.1-9.1 10.6h-.3c-6.4-7.3-13-14.4-17.8-23-2.6-4.7-4.7-9.6-4.7-15.2.2-13 12.4-24 25.3-22.4zM50 65.4c5.7-6.4 11-12.8 14.8-20.3.9-1.8 1.7-3.8 2.3-5.8 2.5-8.8-2.1-18-10.5-21.4-8.3-3.4-17.9.1-22.2 8.1-3.2 5.8-2.7 11.7 0 17.6 3.8 8.2 9.6 15 15.6 21.8z"/><path d="M12.5 88.1c0-.3 0-.7.1-1 3-10.9 6.1-21.7 9.1-32.6.1-.3.2-.5.3-.9h8.7v4.7h-5.2c-2.3 8.3-4.6 16.6-7 24.9h62.7c-2.3-8.3-4.6-16.6-7-24.9H69v-4.7h8.9c1.1 4 2.2 8 3.4 12 2 7 3.9 14 5.9 21 .1.5.2 1 .3 1.4-25 .1-50 .1-75 .1zM59.5 33.5c-.1 5.3-4.4 9.5-9.7 9.4-5.2-.1-9.5-4.4-9.4-9.7.1-5.2 4.4-9.4 9.6-9.3 5.3 0 9.6 4.3 9.5 9.6zm-4.7-.2c0-2.6-2.2-4.7-4.8-4.7s-4.7 2.1-4.7 4.7c0 2.7 2.2 4.8 4.9 4.8 2.5 0 4.6-2.2 4.6-4.8z"/></symbol><symbol viewBox="0 0 100 100" id="alert"><path d="M50 10c-22.1 0-40 17.9-40 40s17.9 40 40 40 40-17.9 40-40-17.9-40-40-40zm0 74.7c-19.1 0-34.7-15.6-34.7-34.7S30.9 15.3 50 15.3 84.7 30.9 84.7 50 69.1 84.7 50 84.7z"/><path d="M50 58.6c1.7 0 3.1-1.4 3.1-3.1v-24c0-1.7-1.4-3.1-3.1-3.1-1.7 0-3.1 1.4-3.1 3.1v23.9c0 1.8 1.4 3.2 3.1 3.2z"/><circle cx="50" cy="68.2" r="3.4"/></symbol><symbol viewBox="0 0 100 100" id="amex"><style>.st0{fill:#010202}.st1{fill:#1e1e1c}.acst2{fill:#0472b3}.st3{fill:#f19730}.st4{fill:#c81c21}.st5{fill:#f7b14e}.st6{fill:#232a55}.st7{fill:#fff}.st8{fill:#293167}.st9{fill:#e29626}.st10{fill:#090909}</style><g id="acSail_Waves"><g id="acclose"><path class="acst2" d="M12.6 26.6v47h75v-47h-75zm62.2 23.2c2.1 2.3 4.1 4.6 6.2 6.8.2.2.3.4.5.6h-9.1c-.2 0-.4-.1-.5-.2-.6-.7-1.2-1.3-1.7-2-.1-.2-.2-.2-.4 0-.6.7-1.2 1.3-1.8 2-.2.2-.3.3-.6.3H32.6c-.5 0-.5 0-.7-.4-.3-.6-.5-1.2-.7-1.8-.1-.2-.2-.3-.4-.3H29c-.2 0-.3.1-.4.3-.3.7-.5 1.3-.8 2-.1.2-.2.3-.4.3H19.5c.3-.8.6-1.5.9-2.1 1.1-2.4 2.1-4.8 3.2-7.3.9-2 1.8-4 2.6-6 .1-.2.2-.2.4-.2h15.5c.2 0 .3.1.4.3.5 1.1 1 2.3 1.5 3.4 0 .1.1.2.2.3.2-.3.3-.6.4-.9l1.2-2.7c.1-.2.2-.3.5-.3h21.3c.2 0 .4.1.5.2.6.7 1.1 1.3 1.7 2l.2.2.4-.4c.6-.6 1.1-1.2 1.7-1.8.1-.1.2-.2.4-.2H81.8c-.3.3-.5.6-.8.9-2.1 2.2-4.1 4.4-6.2 6.6-.3.1-.3.1 0 .4z"/><path class="acst2" d="M51.7 43.9h-3.8c-.2 0-.3.1-.4.2-.9 2.2-1.9 4.5-2.9 6.7l-.3.6h-.1c-.1-.3-.3-.5-.4-.8-1-2.1-2-4.3-3-6.4-.1-.2-.2-.3-.5-.3h-3.6c-.4 0-.4 0-.4.4v10.1c-.1-.1-.2-.1-.2-.2-.5-1.1-.9-2.1-1.4-3.2-1-2.3-1.9-4.5-2.9-6.8-.1-.2-.2-.3-.4-.3h-3.3c-.3 0-.4.1-.5.3-1.4 3.4-2.9 6.8-4.4 10.2-.1.2-.1.3-.2.5h2.4c.2 0 .3-.1.4-.3.3-.7.5-1.3.8-2 .1-.2.2-.3.4-.3h5c.3 0 .4.1.5.3.2.6.5 1.3.8 1.9.1.2.2.3.5.3h4.6c.4 0 .4 0 .4-.4v-8-.4h.1c.1.1.1.2.2.4l3.6 8.1c.1.2.2.2.4.2h1.7c.2 0 .3-.1.4-.3 1-2.3 2.1-4.6 3.1-6.9.2-.5.4-1 .7-1.5h.1v8.4c0 .2.1.3.3.3h2.1c.2 0 .3-.1.3-.3V43.9c.2.1.1 0-.1 0zm-20.2 6.4h-3.3c-.2 0-.3-.1-.2-.3.6-1.4 1.1-2.7 1.7-4.1 0-.1.1-.1.1-.2.1.1.1.1.1.2.6 1.4 1.1 2.7 1.7 4.1.1.2.1.3-.1.3zM75.5 45.1c.3-.3.6-.7 1-1.1h-2.9c-.3 0-.5.1-.7.3-1 1-1.9 2.1-2.9 3.1-.3.3-.3.3-.6 0-.7-.8-1.5-1.7-2.1-2.5-.5-.6-1-.9-1.8-.9H54.7c-.2 0-.4 0-.4.3v10.5c0 .2.1.3.3.3h11.3c.2 0 .4-.1.6-.2 1-1.1 2-2.1 2.9-3.2.3-.3.3-.3.6 0 1 1.1 1.9 2.2 2.9 3.2.1.1.3.2.4.2h2c.3 0 .7 0 1-.1-.1-.2-.2-.3-.3-.4-1.5-1.6-2.9-3.2-4.4-4.8-.2-.2-.2-.3 0-.5l3.9-4.2zm-7.6 4.6c-1.4 1.5-2.8 3-4.3 4.5l-.3.3h-.1v-1c0-.6 0-.6-.6-.6h-5.3c-.3 0-.4-.1-.4-.4v-1.6c0-.3.1-.3.3-.3h5.5c.3 0 .4-.1.4-.3v-1.5c0-.3-.1-.3-.3-.3h-5.3c-.5 0-.5 0-.5-.5v-1.3c0-.3.1-.4.4-.4h5.5c.5 0 .5 0 .5-.4v-1.5c.1.1.2.2.3.2 1.5 1.6 2.9 3.2 4.4 4.8 0 0 0 .1-.2.3z"/></g></g></symbol><symbol viewBox="0 0 417.7 120.3" id="beautii-logo"><title>beautii-logo.colors-iconCol01-iconCol02</title><path d="M316.4 82.1c0 14-11.3 25.3-25.3 25.4-14 0-25.3-11.3-25.4-25.3V43.3h-12.4v38.8c0 20.8 16.9 37.7 37.7 37.7 20.8 0 37.7-16.9 37.7-37.7V43.3h-12.4v38.8zM77.3 81.6zM50.7 46.2c4-5 6.2-11.3 6.2-17.7v-.1C57 12.8 44.4.1 28.8 0H0v119.9h39.4c20.8.1 37.7-16.7 37.8-37.5.1-16.6-10.7-31.3-26.5-36.2zM11.1 12.4h17.7c8.9 0 16.1 7.2 16.1 16.1s-7.2 16.1-16.1 16.1H11.1V12.4zm28.3 95.1H11.1V56.9h28.3c14 0 25.3 11.3 25.3 25.3.1 14-11.3 25.3-25.3 25.3zM359.7 17.6l-12.4 3.3v22.4h-7.4v11.1h7.4v65.5h12.4V54.4h14.8V43.3h-14.8zM123.2 44.1c-10.1-.2-19.9 3.9-26.9 11.1C89 62.3 85 72.1 85.2 82.3c-.1 20.9 16.7 37.9 37.6 38h.4c10.1.2 19.8-3.8 26.9-11.1 3.9-3.8 6.9-8.4 8.8-13.6l-11.8-3.2c-1.2 3.2-3.1 6.2-5.4 8.7-4.7 5.1-11.5 8-18.4 7.8-7.5 0-13.6-2.3-18.4-7.5-3.8-4.2-6.2-9.4-7-14.9H161c.1-1.2.1-2.7.1-3.9.2-10.3-3.8-20.2-11.1-27.4-6.9-7.2-16.7-11.3-26.8-11.1zM98.4 75.4c1.2-4.4 3.4-8.5 6.4-12 4.8-5.2 11-7.8 18.4-7.7 7-.2 13.7 2.7 18.4 7.8 3 3.5 5.2 7.6 6.4 12l-49.6-.1zM232.4 55c-7.4-7.3-15.6-11-26.1-11-10-.2-19.7 3.9-26.6 11.2-7.4 7.4-10.9 16.5-10.9 27.1-.2 10.1 3.9 19.8 11.1 26.9 7.4 7.4 15.8 11.1 26.3 11.1s18.7-3.6 26.1-10.9V120h11.1V43.3h-11.1V55zm-7.1 46.1c-10 10.2-26.3 10.4-36.5.4l-.4-.4c-4.8-5.1-7.4-12-7.2-19-.2-7 2.4-13.9 7.2-19 10-10.2 26.3-10.4 36.5-.4l.4.4c4.8 5.1 7.4 12 7.2 19 .2 7-2.4 13.9-7.2 19zM383 43.3h12.4v76.6H383z"/><circle cx="389.2" cy="27.1" r="6.2"/><path d="M405.4 43.3h12.4v76.6h-12.4z"/><circle cx="411.6" cy="27.1" r="6.2"/></symbol><symbol viewBox="0 0 100 100" id="brand-tag"><path d="M86.9 54.2l-31-31.1c-1.6-1.6-3.8-2.6-6.1-2.6h-.6L26.7 22c-2.4.2-4.4 2.1-4.6 4.6l-.5 8c-1.1-.7-2.2-1.5-3.2-2.5-2.4-2.4-3.9-5.4-4.2-8.4-.3-2.9.5-5.5 2.3-7.2 3.8-3.8 10.8-3 15.7 1.9.8.8 2.1.8 2.9 0 .8-.8.8-2.1 0-2.9C28.7 9 19 8.2 13.6 13.6c-2.7 2.7-3.9 6.4-3.5 10.6.4 4 2.3 7.9 5.4 10.9 1.7 1.7 3.7 3.1 5.9 4l-.7 10c-.2 2.5.8 5 2.5 6.7l31.1 31.1c2 2 4.6 3 7.4 3 2.8 0 5.4-1.1 7.4-3l18-18c2-2 3-4.6 3-7.4-.1-2.7-1.2-5.3-3.2-7.3zM84 66L66 84c-1.2 1.2-2.7 1.8-4.4 1.8-1.7 0-3.2-.7-4.4-1.8L26.1 52.9c-.9-.9-1.4-2.2-1.3-3.5l.6-9c.3.1.7.1 1 .1.5.1 1 .1 1.5.1 3.5 0 6.7-1.2 9-3.6.8-.8.8-2.1 0-2.9s-2.1-.8-2.9 0c-1.8 1.8-4.4 2.6-7.2 2.3-.4 0-.8-.1-1.2-.2l.6-9.3c0-.4.3-.7.7-.7l22.5-1.5h.3c1.2 0 2.4.5 3.2 1.3l31 31c1.2 1.2 1.8 2.7 1.8 4.4.1 1.8-.5 3.4-1.7 4.6z"/></symbol><symbol viewBox="0 0 100 100" id="calendar"><title>Calendar</title><path d="M20.1 69.2c-.4 0-.8-.2-1.1-.4-.6-.6-.9-1.4-.8-2.2 0-8.7.2-17.4 0-26.1-.1-2.8 1-3.4 3.6-3.4h45.6c7.5 0 7.3 0 7.5-7.6.2-5.2-3.1-6.7-7.1-6.8h-2.3V12.5h-5.9v14.3c0 .5-.3 1.1-.7 1.4l-.4.2h-.7c-.9 0-1.7-.7-1.8-1.6v-4.7H34.3v-9.6h-5.9v14.6c-.3 1-1.2 1.5-2.2 1.3-.7-.2-1.2-.7-1.3-1.4v-4.3h-4.6c-1.5 0-3 .3-4.4.8-2.9 1.3-3.4 4-3.4 6.9V67.1c-.2 1.4.1 2.9.8 4.2 1.5 2.3 4.2 3.7 7 3.5 1.5 0 16.5.1 16.5-.2v-5.3c0-.3-15.3.2-16.7-.1z"/><path d="M66 44.5c-11.7-.7-21.4 10.2-21.7 20.6s7.9 22.4 21.4 22.4 21.7-8.9 21.7-21.6c.3-11.5-8.8-21.1-20.4-21.4h-1zM65.9 82c-10.7 0-16.2-9-16-16.7S57 49.2 66.1 50 82.2 57.1 82 65.8 75.3 82 65.9 82z"/><path d="M68.9 54h-5.4V68.7h5.4v-.1h5.6v-5.3h-5.6z"/></symbol><symbol viewBox="0 0 100 100" id="call"><path d="M43 16.6l8.9-4.1 12.6 24.7-8.5 4.1c-1.7 3.9 6.7 19.7 10.3 19.9.3-.2 8.4-4.1 8.4-4.1l12.8 24.8s-8.6 4.2-8.9 4.4C54 97.5 18.9 29.2 43 16.6zm6 4l-3.2 1.6C29.3 30.8 58.9 88.4 76 80.6l3-1.5-7.1-13.7-3.2 1.6c-9.9 4.8-25.8-25.7-15.8-31.1l3.1-1.6c.1.1-7-13.7-7-13.7zm-2.3 57.5c-4.6 4.5-12.2 5.3-14.4 1.6-1.5-2.5-1-5.4-.4-8.7.6-3.6 1.3-7.7-.9-11.6-3.8-6.5-12.2-6.2-18.5-2.1l3 4.6c2.6-1.7 5.6-2.4 7.8-1.9 5.2 1.2 3.6 7.9 3.2 10.1-.7 3.8-1.4 8.2 1.1 12.4 4.2 7.2 15.8 6.4 22.8-.3-1.3-1.3-2.5-2.7-3.7-4.1z"/></symbol><symbol viewBox="0 0 100 100" id="camera"><path d="M80.8 25.1H68.5l-.9-3.2v-.1c-.5-2.3-2.6-3.9-5-3.9H37.4c-2.4 0-4.5 1.6-5 3.9l-1 3.3H19.2c-5.4 0-9.7 4.4-9.7 9.7v37.5c0 5.4 4.4 9.7 9.7 9.7h61.5c5.4 0 9.7-4.4 9.7-9.7V34.9c.1-5.4-4.3-9.8-9.6-9.8zM37.4 22h25.2c.5 0 .9.3 1 .8l1.8 6.4h15.3c3.1 0 5.7 2.5 5.7 5.7v37.5c0 3.1-2.5 5.7-5.7 5.7H19.2c-3.1 0-5.7-2.5-5.7-5.7V34.9c0-3.1 2.5-5.7 5.7-5.7h15.2l1.9-6.4c.2-.5.6-.8 1.1-.8z"/><circle cx="78.8" cy="37.3" r="3.3"/><path d="M50 72.8c11.1 0 20.1-9 20.1-20.1s-9-20.1-20.1-20.1-20.1 9-20.1 20.1 9 20.1 20.1 20.1zM34 52.7c0-8.8 7.2-16 16-16s16 7.2 16 16-7.2 16-16 16-16-7.2-16-16z"/></symbol><symbol viewBox="0 0 100 100" id="checkbox"><path d="M74.2 12.5H25.8c-7.3 0-13.3 6-13.3 13.3v48.4c0 7.3 6 13.3 13.3 13.3h48.4c7.3 0 13.3-6 13.3-13.3V25.8c0-7.3-6-13.3-13.3-13.3zm9.5 61.7c0 5.2-4.3 9.5-9.5 9.5H25.8c-5.2 0-9.5-4.3-9.5-9.5V25.8c0-5.2 4.3-9.5 9.5-9.5h48.4c5.2 0 9.5 4.3 9.5 9.5v48.4z"/><path d="M45 74.9L21.9 57.1l-2.3 3L46 80.5l34.9-57.2-3.2-1.9z"/></symbol><symbol viewBox="0 0 100 100" id="circle-tick"><path d="M32 53c-.6-.4-1.2-.7-1.9-.7h-.4c-.8.1-1.6.5-2.1 1.2-.4.7-.6 1.5-.6 2.3.1.8.5 1.6 1.2 2.1l16.3 12.8c1.3 1 3.3.8 4.4-.5L80 30.6c.5-.7.7-1.5.6-2.3s-.5-1.6-1.2-2.1c-.6-.5-1.4-.7-2.2-.6-.8.1-1.5.5-2.1 1.1L45.9 63.9 32 53z"/><path d="M89.6 45.6c-.4-1.4-1.9-2.4-3.3-2.1-1.5.4-2.4 1.8-2 3.3 3.6 14.6-3.2 29.4-16.4 37-16.3 9.4-37.3 3.6-46.8-12.9S17.2 33.4 33.6 24c7.9-4.5 17.1-5.7 25.9-3.3.7.2 1.4.1 2.1-.3.6-.4 1.1-1 1.3-1.7.4-1.5-.5-3-1.9-3.4-10.2-2.8-20.9-1.5-30.1 3.8C11.9 30 5.4 54.4 16.4 73.5s35.3 25.9 54.3 15c15.2-8.7 23-25.9 18.9-42.9z"/></symbol><symbol viewBox="0 0 100 100" id="close"><path d="M82.5 75.2L57.3 49.9l25.1-25.1-7.2-7.2-25.1 25.1-25.3-25.2-7.2 7.2 25.2 25.2-25.3 25.4 7.2 7.2 25.4-25.3 25.2 25.2z"/></symbol><symbol viewBox="0 0 100 100" id="confirmation"><path d="M50 10c-22.1 0-40 17.9-40 40s17.9 40 40 40 40-17.9 40-40-17.9-40-40-40zm0 74.7c-19.1 0-34.7-15.6-34.7-34.7S30.9 15.3 50 15.3 84.7 30.9 84.7 50 69.1 84.7 50 84.7z"/><path d="M70.8 31.9c-.6-.5-1.3-.7-2.1-.6-.8.1-1.4.5-1.9 1.1L43.5 61.8l-10.8-8.5c-.6-.5-1.4-.7-2.1-.6-.7.1-1.4.5-1.9 1.1s-.7 1.4-.6 2.1c.1.8.5 1.4 1.1 1.9l13 10.2a3 3 0 0 0 4.1-.5l25-31.7c.5-.6.7-1.4.6-2.1-.1-.6-.5-1.3-1.1-1.8z"/></symbol><symbol viewBox="0 0 100 100" id="cost"><path d="M50 10c-22.1 0-40 17.9-40 40s17.9 40 40 40 40-17.9 40-40-17.9-40-40-40zm0 74.7c-19.1 0-34.7-15.6-34.7-34.7S30.9 15.3 50 15.3 84.7 30.9 84.7 50 69.1 84.7 50 84.7z"/><path d="M48.4 60.4c.4-.5.6-1.1.8-1.6s.3-1 .4-1.5c.1-.5.1-.9.1-1.3 0-.8-.1-1.6-.2-2.4-.1-.5-.2-.9-.3-1.4h5.2v-3.9h-6.8c-.3-.7-.6-1.4-.8-2.2-.3-.8-.4-1.8-.4-2.9 0-1.4.4-2.4 1.2-3.2s1.9-1.2 3.4-1.2 2.7.1 3.7.4c1 .2 1.8.5 2.4.8l.5.2 1.4-3.9-.4-.2c-.8-.4-1.9-.7-3.2-1s-2.8-.4-4.4-.4c-2.8 0-5 .7-6.6 2.2s-2.5 3.6-2.5 6.5c0 1.2.1 2.2.3 3.1.2.6.3 1.2.6 1.7h-2.5v3.9h4.1c.2.5.4 1.1.5 1.7.2.7.3 1.5.3 2.3 0 .6-.1 1.2-.3 1.8s-.4 1.1-.8 1.6c-.3.4-.8.8-1.4 1.1-.5.3-1.2.4-2 .4h-.5v4h19.3v-4H47.9c.2-.2.4-.4.5-.6z"/></symbol><symbol viewBox="0 0 100 100" id="date-time"><path d="M50 10c-22.1 0-40 17.9-40 40s17.9 40 40 40 40-17.9 40-40-17.9-40-40-40zm0 74.7c-19.1 0-34.7-15.6-34.7-34.7S30.9 15.3 50 15.3 84.7 30.9 84.7 50 69.1 84.7 50 84.7z"/><path d="M52 29.8h-4v23.8l15.6 17.9 3-2.6L52 52.1z"/></symbol><symbol viewBox="0 0 100 100" id="door"><path d="M76.9 92H23.1V15.5h53.8V92zm-50.8-3h47.8V18.5H26.1V89z"/><path d="M69.9 49.3H30.1v-27h39.8v27zm-36.8-3h33.8v-21H33.1v21zM34.3 61.9c-2.3 0-4.2-1.9-4.2-4.2 0-2.3 1.9-4.2 4.2-4.2s4.2 1.9 4.2 4.2c0 2.3-1.9 4.2-4.2 4.2zm0-5.4c-.7 0-1.2.5-1.2 1.2s.5 1.2 1.2 1.2 1.2-.5 1.2-1.2-.5-1.2-1.2-1.2z"/></symbol><symbol viewBox="0 0 100 100" id="down"><path d="M27 45l22.6 22.5L72.1 45l-3.7-3.7L49.6 60 30.8 41.3z"/></symbol><symbol viewBox="0 0 100 100" id="edit"><path d="M67.5 35.8c-1.1-1.4-2.7-2.2-4.4-2.4-1.7-.2-3.4.3-4.8 1.4l-1.9 1.6-.9.7-18.9 15.2c-.1.1-.2.2-.3.4l-5.7 11.8c-.2.4-.1.8.1 1.2.2.2.5.4.8.4h.3l11.4-2.3c.2 0 .3-.1.5-.2L66.5 45c1.4-1.1 2.2-2.7 2.4-4.4.2-1.8-.3-3.5-1.4-4.8zM42.2 61.7l-1.6.3-2.6.5c-.2-.7-.5-1.4-.9-2-.4-.5-.9-.9-1.4-1.2l1.1-2.2 1.1-2.2.1-.3c.7.4 1.6 1 2.5 1.8.4.4.8 1 1.2 1.6.5.9.8 1.9.8 3.1v.4l-.3.2z"/><path d="M50 14c19.9 0 36 16.1 36 36S69.9 86 50 86 14 69.9 14 50s16.1-36 36-36m0-4c-22.1 0-40 17.9-40 40s17.9 40 40 40 40-17.9 40-40-17.9-40-40-40z"/></symbol><symbol viewBox="0 0 100 100" id="email"><path d="M12.5 21.9v56.2h75V21.9h-75zm67.2 6.2L50 52.2 20.3 28.1h59.4zM18.8 71.9v-37L50 60.3 81.2 35v36.9H18.8z"/></symbol><symbol viewBox="0 0 100 100" id="facebook"><path d="M39.6 87.5h16.6V50h11.1l1.5-12.9H56.2v-6.5c0-3.4.3-5.2 5.5-5.2h6.9V12.5h-11c-13.3 0-18 6.3-18 16.8v7.8h-8.3V50h8.3v37.5z"/></symbol><symbol viewBox="0 0 100 100" id="home"><path d="M75.1 49.3c-1.2 0-2.2.9-2.2 2.2V81H57.6V68.9c0-1.1-.9-2.1-2.1-2.1h-11c-1.2 0-2.2 1-2.2 2.1V81H27V52.4c0-1.1-.9-2.1-2.2-2.1-1.1 0-2.1.9-2.1 2.1v30.7c0 1.1.9 2.1 2.1 2.1h19.7c1.1 0 2.1-.9 2.1-2.1v-12h6.8v12.1c0 1.1.9 2.1 2.2 2.1h19.6c1.1 0 2.1-.9 2.1-2.1V51.5c-.1-1.3-1-2.2-2.2-2.2z"/><path d="M86.9 51L69.8 33.9V22.2c0-1.2-1-2.2-2.2-2.2-1.1 0-2.1.9-2.1 2.2v7.4l-14-14.2c-.5-.4-1-.7-1.5-.7-.6 0-1.1.2-1.5.7L13.2 50.7c-.8.8-.9 2.2 0 3 .8.9 2.1.8 3 0L50 19.9 83.8 54c.4.4.9.6 1.5.6s1.1-.2 1.5-.6c.9-.7.9-2.2.1-3z"/></symbol><symbol viewBox="0 0 100 100" id="hotel"><path d="M38.3 32.8c0 6.4 5.2 11.7 11.7 11.7s11.7-5.2 11.7-11.7S56.4 21.1 50 21.1s-11.7 5.2-11.7 11.7zm19.6 0c0 4.4-3.5 7.9-7.9 7.9s-7.9-3.5-7.9-7.9 3.5-7.9 7.9-7.9 7.9 3.5 7.9 7.9zM73.5 58.7c-.9-.8-2-1.5-3.2-2-1.6-.7-3.4-1.1-5.3-1.1-7.1 0-12.8 5.7-12.8 12.8 0 3.4 1.4 6.5 3.5 8.8.9.9 1.9 1.7 3 2.3 1.9 1.1 4 1.7 6.3 1.7 7.1 0 12.8-5.7 12.8-12.8.1-3.9-1.6-7.4-4.3-9.7zm-8.4 18.7c-1.5 0-2.9-.4-4.1-1-1.2-.6-2.2-1.4-3-2.4-1.3-1.6-2-3.5-2-5.7 0-5 4.1-9.1 9.1-9.1 1.1 0 2.1.2 3 .5.3.1.6.2.9.4.3.1.5.3.8.4.3.2.5.3.7.5.2.2.5.4.7.6 1.7 1.7 2.8 4 2.8 6.6.1 5.1-3.9 9.2-8.9 9.2z"/><circle cx="65.1" cy="68.3" r="4.2"/><path d="M50 85.4L29 55.7c-7.9-10.3-6.8-27.3 2.4-36.4 5.1-5 11.9-7.5 18.6-7.5s13.5 2.5 18.6 7.5c9.1 8.9 10.3 25.5 2.7 36l3.2 2c8.5-11.8 7.1-30.6-3.3-40.7-11.7-11.4-30.7-11.4-42.4 0C18.3 27 17 46.3 26 58l24 33.9 7.9-11.1-3-2.2-4.9 6.8z"/></symbol><symbol viewBox="0 0 100 100" id="instagram"><path d="M50.4 62.7c-6.9 0-12.5-5.6-12.5-12.5s5.6-12.5 12.5-12.5 12.5 5.6 12.5 12.5-5.6 12.5-12.5 12.5zm15-22.9c-6.1-8.1-11.5-7.1-15.4-7.1s-10.3-.3-15.2 6.7H12.5v-8.1c0-10.4 8.4-18.8 18.7-18.8h37.5c10.3 0 18.7 8.4 18.7 18.8v8.5h-22zm10.9-19.1c0-1.1-.9-2.1-2.1-2.1h-6.4c-1.1 0-2.1.9-2.1 2.1v6.4c0 1.1.9 2.1 2.1 2.1h6.4c1.2 0 2.1-.9 2.1-2.1v-6.4zm-7.5 66.8H31.2c-10.3 0-18.7-8.4-18.7-16.6V44.4h21.4c-1.1 2.3-1.4 2.7-1.4 5.4 0 9.8 8 18.7 17.8 18.7s17.8-8.8 17.8-18.7c0-2.7-.6-3.1-1.7-5.4h21v24.4c.1 10.3-8.3 18.7-18.6 18.7z"/></symbol><symbol viewBox="0 0 100 100" id="left"><path d="M55.1 27.5L32.7 50l22.4 22.5 3.8-3.7L40.1 50l18.8-18.8z"/><path d="M50 8C26.8 8 8 26.8 8 50s18.8 42 42 42 42-18.8 42-42S73.2 8 50 8zm0 80c-21 0-38-17-38-38s17-38 38-38 38 17 38 38-17 38-38 38z"/></symbol><symbol viewBox="0 0 82.47 77.48" id="logged-out"><title>logged-out</title><path d="M36.15 47.58A21.55 21.55 0 1 1 57.7 26.05a21.57 21.57 0 0 1-21.55 21.53zm0-38.45a16.9 16.9 0 1 0 16.9 16.9 16.92 16.92 0 0 0-16.9-16.88zM82.47 7.13h-7.13V0h-4.65v7.13h-7.13v4.65h7.13v7.13h4.65v-7.13h7.13V7.13z"/><path d="M69.97 77.49H2.33A2.32 2.32 0 0 1 0 75.16c0-15 5.67-25.19 17.33-31.12a2.323 2.323 0 0 1 2.11 4.14C9.95 53.01 5.23 60.88 4.7 72.83h62.9c-.53-11.95-5.25-19.82-14.7-24.64a2.33 2.33 0 1 1 2.11-4.14c11.62 5.92 17.29 16.1 17.29 31.11a2.33 2.33 0 0 1-2.33 2.33z"/></symbol><symbol viewBox="0 0 100 100" id="mastercard"><style>.st0{fill:#010202}.st1{fill:#1e1e1c}.ayst2{fill:#f19730}.ayst3{fill:#c81c21}.ayst4{fill:#f7b14e}.ayst5{fill:#232a55}.ayst6{fill:#fff}.st7{fill:#293167}.st8{fill:#e29626}.st9{fill:#090909}</style><g id="aySail_Waves"><g id="ayclose"><g id="aylayer1"><g id="ayg10305"><path id="aypath2268" class="ayst2" d="M87.5 50c0 12.4-10 22.4-22.4 22.5-12.4 0-22.4-10-22.5-22.4 0-12.4 10-22.4 22.4-22.5 12.4-.1 22.5 10 22.5 22.4z"/><path id="aypath1350" class="ayst3" d="M34.8 27.6c-12.3 0-22.3 10.1-22.3 22.4 0 12.4 10.1 22.4 22.4 22.4 5.8 0 11.1-2.2 15.1-5.8.8-.7 1.6-1.5 2.3-2.4h-4.6c-.6-.7-1.2-1.5-1.7-2.3h8c.5-.8.9-1.6 1.3-2.4H44.8c-.4-.8-.7-1.6-.9-2.4h12.4c.7-2.2 1.2-4.6 1.2-7.1 0-1.6-.2-3.3-.5-4.8H43.2l.6-2.4h12.4c-.3-.8-.6-1.6-1-2.4H44.7c.4-.8.8-1.6 1.3-2.4h8c-.5-.8-1.1-1.6-1.7-2.4h-4.4c.7-.8 1.4-1.6 2.3-2.3-4-3.6-9.3-5.8-15.1-5.8-.2.1-.3.1-.3.1z"/><path id="ayuse9412" class="ayst4" d="M85.2 61.7c.1 0 .2 0 .4.1l.3.3c.1.1.1.2.1.4 0 .1 0 .2-.1.4l-.3.3c-.1.1-.2.1-.4.1s-.2 0-.4-.1l-.3-.3c-.1-.1-.1-.2-.1-.4 0-.1 0-.2.1-.4l.3-.3c.2 0 .3-.1.4-.1m0 .2c-.1 0-.2 0-.3.1-.1.1-.2.1-.2.2-.1.1-.1.2-.1.3 0 .1 0 .2.1.3.1.1.1.2.2.2.1.1.2.1.3.1.1 0 .2 0 .3-.1.1-.1.2-.1.2-.2.1-.1.1-.2.1-.3 0-.1 0-.2-.1-.3-.1-.1-.1-.2-.2-.2-.1-.1-.2-.1-.3-.1m-.3 1v-.8h.5s.1 0 .1.1v.1c0 .1 0 .1-.1.1 0 0-.1.1-.2.1h.1s.1.1.1.2l.1.2h-.2l-.1-.1c-.1-.1-.1-.2-.1-.2h-.2v.3m.2-.5H85.4v-.1-.1h-.1-.2v.2"/></g><g id="ayg16480"><g id="ayg13802" transform="translate(-13.744 15.994)"><path id="aypath13804" class="ayst5" d="M56.1 40.4l.3-2c-.2 0-.4.1-.6.1-.8 0-.9-.4-.9-.8l.8-4.1H57l.3-2.3h-1.2l.2-1.4h-2.5c-.1.1-1.4 7.9-1.4 8.8 0 1.4.8 2 1.9 2 .9.1 1.6-.2 1.8-.3z"/><path id="aypath13806" class="ayst5" d="M56.9 36.6c0 3.4 2.2 4.2 4.1 4.2 1.8 0 2.7-.4 2.7-.4l.4-2.3s-1.5.6-2.7.6c-2.6 0-2.1-1.9-2.1-1.9h4.9s.3-1.5.3-2.2c0-1.6-.9-3.5-3.5-3.5-2.3 0-4.1 2.5-4.1 5.5zm4.2-3.4c1.3 0 1.1 1.5 1.1 1.6h-2.7c0-.1.3-1.6 1.6-1.6z"/><path id="aypath13808" class="ayst5" d="M76.2 40.4l.4-2.6s-1.2.6-2 .6c-1.7 0-2.4-1.3-2.4-2.7 0-2.8 1.5-4.4 3.1-4.4 1.2 0 2.2.7 2.2.7l.4-2.5s-1.2-.8-2.4-.8c-3.7 0-5.9 2.6-5.9 7.1 0 3 1.6 5 4.4 5 .9 0 2.2-.4 2.2-.4z"/><path id="aypath13810" class="ayst5" d="M43 31.1c-1.6 0-2.9.5-2.9.5l-.3 2.1s1-.4 2.6-.4c.9 0 1.5.1 1.5.8 0 .4-.1.6-.1.6s-.7-.1-1-.1c-2.3 0-4.2.9-4.2 3.5 0 2.1 1.4 2.6 2.3 2.6 1.7 0 2.4-1.1 2.4-1.1v.9h2.1l.9-6.6c0-2.7-2.5-2.8-3.3-2.8zm.4 5.3c0 .4-.1 2.3-1.5 2.3-.7 0-.9-.6-.9-.9 0-.7.4-1.4 2.1-1.4h.3z"/><path id="aypath13812" class="ayst5" d="M48.5 40.7c.5 0 3.6.1 3.6-3 0-3-2.8-2.4-2.8-3.6 0-.6.5-.8 1.3-.8.3 0 1.6.1 1.6.1l.3-2.1s-.8-.2-2.2-.2c-1.8 0-3.6.7-3.6 3.1 0 2.7 3 2.5 3 3.6 0 .8-.8.8-1.5.8-1.1 0-2.1-.4-2.1-.4l-.3 2.1c.1.1.7.4 2.7.4z"/><path id="aypath13814" class="ayst5" d="M95.9 29.2l-.4 3.2s-.9-1.2-2.3-1.2c-2.6 0-4 2.6-4 5.7 0 2 1 3.9 3 3.9 1.4 0 2.2-1 2.2-1l-.1.9h2.3l1.8-11.4-2.5-.1zm-1 6.2c0 1.3-.6 2.9-1.9 2.9-.9 0-1.3-.7-1.3-1.9 0-1.9.8-3.1 1.9-3.1.9.2 1.3.7 1.3 2.1z"/><path id="aypath13816" class="ayst5" d="M30.1 40.6l1.5-8.6.2 8.6h1.6l3.1-8.6-1.4 8.6h2.4l1.9-11.4h-3.9l-2.3 7-.1-6.9h-3.6l-1.9 11.4 2.5-.1z"/><path id="aypath13818" class="ayst5" d="M66.9 40.6c.7-4 .9-7.1 3-6.4.3-1.5 1-2.9 1.3-3.5 0 0-.1-.1-.7-.1-1.1 0-2.5 2.2-2.5 2.2l.2-1.3H66l-1.5 9.3 2.4-.2z"/><g id="ayuse14699" transform="translate(845.3)"><path id="aypath13810_1_" class="ayst5" d="M-764.1 31.1c-1.6 0-2.9.5-2.9.5l-.3 2.1s1-.4 2.6-.4c.9 0 1.5.1 1.5.8 0 .4-.1.6-.1.6s-.7-.1-1-.1c-2.3 0-4.2.9-4.2 3.5 0 2.1 1.4 2.6 2.3 2.6 1.7 0 2.4-1.1 2.4-1.1v.9h2.1l.9-6.6c0-2.7-2.4-2.8-3.3-2.8zm.4 5.3c0 .4-.1 2.3-1.5 2.3-.7 0-.9-.6-.9-.9 0-.7.4-1.4 2.1-1.4h.3z"/></g><path id="ayuse14701" class="ayst5" d="M86.9 40.6c.4-2.9 1.1-7 3-6.4.3-1.5 0-1.5-.6-1.5H88l.2-1.3H86l-1.5 9.3 2.4-.1z"/></g><g id="ayg10289"><path id="aypath4157" class="ayst6" d="M43 55.7l.3-2c-.2 0-.4.1-.6.1-.8 0-.9-.4-.9-.8l.7-4.1h1.3l.3-2.2h-1.2l.2-1.4h-2.4c-.1.1-1.4 7.9-1.4 8.8 0 1.4.8 2 1.9 2 .9-.1 1.6-.3 1.8-.4z"/><path id="aypath4155" class="ayst6" d="M43.8 51.8c0 3.4 2.2 4.2 4.1 4.2 1.8 0 2.5-.4 2.5-.4l.4-2.3s-1.3.6-2.5.6c-2.6 0-2.1-1.9-2.1-1.9h4.9s.3-1.5.3-2.2c0-1.6-.8-3.5-3.4-3.5-2.4 0-4.2 2.6-4.2 5.5zm4.2-3.3c1.3 0 1.1 1.5 1.1 1.6h-2.7c0-.2.3-1.6 1.6-1.6z"/><path id="aypath4151" class="ayst6" d="M63.1 55.7l.4-2.6s-1.2.6-2 .6c-1.7 0-2.4-1.3-2.4-2.7 0-2.8 1.5-4.4 3.1-4.4 1.2 0 2.2.7 2.2.7l.4-2.5s-1.4-.6-2.7-.6c-2.8 0-5.4 2.4-5.4 6.9 0 3 1.4 4.9 4.3 4.9.8 0 2.1-.3 2.1-.3z"/><path id="aypath4149" class="ayst6" d="M29.9 46.4c-1.6 0-2.9.5-2.9.5l-.3 2.1s1-.4 2.6-.4c.9 0 1.5.1 1.5.8 0 .4-.1.6-.1.6s-.7-.1-1-.1c-2.1 0-4.2.9-4.2 3.5 0 2.1 1.4 2.6 2.3 2.6 1.7 0 2.4-1.1 2.5-1.1l-.1.9h2.1l.9-6.6c0-2.7-2.5-2.8-3.3-2.8zm.5 5.3c0 .4-.3 2.3-1.7 2.3-.7 0-.9-.6-.9-.9 0-.7.4-1.4 2.1-1.4h.5z"/><path id="aypath4145" class="ayst6" d="M35.4 56c.5 0 3.6.1 3.6-3 0-3-2.8-2.4-2.8-3.6 0-.6.5-.8 1.3-.8.3 0 1.6.1 1.6.1l.3-2.1s-.8-.2-2.2-.2c-1.8 0-3.6.7-3.6 3.1 0 2.7 3 2.5 3 3.6 0 .8-.8.8-1.5.8-1.1 0-2.1-.4-2.1-.4l-.3 2.1c.1.1.7.4 2.7.4z"/><path id="aypath4139" class="ayst6" d="M82.9 44.5l-.5 3.2s-.9-1.2-2.3-1.2c-2.2 0-4 2.6-4 5.7 0 2 1 3.9 3 3.9 1.4 0 2.2-1 2.2-1l-.1.9h2.3l1.8-11.4-2.4-.1zm-1.1 6.2c0 1.3-.6 2.9-1.9 2.9-.9 0-1.3-.7-1.3-1.9 0-1.9.8-3.1 1.9-3.1.8.1 1.3.7 1.3 2.1z"/><path id="aypath4133" class="ayst6" d="M16.9 55.8l1.5-8.6.2 8.6h1.6l3.1-8.6-1.3 8.6h2.4l1.9-11.4h-3.8l-2.4 7-.1-7h-3.5l-1.9 11.4h2.3z"/><path id="aypath4131" class="ayst6" d="M53.8 55.9c.7-4 .8-7.2 2.5-6.6.3-1.5.6-2.1.9-2.8h-.5c-1.1 0-1.9 1.5-1.9 1.5l.2-1.3h-2.2L51.3 56h2.5z"/><g id="ayuse8523" transform="translate(847.006)"><path id="aypath4149_1_" class="ayst6" d="M-778.4 46.4c-1.6 0-2.9.5-2.9.5l-.3 2.1s1-.4 2.6-.4c.9 0 1.5.1 1.5.8 0 .4-.1.6-.1.6s-.7-.1-1-.1c-2.1 0-4.2.9-4.2 3.5 0 2.1 1.4 2.6 2.3 2.6 1.7 0 2.4-1.1 2.5-1.1l-.1.9h2.1l.9-6.6c0-2.7-2.4-2.8-3.3-2.8zm.5 5.3c0 .4-.3 2.3-1.7 2.3-.7 0-.9-.6-.9-.9 0-.7.4-1.4 2.1-1.4h.5z"/></g><g id="ayuse8525" transform="translate(442.286)"><path id="aypath4131_1_" class="ayst6" d="M-368.5 55.9c.7-4 .8-7.2 2.5-6.6.3-1.5.6-2.1.9-2.8h-.5c-1.1 0-1.9 1.5-1.9 1.5l.2-1.3h-2.2L-371 56h2.5z"/></g><path id="aytext9407" class="ayst6" d="M85.2 54.4c.1 0 .2 0 .4.1l.3.3c.1.1.1.2.1.4 0 .1 0 .2-.1.4l-.3.3c-.1.1-.2.1-.4.1-.1 0-.2 0-.4-.1l-.3-.3c-.1-.1-.1-.2-.1-.4 0-.1 0-.2.1-.4l.3-.3c.2 0 .3-.1.4-.1m0 .1c-.1 0-.2 0-.3.1-.1.1-.2.1-.2.2-.1.1-.1.2-.1.3 0 .1 0 .2.1.3.1.1.1.2.2.2.1.1.2.1.3.1.1 0 .2 0 .3-.1.1-.1.2-.1.2-.2.1-.1.1-.2.1-.3 0-.1 0-.2-.1-.3-.1-.1-.1-.2-.2-.2s-.2-.1-.3-.1m-.3 1.1v-.8h.5s.1 0 .1.1v.1c0 .1 0 .1-.1.1 0 0-.1.1-.2.1h.1s.1.1.1.2l.1.2h-.2l-.1-.1c-.1-.1-.1-.2-.1-.2H85v.3h-.1m.1-.5H85.3V55v-.1h-.1-.2v.2"/></g></g></g></g></g></symbol><symbol viewBox="0 0 100 100" id="menu"><path d="M14 46.8h72v6.5H14zM14 74.5h72V81H14zM14 19h72v6.5H14z"/></symbol><symbol viewBox="0 0 100 100" id="next-button"><path d="M50 10c-22.1 0-40 17.9-40 40s17.9 40 40 40 40-17.9 40-40-17.9-40-40-40zm-4.9 62.5l-3.7-3.7L60.1 50 41.3 31.2l3.7-3.7L67.5 50 45.1 72.5z"/></symbol><symbol viewBox="0 0 100 100" id="password"><path d="M42.8 68.1c0 2-1.6 3.6-3.6 3.6s-3.6-1.6-3.6-3.6 1.6-3.6 3.6-3.6c2-.1 3.6 1.6 3.6 3.6zm10.8 0c0 2-1.6 3.6-3.6 3.6s-3.6-1.6-3.6-3.6 1.6-3.6 3.6-3.6 3.6 1.6 3.6 3.6zm10.8 0c0 2-1.6 3.6-3.6 3.6s-3.6-1.6-3.6-3.6 1.6-3.6 3.6-3.6c2-.1 3.6 1.6 3.6 3.6zm7.3-25.3V28.3c0-12-9.7-21.7-21.7-21.7s-21.7 9.7-21.7 21.7v14.4H17.5v50.6h65V42.8H71.7zM35.6 28.3c0-8 6.5-14.4 14.4-14.4s14.4 6.5 14.4 14.4v14.4H35.6V28.3zm39.7 57.8H24.7V50h50.6v36.1z"/></symbol><symbol viewBox="0 0 100 100" id="payment-method"><path d="M87.4 32.5c0-4.6-3.6-8.4-8.3-8.4H20.8c-4.7 0-8.3 3.7-8.3 8.4 0 11.6.1 23.2-.1 34.7-.1 4.2 3.4 8.8 8.7 8.8 10.7-.1 21.3 0 32 0H78.8c5.2 0 8.7-4.6 8.7-8.8-.2-11.6-.1-23.2-.1-34.7zm-5.5 33.8c0 3.1-.9 4-4 4H22.1c-3 0-4-.9-4-4V33.8c0-3.2.9-4.1 4-4.1h55.7c3.2 0 4 .9 4 4.1.1 10.9.1 21.7.1 32.5z"/><path d="M38.4 51c-.9.5-1.6.4-2.5-.1-5.6-2.8-12.1 1.2-12.3 7.5-.2 6.5 6.6 10.9 12.4 8 .9-.5 1.5-.5 2.5 0 3.7 1.9 8 .9 10.6-2.3 2.5-3.1 2.6-7.6.1-10.7-2.7-3.3-7.1-4.3-10.8-2.4zm4.1 13.5c-3.2.1-5.9-2.5-5.9-5.7 0-3.3 2.5-5.8 5.8-5.8 3.2 0 5.9 2.6 5.9 5.8-.1 3-2.7 5.6-5.8 5.7zM73.1 38.4H27c-1.6 0-2.9 1.3-2.9 2.9s1.3 2.9 2.9 2.9h46.1c1.6 0 2.9-1.3 2.9-2.9s-1.3-2.9-2.9-2.9zM73.1 55.8H58.8c-1.6 0-2.9 1.3-2.9 2.9s1.3 2.9 2.9 2.9h14.3c1.6 0 2.9-1.3 2.9-2.9s-1.3-2.9-2.9-2.9z"/></symbol><symbol viewBox="0 0 100 100" id="pinterest"><path d="M51.7 12.5c-20.3 0-30.6 14.7-30.6 26.9 0 7.4 2.8 14 8.8 16.5 1 .4 1.9 0 2.1-1.1.2-.8.7-2.7.9-3.5.3-1.1.2-1.5-.6-2.4-1.7-2-2.8-4.7-2.8-8.4 0-10.9 8.1-20.6 21.1-20.6 11.5 0 17.8 7.1 17.8 16.5 0 12.4-5.5 22.9-13.6 22.9-4.5 0-7.8-3.7-6.8-8.3 1.3-5.4 3.8-11.3 3.8-15.3 0-3.5-1.9-6.5-5.8-6.5-4.6 0-8.2 4.8-8.2 11.2 0 4.1 1.4 6.8 1.4 6.8s-4.7 20-5.5 23.5c-1.6 7-.2 15.5-.1 16.4.1.5.7.6 1 .2.4-.5 5.9-7.3 7.7-14.1.5-1.9 3-11.8 3-11.8 1.5 2.9 5.8 5.4 10.5 5.4 13.8 0 23.1-12.6 23.1-29.5-.1-12.9-10.8-24.8-27.2-24.8z"/></symbol><symbol viewBox="0 0 100 100" id="plus"><path d="M90 44.8H55V10H45v34.8H10v10h35V90h10V54.8h35z"/></symbol><symbol viewBox="0 0 100 100" id="plus-select"><path d="M50 10c-22.1 0-40 17.9-40 40s17.9 40 40 40 40-17.9 40-40-17.9-40-40-40zm0 74.7c-19.1 0-34.7-15.6-34.7-34.7S30.9 15.3 50 15.3 84.7 30.9 84.7 50 69.1 84.7 50 84.7z"/><path d="M69 47.9H52.2V31.1c0-1.2-1-2.1-2.1-2.1-1.2 0-2.1 1-2.1 2.1v16.8H31.2c-1.2 0-2.1 1-2.1 2.1 0 .6.2 1.1.6 1.5s.9.6 1.5.6H48v16.8c0 .6.2 1.1.6 1.5.4.4.9.6 1.5.6 1.2 0 2.1-1 2.1-2.1V52.1H69c1.2 0 2.1-1 2.1-2.1 0-1.2-.9-2.1-2.1-2.1z"/></symbol><symbol viewBox="0 0 100 100" id="remove-item"><path d="M50 10c-22.1 0-40 17.9-40 40s17.9 40 40 40 40-17.9 40-40-17.9-40-40-40zm0 74.7c-19.1 0-34.7-15.6-34.7-34.7S30.9 15.3 50 15.3 84.7 30.9 84.7 50 69.1 84.7 50 84.7z"/><path d="M64.9 35.1c-.8-.8-2.2-.8-3 0L50 47 38.1 35.1c-.8-.8-2.2-.8-3 0s-.8 2.2 0 3L47 50 35.1 61.9c-.8.8-.8 2.2 0 3 .4.4.9.6 1.5.6s1.1-.2 1.5-.6L50 53l11.9 11.9c.4.4.9.6 1.5.6s1.1-.2 1.5-.6c.8-.8.8-2.2 0-3L53 50l11.9-11.9c.9-.8.9-2.2 0-3z"/></symbol><symbol viewBox="0 0 100 100" id="right"><path d="M41.1 31.2L59.9 50 41.1 68.8l3.8 3.7L67.3 50 44.9 27.5z"/><path d="M50 92C26.8 92 8 73.2 8 50S26.8 8 50 8s42 18.8 42 42-18.8 42-42 42zm0-80c-21 0-38 17-38 38s17 38 38 38 38-17 38-38-17-38-38-38z"/></symbol><symbol viewBox="0 0 100 100" id="right-arrow"><path d="M87 50c0 2.7-1.5 5.1-3.8 6.3L20.5 89.4c-2.5 1.3-5.6.4-6.9-2.1s-.4-5.6 2.1-6.9L73.2 50 15.7 19.6c-2.5-1.3-3.4-4.4-2.1-6.9s4.4-3.4 6.9-2.1l62.7 33.2c2.3 1.1 3.8 3.5 3.8 6.2z"/></symbol><symbol viewBox="0 0 100 100" id="settings"><path d="M88.3 58.5l-7-4s-1.9-.9-1.8-4.4c0 0-.5-4 2-5.3l6.8-4.2s2.2-1 1.3-3.4l-2.9-6.6s-.9-2.6-3.7-1.7l-7.9 2.5s-2.7 0-4.4-1.9c0 0-2.8-2.7-2-5.1l1.8-7.9s.5-2.3-1.3-3.2L61 10.2s-1.8-.1-2.3 1.3l-4.6 8.3S51.9 21.6 49 21c0 0-3.1-.3-3.8-1 0 0-4.7-7.9-4.9-8.3 0 0-.9-1.8-2.7-1.1L30 13.7s-1.5.9-1.1 2.3l2.7 10s-.6 2.5-2.3 3.8c0 0-3.1 2.3-4.5 2l-8.2-2s-2.4-.9-3.3 1.2l-3.1 7.6s-.6 1.6 1 2.5l8.1 4.6s2.6 1.2 1.8 5.7c0 0 .2 3.3-3.1 5.1s-6.1 3.6-6.1 3.6-1.9.9-1.1 2.9c.8 1.9 3.7 7.5 3.7 7.5s.5 1.4 3.1.4l7.1-1.9s2.1-.6 4.2 1.3c0 0 3 2.1 2.8 3.8l-2 10s-.6 1.7 1.3 2.8l7.9 3s2.2.2 2.8-1.6l3.5-6.3s1.1-2.8 4.8-2.6c0 0 3.7-.3 5 1.7l4.5 7.5s.8 1.9 3.3.8l7-3s2-1.3 1.4-3.1L69 75.7s-1-2.1 1.1-4.3c0 0 2.2-3.6 5.2-2.9l8.4 2s1.7.8 3.3-1.7l2.7-6.7c.2-.2 1-2.6-1.4-3.6zm-52.5-2.4c-3.4-7.9.3-17.1 8.2-20.5s17.1.3 20.5 8.2-.3 17.1-8.3 20.5c-7.8 3.4-17-.3-20.4-8.2z"/></symbol><symbol viewBox="0 0 100 100" id="share"><path d="M50 92C26.8 92 8 73.2 8 50S26.8 8 50 8s42 18.8 42 42-18.8 42-42 42zm0-80c-21 0-38 17-38 38s17 38 38 38 38-17 38-38-17-38-38-38z"/><path d="M60.7 56.1c-2.3 0-4.3 1-5.8 2.5l-12.4-6c.3-.8.5-1.7.5-2.6 0-.9-.2-1.8-.5-2.6l12.4-6c1.4 1.6 3.5 2.5 5.8 2.5 4.3 0 7.8-3.5 7.8-7.8s-3.5-7.8-7.8-7.8-7.8 3.5-7.8 7.8c0 .4 0 .8.1 1.2l-13.2 6.3c-1.3-.9-2.9-1.5-4.6-1.5-4.3 0-7.8 3.5-7.8 7.8s3.5 7.8 7.8 7.8c1.7 0 3.3-.6 4.6-1.5L53 62.6c-.1.4-.1.8-.1 1.2 0 4.3 3.5 7.8 7.8 7.8s7.8-3.5 7.8-7.8-3.5-7.7-7.8-7.7z"/></symbol><symbol viewBox="0 0 100 100" id="star"><path d="M52 13.3l8.4 26.2h27.5c1.1 0 2.1.9 2.1 2.1 0 .7-.4 1.3-.9 1.7l-22.2 16 8.5 26.2c.4 1.1-.2 2.2-1.3 2.6-.7.2-1.5.1-2-.4L50 71.5 27.8 87.7c-.9.7-2.2.5-2.9-.4-.4-.6-.5-1.3-.3-1.8l8.6-26.2-22.3-16.1c-.9-.7-1.1-2-.5-2.9.4-.6 1.1-.9 1.8-.9h27.4L48 13.3c.4-1.1 1.5-1.7 2.6-1.4.7.3 1.2.8 1.4 1.4zm4.9 28.9L50 20.6l-7 21.5c-.3.9-1.1 1.4-2 1.4H18.4l18.3 13.2c.7.5 1 1.4.7 2.3l-7 21.5 18.2-13.3c.7-.5 1.7-.6 2.5 0l18.3 13.3-7-21.4c-.3-.9-.1-1.8.7-2.4l18.4-13.2H58.9c-.8.2-1.7-.4-2-1.3z"/></symbol><symbol viewBox="0 0 100 100" id="timer"><path d="M44.4 52.3c.8 1.9 2.6 3.3 4.6 3.7 1.7.4 3.5.1 5-.8 1.6-1 2.7-2.6 3-4.5s-.3-3.7-1.6-5.1L31 18.6c-.2-.2-.6-.3-.9-.1-.3.2-.4.5-.2.8l14.5 33z"/><ellipse cx="50" cy="14" rx="4" ry="4"/><path d="M62.1 12.5c-1.4-.4-3 .4-3.5 1.8-.4 1.5.4 3 1.9 3.4 14.5 4.2 24 17.4 24 32.7C84.5 69.2 69 84.5 50 84.5S15.5 69.2 15.5 50.4c0-9.1 3.6-17.7 10.1-24.1.5-.5.8-1.2.8-1.9s-.3-1.4-.8-1.9c-1.1-1.1-2.8-1.1-3.9 0C14.1 29.8 10 39.8 10 50.4 10 72.2 27.9 90 50 90s40-17.8 40-39.6c0-17.7-11.1-33.1-27.9-37.9z"/></symbol><symbol viewBox="0 0 100 100" id="twitter"><path d="M88.2 27.1c-2.8 1.2-5.8 2-9 2.4 3.2-1.9 5.7-4.8 6.9-8.4-3 1.7-6.4 3-10 3.7-2.9-2.9-6.9-4.8-11.4-4.8C56 20 49 26.8 49 35.1c0 1.2.1 2.3.4 3.5-13-.6-24.6-6.7-32.3-15.8-1.3 2.2-2.1 4.8-2.1 7.6 0 5.3 2.8 9.9 7 12.6-2.6-.1-5-.8-7.1-1.9v.2c0 7.3 5.4 13.5 12.6 14.9-1.3.3-2.7.5-4.1.5-1 0-2-.1-2.9-.3 2 6 7.8 10.4 14.6 10.5-5.4 4.1-12.1 6.5-19.5 6.5-1.3 0-2.5-.1-3.7-.2 6.9 4.3 15.2 6.8 24 6.8 28.8 0 44.6-23.1 44.6-43.1v-2c2.9-2.1 5.6-4.8 7.7-7.8z"/></symbol><symbol viewBox="0 0 100 100" id="user-icon"><path d="M50 16.7c9.2 0 16.7 7.5 16.7 16.7C66.7 42.5 59.2 50 50 50s-16.7-7.5-16.7-16.7S40.8 16.7 50 16.7zm0-6.7c-12.9 0-23.3 10.4-23.3 23.3S37.1 56.6 50 56.6s23.3-10.5 23.3-23.3C73.3 20.4 62.9 10 50 10zm21.2 44.5c-1.7 1.7-3.5 3.1-5.5 4.3 9.6 6.2 14.6 16.9 16.6 24.5H17.7c1.9-7.6 6.9-18.3 16.6-24.5-2-1.2-3.9-2.7-5.5-4.4C14.5 64.7 10 82.8 10 90h80c0-7.1-4.8-25.2-18.8-35.5z"/></symbol><symbol viewBox="0 0 100 100" id="visa"><style>.st0{fill:#010202}.st1{fill:#1e1e1c}.st2{fill:#f19730}.st3{fill:#c81c21}.st4{fill:#f7b14e}.st5{fill:#232a55}.st6{fill:#fff}.bpst7{fill:#293167}.bpst8{fill:#e29626}.st9{fill:#090909}</style><g id="bpSail_Waves"><g id="bpclose"><g id="bplayer2"><path id="bprect1441" class="bpst7" d="M12.5 26.9h75v12.2h-75z"/><path id="bprect3194" class="bpst8" d="M12.5 60.8h75V73h-75z"/><path id="bppath3214" class="bpst7" d="M25.4 42v-.5l7.7.1.1 10.8 6.3-10.7h3.8l-10 16.8H29s-.2-8.6-.4-12.8c-.1-3.6-1.8-3.3-3.2-3.7z"/><path id="bppath4089" class="bpst7" d="M39.5 58.5h4.4l5.5-17H45l-5.5 17z"/><path id="bppath4964" class="bpst7" d="M61.1 45.4S58.8 44 57.5 44c-.8 0-2.3.7-2.3 2 0 2.7 4.9 2.6 4.9 6.9 0 2-1.1 5.9-7.1 5.9-4.1 0-5.7-1.8-5.7-1.8l1.4-2.5s1.8 1.3 4.2 1.3c1.8 0 3-.7 3-1.8 0-2.2-5.3-3.1-5.3-6.9 0-3.1 2.8-6 7.1-6 3.5 0 5.2 2.1 5.2 2.1l-1.8 2.2z"/><path id="bppath5839" class="bpst7" d="M73.8 41.7h-4.9l-9.2 16.9h3.9l1.7-3.4h5v3.4h4.2l-.7-16.9zm-4.1 4.7l.5 6h-3.7l3.2-6z"/></g></g></g></symbol><symbol viewBox="0 0 100 100" id="work"><path d="M82.4 9.6H17.6c-2.8 0-5.1 2.3-5.1 5.1v75.7h75V14.7c0-2.8-2.3-5.1-5.1-5.1zm1.1 76.8H58v-16H42v16H16.5V14.7c0-.6.5-1.1 1.1-1.1h64.9c.6 0 1.1.5 1.1 1.1l-.1 71.7z"/><path d="M22.2 18.8h16v11h-16zM22.2 70.2h16v11h-16zM22.2 53.1h16v11h-16zM22.2 35.9h16v11h-16zM62 18.8h16v11H62zM62 70.2h16v11H62zM62 53.1h16v11H62zM62 35.9h16v11H62zM42 18.8h16v11H42zM42 53.1h16v11H42zM42 36h16v11H42z"/></symbol></svg>