<?xml version="1.0" encoding="utf-8"?>
<!-- Generator: Adobe Illustrator 19.2.1, SVG Export Plug-In . SVG Version: 6.00 Build 0)  -->
<svg version="1.1" id="Layer_1" xmlns="http://www.w3.org/2000/svg" xmlns:xlink="http://www.w3.org/1999/xlink" x="0px" y="0px"
	 viewBox="0 0 100 100" style="enable-background:new 0 0 100 100;" xml:space="preserve">
<g id="NEHC_Logo">
</g>
<g id="Sail_Waves">
	<g id="close">
	</g>
</g>
<g id="Bag">
</g>
<g id="User">
	<g>
		<path d="M52.7,12C52.7,12,52.8,12,52.7,12c14.7,1.9,23.6,17.4,18.4,31c-2.7,7.1-7,13.2-11.8,19c-3,3.6-6,7.1-9.1,10.6
			c-0.1,0-0.3,0-0.3,0c-6.4-7.3-13-14.4-17.8-23c-2.6-4.7-4.7-9.6-4.7-15.2C27.6,21.4,39.8,10.4,52.7,12z M50,65.4
			c5.7-6.4,11-12.8,14.8-20.3c0.9-1.8,1.7-3.8,2.3-5.8c2.5-8.8-2.1-18-10.5-21.4C48.3,14.5,38.7,18,34.4,26
			c-3.2,5.8-2.7,11.7,0,17.6C38.2,51.8,44,58.6,50,65.4z"/>
		<path d="M12.5,88.1c0-0.3,0-0.7,0.1-1c3-10.9,6.1-21.7,9.1-32.6c0.1-0.3,0.2-0.5,0.3-0.9c2.9,0,5.8,0,8.7,0c0,1.5,0,3,0,4.7
			c-1.7,0-3.4,0-5.2,0c-2.3,8.3-4.6,16.6-7,24.9c20.9,0,41.7,0,62.7,0c-2.3-8.3-4.6-16.6-7-24.9c-1.8,0-3.5,0-5.2,0
			c0-1.6,0-3.1,0-4.7c2.9,0,5.8,0,8.9,0c1.1,4,2.2,8,3.4,12c2,7,3.9,14,5.9,21c0.1,0.5,0.2,1,0.3,1.4C62.5,88.1,37.5,88.1,12.5,88.1
			z"/>
		<path d="M59.5,33.5c-0.1,5.3-4.4,9.5-9.7,9.4c-5.2-0.1-9.5-4.4-9.4-9.7c0.1-5.2,4.4-9.4,9.6-9.3C55.3,23.9,59.6,28.2,59.5,33.5z
			 M54.8,33.3c0-2.6-2.2-4.7-4.8-4.7s-4.7,2.1-4.7,4.7c0,2.7,2.2,4.8,4.9,4.8C52.7,38.1,54.8,35.9,54.8,33.3z"/>
	</g>
</g>
<g id="Burger_Menu">
</g>
<g id="Tick">
</g>
<g id="Instagram">
	<g id="instagram">
	</g>
</g>
<g id="Pinterest">
	<g id="pinterest">
	</g>
</g>
<g id="Tumblr">
</g>
<g id="Twitter">
</g>
<g id="Facebook">
</g>
<g id="Share">
</g>
<g id="Down_arrow">
	<g id="chevron-up">
	</g>
</g>
<g id="Edit">
</g>
</svg>
