<?xml version="1.0" encoding="utf-8"?>
<!-- Generator: Adobe Illustrator 19.2.1, SVG Export Plug-In . SVG Version: 6.00 Build 0)  -->
<svg version="1.1" xmlns="http://www.w3.org/2000/svg" xmlns:xlink="http://www.w3.org/1999/xlink" x="0px" y="0px"
	 viewBox="0 0 100 100" style="enable-background:new 0 0 100 100;" xml:space="preserve">
<style type="text/css">
	.st0{fill:#010202;}
	.st1{fill:#1E1E1C;}
	.st2{fill:#0472B3;}
	.st3{fill:#F19730;}
	.st4{fill:#C81C21;}
	.st5{fill:#F7B14E;}
	.st6{fill:#232A55;}
	.st7{fill:#FFFFFF;}
	.st8{fill:#293167;}
	.st9{fill:#E29626;}
	.st10{fill:#090909;}
</style>
<g id="NEHC_Logo">
</g>
<g id="Sail_Waves">
	<g id="close">
		<g>
			<path class="st2" d="M12.6,26.6c0,15.7,0,31.3,0,47c25,0,50,0,75,0c0-15.7,0-31.3,0-47C62.5,26.6,37.6,26.6,12.6,26.6z
				 M74.8,49.8c2.1,2.3,4.1,4.6,6.2,6.8c0.2,0.2,0.3,0.4,0.5,0.6c-0.2,0-0.3,0-0.4,0c-2.9,0-5.8,0-8.7,0c-0.2,0-0.4-0.1-0.5-0.2
				c-0.6-0.7-1.2-1.3-1.7-2c-0.1-0.2-0.2-0.2-0.4,0c-0.6,0.7-1.2,1.3-1.8,2c-0.2,0.2-0.3,0.3-0.6,0.3c-4.6,0-9.2,0-13.9,0
				c-7,0-14,0-20.9,0c-0.5,0-0.5,0-0.7-0.4c-0.3-0.6-0.5-1.2-0.7-1.8c-0.1-0.2-0.2-0.3-0.4-0.3c-0.6,0-1.2,0-1.8,0
				c-0.2,0-0.3,0.1-0.4,0.3c-0.3,0.7-0.5,1.3-0.8,2c-0.1,0.2-0.2,0.3-0.4,0.3c-2.5,0-5.1,0-7.6,0c-0.1,0-0.2,0-0.3,0
				c0.3-0.8,0.6-1.5,0.9-2.1c1.1-2.4,2.1-4.8,3.2-7.3c0.9-2,1.8-4,2.6-6c0.1-0.2,0.2-0.2,0.4-0.2c5.2,0,10.3,0,15.5,0
				c0.2,0,0.3,0.1,0.4,0.3c0.5,1.1,1,2.3,1.5,3.4c0,0.1,0.1,0.2,0.2,0.3c0.2-0.3,0.3-0.6,0.4-0.9c0.4-0.9,0.8-1.8,1.2-2.7
				c0.1-0.2,0.2-0.3,0.5-0.3c7.1,0,14.2,0,21.3,0c0.2,0,0.4,0.1,0.5,0.2c0.6,0.7,1.1,1.3,1.7,2c0.1,0.1,0.1,0.1,0.2,0.2
				c0.2-0.2,0.3-0.3,0.4-0.4c0.6-0.6,1.1-1.2,1.7-1.8c0.1-0.1,0.2-0.2,0.4-0.2c3,0,6.1,0,9.1,0c0.1,0,0.1,0,0.2,0
				c-0.3,0.3-0.5,0.6-0.8,0.9c-2.1,2.2-4.1,4.4-6.2,6.6C74.5,49.5,74.5,49.5,74.8,49.8z"/>
			<path class="st2" d="M51.7,43.9c-1.3,0-2.6,0-3.8,0c-0.2,0-0.3,0.1-0.4,0.2c-0.9,2.2-1.9,4.5-2.9,6.7c-0.1,0.2-0.2,0.4-0.3,0.6
				c0,0-0.1,0-0.1,0c-0.1-0.3-0.3-0.5-0.4-0.8c-1-2.1-2-4.3-3-6.4c-0.1-0.2-0.2-0.3-0.5-0.3c-1.2,0-2.4,0-3.6,0
				c-0.4,0-0.4,0-0.4,0.4c0,3.2,0,6.5,0,9.7c0,0.1,0,0.2,0,0.4c-0.1-0.1-0.2-0.1-0.2-0.2c-0.5-1.1-0.9-2.1-1.4-3.2
				c-1-2.3-1.9-4.5-2.9-6.8c-0.1-0.2-0.2-0.3-0.4-0.3c-1.1,0-2.2,0-3.3,0c-0.3,0-0.4,0.1-0.5,0.3c-1.4,3.4-2.9,6.8-4.4,10.2
				c-0.1,0.2-0.1,0.3-0.2,0.5c0.1,0,0.2,0,0.3,0c0.7,0,1.4,0,2.1,0c0.2,0,0.3-0.1,0.4-0.3c0.3-0.7,0.5-1.3,0.8-2
				c0.1-0.2,0.2-0.3,0.4-0.3c1.7,0,3.3,0,5,0c0.3,0,0.4,0.1,0.5,0.3c0.2,0.6,0.5,1.3,0.8,1.9c0.1,0.2,0.2,0.3,0.5,0.3
				c1.5,0,3.1,0,4.6,0c0.4,0,0.4,0,0.4-0.4c0-2.7,0-5.3,0-8c0-0.1,0-0.2,0-0.4c0,0,0.1,0,0.1,0c0.1,0.1,0.1,0.2,0.2,0.4
				c1.2,2.7,2.4,5.4,3.6,8.1c0.1,0.2,0.2,0.2,0.4,0.2c0.6,0,1.2,0,1.7,0c0.2,0,0.3-0.1,0.4-0.3c1-2.3,2.1-4.6,3.1-6.9
				c0.2-0.5,0.4-1,0.7-1.5c0,0,0.1,0,0.1,0c0,0.1,0,0.2,0,0.4c0,2.7,0,5.3,0,8c0,0.2,0.1,0.3,0.3,0.3c0.7,0,1.4,0,2.1,0
				c0.2,0,0.3-0.1,0.3-0.3c0-3.5,0-7,0-10.5C52,44,51.9,43.9,51.7,43.9z M31.5,50.3c-1.1,0-2.2,0-3.3,0c-0.2,0-0.3-0.1-0.2-0.3
				c0.6-1.4,1.1-2.7,1.7-4.1c0-0.1,0.1-0.1,0.1-0.2c0.1,0.1,0.1,0.1,0.1,0.2c0.6,1.4,1.1,2.7,1.7,4.1C31.7,50.2,31.7,50.3,31.5,50.3
				z"/>
			<path class="st2" d="M75.5,45.1c0.3-0.3,0.6-0.7,1-1.1c-0.1,0-0.2,0-0.3,0c-0.9,0-1.8,0-2.6,0c-0.3,0-0.5,0.1-0.7,0.3
				c-1,1-1.9,2.1-2.9,3.1c-0.3,0.3-0.3,0.3-0.6,0c-0.7-0.8-1.5-1.7-2.1-2.5c-0.5-0.6-1-0.9-1.8-0.9c-3.6,0-7.2,0-10.8,0
				c-0.2,0-0.4,0-0.4,0.3c0,3.5,0,7,0,10.5c0,0.2,0.1,0.3,0.3,0.3c1.5,0,3,0,4.5,0c2.3,0,4.5,0,6.8,0c0.2,0,0.4-0.1,0.6-0.2
				c1-1.1,2-2.1,2.9-3.2c0.3-0.3,0.3-0.3,0.6,0c1,1.1,1.9,2.2,2.9,3.2c0.1,0.1,0.3,0.2,0.4,0.2c0.7,0,1.3,0,2,0c0.3,0,0.7,0,1-0.1
				c-0.1-0.2-0.2-0.3-0.3-0.4c-1.5-1.6-2.9-3.2-4.4-4.8c-0.2-0.2-0.2-0.3,0-0.5C72.9,47.9,74.2,46.5,75.5,45.1z M67.9,49.7
				c-1.4,1.5-2.8,3-4.3,4.5c-0.1,0.1-0.2,0.2-0.3,0.3c0,0-0.1,0-0.1,0c0-0.3,0-0.7,0-1c0-0.6,0-0.6-0.6-0.6c-1.8,0-3.5,0-5.3,0
				c-0.3,0-0.4-0.1-0.4-0.4c0-0.5,0-1.1,0-1.6c0-0.3,0.1-0.3,0.3-0.3c1.8,0,3.6,0,5.5,0c0.3,0,0.4-0.1,0.4-0.3c0-0.5,0-1,0-1.5
				c0-0.3-0.1-0.3-0.3-0.3c-1.8,0-3.5,0-5.3,0c-0.5,0-0.5,0-0.5-0.5c0-0.4,0-0.9,0-1.3c0-0.3,0.1-0.4,0.4-0.4c1.8,0,3.7,0,5.5,0
				c0.5,0,0.5,0,0.5-0.4c0-0.5,0-0.9,0-1.5c0.1,0.1,0.2,0.2,0.3,0.2c1.5,1.6,2.9,3.2,4.4,4.8C68.1,49.4,68.1,49.5,67.9,49.7z"/>
		</g>
	</g>
</g>
<g id="Bag">
</g>
<g id="User">
</g>
<g id="Burger_Menu">
</g>
<g id="Tick">
</g>
<g id="Instagram">
	<g id="instagram">
	</g>
</g>
<g id="Pinterest">
	<g id="pinterest">
	</g>
</g>
<g id="Tumblr">
</g>
<g id="Twitter">
</g>
<g id="Facebook">
</g>
<g id="Share">
</g>
<g id="Down_arrow">
	<g id="chevron-up">
	</g>
</g>
<g id="Edit">
</g>
</svg>
