<?xml version="1.0" encoding="utf-8"?>
<!-- Generator: Adobe Illustrator 19.2.1, SVG Export Plug-In . SVG Version: 6.00 Build 0)  -->
<svg version="1.1" id="Layer_1" xmlns="http://www.w3.org/2000/svg" xmlns:xlink="http://www.w3.org/1999/xlink" x="0px" y="0px"
	 viewBox="0 0 417.7 120.3" style="enable-background:new 0 0 417.7 120.3;" xml:space="preserve">
<title>beautii-logo.colors-iconCol01-iconCol02</title>
<path d="M316.4,82.1c0,14-11.3,25.3-25.3,25.4c-14,0-25.3-11.3-25.4-25.3c0,0,0,0,0,0V43.3h-12.4v38.8c0,20.8,16.9,37.7,37.7,37.7
	c20.8,0,37.7-16.9,37.7-37.7c0,0,0,0,0,0V43.3h-12.4V82.1z"/>
<path d="M77.3,81.6L77.3,81.6z"/>
<path d="M50.7,46.2c4-5,6.2-11.3,6.2-17.7v-0.1C57,12.8,44.4,0.1,28.8,0c0,0,0,0,0,0H0v119.9h39.4c20.8,0.1,37.7-16.7,37.8-37.5
	C77.3,65.8,66.5,51.1,50.7,46.2z M11.1,12.4h17.7c8.9,0,16.1,7.2,16.1,16.1s-7.2,16.1-16.1,16.1l0,0H11.1V12.4z M39.4,107.5H11.1
	V56.9h28.3c14,0,25.3,11.3,25.3,25.3C64.8,96.2,53.4,107.5,39.4,107.5L39.4,107.5z"/>
<polygon points="359.7,17.6 347.3,20.9 347.3,43.3 339.9,43.3 339.9,54.4 347.3,54.4 347.3,119.9 359.7,119.9 359.7,54.4 
	374.5,54.4 374.5,43.3 359.7,43.3 "/>
<path d="M123.2,44.1c-10.1-0.2-19.9,3.9-26.9,11.1c-7.3,7.1-11.3,16.9-11.1,27.1c-0.1,20.9,16.7,37.9,37.6,38c0.1,0,0.2,0,0.4,0
	c10.1,0.2,19.8-3.8,26.9-11.1c3.9-3.8,6.9-8.4,8.8-13.6l-11.8-3.2c-1.2,3.2-3.1,6.2-5.4,8.7c-4.7,5.1-11.5,8-18.4,7.8
	c-7.5,0-13.6-2.3-18.4-7.5c-3.8-4.2-6.2-9.4-7-14.9H161c0.1-1.2,0.1-2.7,0.1-3.9c0.2-10.3-3.8-20.2-11.1-27.4
	C143.1,48,133.3,43.9,123.2,44.1z M98.4,75.4c1.2-4.4,3.4-8.5,6.4-12c4.8-5.2,11-7.8,18.4-7.7c7-0.2,13.7,2.7,18.4,7.8
	c3,3.5,5.2,7.6,6.4,12L98.4,75.4L98.4,75.4z"/>
<path d="M232.4,55c-7.4-7.3-15.6-11-26.1-11c-10-0.2-19.7,3.9-26.6,11.2c-7.4,7.4-10.9,16.5-10.9,27.1c-0.2,10.1,3.9,19.8,11.1,26.9
	c7.4,7.4,15.8,11.1,26.3,11.1s18.7-3.6,26.1-10.9v10.6h11.1V43.3h-11.1V55z M225.3,101.1c-10,10.2-26.3,10.4-36.5,0.4
	c-0.1-0.1-0.3-0.3-0.4-0.4c-4.8-5.1-7.4-12-7.2-19c-0.2-7,2.4-13.9,7.2-19c10-10.2,26.3-10.4,36.5-0.4c0.1,0.1,0.3,0.3,0.4,0.4
	c4.8,5.1,7.4,12,7.2,19C232.7,89.1,230.1,96,225.3,101.1L225.3,101.1z"/>
<rect x="383" y="43.3" width="12.4" height="76.6"/>
<circle cx="389.2" cy="27.1" r="6.2"/>
<rect x="405.4" y="43.3" width="12.4" height="76.6"/>
<circle cx="411.6" cy="27.1" r="6.2"/>
</svg>
