<svg id="Layer_1" data-name="Layer 1" xmlns="http://www.w3.org/2000/svg" viewBox="0 0 417.74 120.3"><title>beautii-logo.colors-iconCol01-iconCol02</title><path d="M316.44,82.08a25.34,25.34,0,1,1-50.68,0V43.26H253.4V82.08a37.7,37.7,0,1,0,75.4,0V43.26H316.44V82.08Z" style="fill:#231f20;fill-rule:evenodd"/><path d="M77.26,81.6v0Z" style="fill:#231f20;fill-rule:evenodd"/><path d="M50.71,46.22a28.47,28.47,0,0,0,6.15-17.73V28.44A28.26,28.26,0,0,0,28.77,0H0V119.9H39.44A37.68,37.68,0,0,0,50.71,46.22ZM11.12,12.36H28.77a16.07,16.07,0,0,1,0,32.14H11.12V12.36Zm28.31,95.18H11.12V56.86H39.44A25.34,25.34,0,1,1,39.44,107.54Z" style="fill:#231f20;fill-rule:evenodd"/><polygon points="359.7 17.56 347.34 20.92 347.34 43.26 339.92 43.26 339.92 54.39 347.34 54.39 347.34 119.9 359.7 119.9 359.7 54.39 374.54 54.39 374.54 43.26 359.7 43.26 359.7 17.56" style="fill:#231f20;fill-rule:evenodd"/><path d="M123.24,44.1A36.47,36.47,0,0,0,96.35,55.24,37,37,0,0,0,85.29,82.35a37.77,37.77,0,0,0,37.95,37.95,36.6,36.6,0,0,0,26.88-11.06,37.05,37.05,0,0,0,8.79-13.56l-11.81-3.19a26.3,26.3,0,0,1-5.44,8.69,24.07,24.07,0,0,1-18.44,7.76c-7.48,0-13.62-2.3-18.44-7.48a28.29,28.29,0,0,1-7-14.93H161c0.1-1.24.15-2.67,0.15-3.89a37.67,37.67,0,0,0-11.06-27.4A36.48,36.48,0,0,0,123.24,44.1ZM98.4,75.4a31.08,31.08,0,0,1,6.4-12q7.22-7.76,18.44-7.74a24.13,24.13,0,0,1,18.44,7.81,30.85,30.85,0,0,1,6.4,12H98.4Z" style="fill:#231f20;fill-rule:evenodd"/><path d="M232.38,55c-7.42-7.3-15.64-11-26.1-11A35.81,35.81,0,0,0,179.7,55.17c-7.37,7.43-10.91,16.46-10.91,27.12a36.67,36.67,0,0,0,11.14,26.88c7.37,7.37,15.78,11.06,26.33,11.06s18.72-3.63,26.14-10.88V119.9h11.12V43.26H232.38V55Zm-7.07,46.12a25.78,25.78,0,0,1-36.87,0,26.81,26.81,0,0,1-7.22-19,26.82,26.82,0,0,1,7.22-19,25.78,25.78,0,0,1,36.87,0,26.82,26.82,0,0,1,7.22,19A26.82,26.82,0,0,1,225.32,101.1Z" style="fill:#231f20;fill-rule:evenodd"/><rect x="383.02" y="43.26" width="12.36" height="76.64" style="fill:#231f20"/><circle cx="389.2" cy="27.08" r="6.18" style="fill:#231f20"/><rect x="405.38" y="43.26" width="12.36" height="76.64" style="fill:#231f20"/><circle cx="411.56" cy="27.08" r="6.18" style="fill:#231f20"/></svg>