<?xml version="1.0" encoding="utf-8"?>
<!-- Generator: Adobe Illustrator 19.2.1, SVG Export Plug-In . SVG Version: 6.00 Build 0)  -->
<svg version="1.1" id="Layer_1" xmlns="http://www.w3.org/2000/svg" xmlns:xlink="http://www.w3.org/1999/xlink" x="0px" y="0px"
	 viewBox="0 0 100 100" style="enable-background:new 0 0 100 100;" xml:space="preserve">
<g id="NEHC_Logo">
</g>
<g id="Sail_Waves">
	<g id="close">
	</g>
</g>
<g id="Bag">
</g>
<g id="User">
	<g>
		<path d="M86.9,54.2l-31-31.1c-1.6-1.6-3.8-2.6-6.1-2.6c-0.2,0-0.4,0-0.6,0L26.7,22c-2.4,0.2-4.4,2.1-4.6,4.6l-0.5,8
			c-1.1-0.7-2.2-1.5-3.2-2.5c-2.4-2.4-3.9-5.4-4.2-8.4c-0.3-2.9,0.5-5.5,2.3-7.2c3.8-3.8,10.8-3,15.7,1.9c0.8,0.8,2.1,0.8,2.9,0
			c0.8-0.8,0.8-2.1,0-2.9C28.7,9,19,8.2,13.6,13.6c-2.7,2.7-3.9,6.4-3.5,10.6c0.4,4,2.3,7.9,5.4,10.9c1.7,1.7,3.7,3.1,5.9,4l-0.7,10
			c-0.2,2.5,0.8,5,2.5,6.7l31.1,31.1c2,2,4.6,3,7.4,3l0,0c2.8,0,5.4-1.1,7.4-3l18-18c2-2,3-4.6,3-7.4C90,58.8,88.9,56.2,86.9,54.2z
			 M84,66L66,84c-1.2,1.2-2.7,1.8-4.4,1.8l0,0c-1.7,0-3.2-0.7-4.4-1.8L26.1,52.9c-0.9-0.9-1.4-2.2-1.3-3.5l0.6-9
			c0.3,0.1,0.7,0.1,1,0.1c0.5,0.1,1,0.1,1.5,0.1c3.5,0,6.7-1.2,9-3.6c0.8-0.8,0.8-2.1,0-2.9s-2.1-0.8-2.9,0
			c-1.8,1.8-4.4,2.6-7.2,2.3c-0.4,0-0.8-0.1-1.2-0.2l0.6-9.3c0-0.4,0.3-0.7,0.7-0.7l22.5-1.5c0.1,0,0.2,0,0.3,0
			c1.2,0,2.4,0.5,3.2,1.3l31,31c1.2,1.2,1.8,2.7,1.8,4.4C85.8,63.2,85.2,64.8,84,66z"/>
	</g>
</g>
<g id="Burger_Menu">
</g>
<g id="Tick">
</g>
<g id="Instagram">
	<g id="instagram">
	</g>
</g>
<g id="Pinterest">
	<g id="pinterest">
	</g>
</g>
<g id="Tumblr">
</g>
<g id="Twitter">
</g>
<g id="Facebook">
</g>
<g id="Share">
</g>
<g id="Down_arrow">
	<g id="chevron-up">
	</g>
</g>
<g id="Edit">
</g>
</svg>
