<svg xmlns="http://www.w3.org/2000/svg" xmlns:xlink="http://www.w3.org/1999/xlink" x="0px" y="0px"
	 viewBox="0 0 100 100" style="enable-background:new 0 0 100 100;" xml:space="preserve">
<style type="text/css">
	.st0{fill:none;}
</style>
	<path class="st0" d="M76.6,60.6c1.3-0.4,2.1-1.7,1.8-3l-0.6-2.1l-9.6,2.8v4.8L76.6,60.6z"/>
	<path class="st0" d="M68.1,40.3v10.8l7.6-2.2l-7.1-24.6c-0.4-1.3-1.8-2-3.1-1.6L36.8,31h21.9C63.9,31,68.1,35.2,68.1,40.3z"/>
	<path d="M85,55.7l-9.7-33.4c-1.4-4.9-6.7-7.8-11.7-6.3l-33.2,9.6c-2.8,0.8-5,2.9-6.1,5.4h12.4l28.8-8.3c1.3-0.4,2.7,0.3,3.1,1.6
		l7.1,24.6l-7.6,2.2v7.2l9.6-2.8l0.6,2.1c0.4,1.3-0.4,2.6-1.8,3l-8.4,2.4v7.2l10.3-3C83.5,65.8,86.4,60.6,85,55.7z"/>
	<path d="M58.7,31H36.8H24.3h-0.2c-5.2,0-9.5,4.2-9.5,9.3V75c0,5.1,4.2,9.3,9.5,9.3h34.6c5.2,0,9.5-4.2,9.5-9.3v-4.8v-7.2v-4.8v-7.2
		V40.3C68.1,35.2,63.9,31,58.7,31z M61.2,75c0,1.3-1.1,2.4-2.5,2.4H24.1c-1.4,0-2.5-1.1-2.5-2.4v-2.2h13h24.6h2V75z M61.2,60.3v4.8
		l-3,0.9H41.7h-9.5H21.6V40.3c0-1.3,1.1-2.4,2.5-2.4h0h7.2h27.3c1.4,0,2.5,1.1,2.5,2.4v12.8V60.3z"/>
</svg>
