<svg id="Sail_Waves" data-name="Sail Waves" xmlns="http://www.w3.org/2000/svg" viewBox="0 0 100 100"><title>Calendar</title><g id="close"><path d="M20.1,69.2a2.5,2.5,0,0,1-1.1-.4,2.7,2.7,0,0,1-.8-2.2c0-8.7.2-17.4,0-26.1-0.1-2.8,1-3.4,3.6-3.4H67.4c7.5,0,7.3,0,7.5-7.6,0.2-5.2-3.1-6.7-7.1-6.8a18.4,18.4,0,0,1-2.3,0V12.5H59.6V26.8h0a1.8,1.8,0,0,1-.7,1.4l-0.4.2H57.8A1.8,1.8,0,0,1,56,26.8V22.1H34.3V12.5H28.4v4c0,1,0,2.8,0,6.6v4a1.8,1.8,0,0,1-3.5-.1V22.7H20.3a11.8,11.8,0,0,0-4.4.8c-2.9,1.3-3.4,4-3.4,6.9V61.8q0,2.6,0,5.3a7.3,7.3,0,0,0,.8,4.2,7.8,7.8,0,0,0,7,3.5c1.5,0,16.5.1,16.5-.2V69.3C36.8,69,21.5,69.5,20.1,69.2Z"/><path d="M66,44.5c-11.7-.7-21.4,10.2-21.7,20.6s7.9,22.4,21.4,22.4,21.7-8.9,21.7-21.6A20.9,20.9,0,0,0,66,44.5ZM65.9,82c-10.7,0-16.2-9-16-16.7S57,49.2,66.1,50s16.1,7.1,15.9,15.8S75.3,82,65.9,82Z"/><polygon points="68.9 54 63.5 54 63.5 63.3 63.5 68.6 63.5 68.7 68.9 68.7 68.9 68.6 74.5 68.6 74.5 63.3 68.9 63.3 68.9 54"/></g></svg>