<?xml version="1.0" encoding="utf-8"?>
<!-- Generator: Adobe Illustrator 19.2.1, SVG Export Plug-In . SVG Version: 6.00 Build 0)  -->
<svg version="1.1" id="Sail_Waves" xmlns="http://www.w3.org/2000/svg" xmlns:xlink="http://www.w3.org/1999/xlink" x="0px" y="0px"
	 viewBox="0 0 100 100" style="enable-background:new 0 0 100 100;" xml:space="preserve">
<title>Calendar</title>
<g id="close">
	<path d="M20.1,69.2c-0.4,0-0.8-0.2-1.1-0.4c-0.6-0.6-0.9-1.4-0.8-2.2c0-8.7,0.2-17.4,0-26.1c-0.1-2.8,1-3.4,3.6-3.4h45.6
		c7.5,0,7.3,0,7.5-7.6c0.2-5.2-3.1-6.7-7.1-6.8c-0.8,0-1.5,0-2.3,0V12.5h-5.9v14.3l0,0c0,0.5-0.3,1.1-0.7,1.4l-0.4,0.2h-0.7
		c-0.9,0-1.7-0.7-1.8-1.6v-4.7H34.3v-9.6h-5.9v4c0,1,0,2.8,0,6.6v4c-0.3,1-1.2,1.5-2.2,1.3c-0.7-0.2-1.2-0.7-1.3-1.4v-4.3h-4.6
		c-1.5,0-3,0.3-4.4,0.8c-2.9,1.3-3.4,4-3.4,6.9v31.4c0,1.7,0,3.5,0,5.3c-0.2,1.4,0.1,2.9,0.8,4.2c1.5,2.3,4.2,3.7,7,3.5
		c1.5,0,16.5,0.1,16.5-0.2v-5.3C36.8,69,21.5,69.5,20.1,69.2z"/>
	<path d="M66,44.5c-11.7-0.7-21.4,10.2-21.7,20.6s7.9,22.4,21.4,22.4s21.7-8.9,21.7-21.6c0.3-11.5-8.8-21.1-20.4-21.4
		C66.7,44.5,66.3,44.5,66,44.5z M65.9,82c-10.7,0-16.2-9-16-16.7S57,49.2,66.1,50S82.2,57.1,82,65.8S75.3,82,65.9,82z"/>
	<polygon points="68.9,54 63.5,54 63.5,63.3 63.5,68.6 63.5,68.7 68.9,68.7 68.9,68.6 74.5,68.6 74.5,63.3 68.9,63.3 	"/>
</g>
</svg>
