<?xml version="1.0" encoding="utf-8"?>
<!-- Generator: Adobe Illustrator 19.2.1, SVG Export Plug-In . SVG Version: 6.00 Build 0)  -->
<svg version="1.1" id="Layer_1" xmlns="http://www.w3.org/2000/svg" xmlns:xlink="http://www.w3.org/1999/xlink" x="0px" y="0px"
	 viewBox="0 0 100 100" style="enable-background:new 0 0 100 100;" xml:space="preserve">
<g id="NEHC_Logo">
</g>
<g id="Sail_Waves">
	<g id="close">
	</g>
</g>
<g id="Bag">
</g>
<g id="User">
	<g>
		<path d="M80.8,25.1H68.5l-0.9-3.2v-0.1c-0.5-2.3-2.6-3.9-5-3.9H37.4c-2.4,0-4.5,1.6-5,3.9l-1,3.3H19.2c-5.4,0-9.7,4.4-9.7,9.7
			v37.5c0,5.4,4.4,9.7,9.7,9.7h61.5c5.4,0,9.7-4.4,9.7-9.7V34.9C90.5,29.5,86.1,25.1,80.8,25.1z M37.4,22h25.2c0.5,0,0.9,0.3,1,0.8
			l1.8,6.4h15.3c3.1,0,5.7,2.5,5.7,5.7v37.5c0,3.1-2.5,5.7-5.7,5.7H19.2c-3.1,0-5.7-2.5-5.7-5.7V34.9c0-3.1,2.5-5.7,5.7-5.7h15.2
			l1.9-6.4C36.5,22.3,36.9,22,37.4,22z"/>
		<circle cx="78.8" cy="37.3" r="3.3"/>
		<path d="M50,72.8c11.1,0,20.1-9,20.1-20.1s-9-20.1-20.1-20.1s-20.1,9-20.1,20.1S38.9,72.8,50,72.8z M34,52.7c0-8.8,7.2-16,16-16
			s16,7.2,16,16s-7.2,16-16,16S34,61.5,34,52.7z"/>
	</g>
</g>
<g id="Burger_Menu">
</g>
<g id="Tick">
</g>
<g id="Instagram">
	<g id="instagram">
	</g>
</g>
<g id="Pinterest">
	<g id="pinterest">
	</g>
</g>
<g id="Tumblr">
</g>
<g id="Twitter">
</g>
<g id="Facebook">
</g>
<g id="Share">
</g>
<g id="Down_arrow">
	<g id="chevron-up">
	</g>
</g>
<g id="Edit">
</g>
</svg>
