<?xml version="1.0" encoding="utf-8"?>
<!-- Generator: Adobe Illustrator 19.2.1, SVG Export Plug-In . SVG Version: 6.00 Build 0)  -->
<svg version="1.1" xmlns="http://www.w3.org/2000/svg" xmlns:xlink="http://www.w3.org/1999/xlink" x="0px" y="0px"
	 viewBox="0 0 100 100" style="enable-background:new 0 0 100 100;" xml:space="preserve">
<style type="text/css">
	.st0{fill:#010202;}
	.st1{fill:#1E1E1C;}
	.st2{fill:#006FB5;}
	.st3{fill:#F4981A;}
	.st4{fill:#CC1417;}
	.st5{fill:#F9B343;}
	.st6{fill:#232856;}
	.st7{fill:#FFFFFF;}
	.st8{fill:#292E69;}
	.st9{fill:#E49707;}
	.st10{fill:#1E201D;}
	.st11{fill:none;stroke:#000000;stroke-width:3;stroke-miterlimit:10;}
	.st12{fill:#090909;}
</style>
<g id="NEHC_Logo">
</g>
<g id="Sail_Waves">
	<g id="close">
	</g>
</g>
<g id="Bag">
</g>
<g id="User">
	<g>
		<path class="st0" d="M80.8,25.1H68.5l-0.9-3.2l0-0.1c-0.5-2.3-2.6-3.9-5-3.9H37.4c-2.4,0-4.5,1.6-5,3.9l-1,3.3H19.2
			c-5.4,0-9.7,4.4-9.7,9.7v37.5c0,5.4,4.4,9.7,9.7,9.7h61.5c5.4,0,9.7-4.4,9.7-9.7V34.9C90.5,29.5,86.1,25.1,80.8,25.1z M37.4,22
			h25.2c0.5,0,0.9,0.3,1,0.8l1.8,6.4h15.3c3.1,0,5.7,2.5,5.7,5.7v37.5c0,3.1-2.5,5.7-5.7,5.7H19.2c-3.1,0-5.7-2.5-5.7-5.7V34.9
			c0-3.1,2.5-5.7,5.7-5.7h15.2l1.9-6.4C36.5,22.3,36.9,22,37.4,22z"/>
		<circle class="st0" cx="78.8" cy="37.3" r="3.3"/>
		<path class="st0" d="M50,72.8c11.1,0,20.1-9,20.1-20.1c0-11.1-9-20.1-20.1-20.1c-11.1,0-20.1,9-20.1,20.1
			C29.9,63.8,38.9,72.8,50,72.8z M34,52.7c0-8.8,7.2-16,16-16c8.8,0,16,7.2,16,16c0,8.8-7.2,16-16,16C41.2,68.7,34,61.5,34,52.7z"/>
	</g>
</g>
<g id="Burger_Menu">
</g>
<g id="Tick">
</g>
<g id="Instagram">
	<g id="instagram">
	</g>
</g>
<g id="Pinterest">
	<g id="pinterest">
	</g>
</g>
<g id="Tumblr">
</g>
<g id="Twitter">
</g>
<g id="Facebook">
</g>
<g id="Share">
</g>
<g id="Down_arrow">
	<g id="chevron-up">
	</g>
</g>
<g id="Edit">
</g>
</svg>
