<?xml version="1.0" encoding="utf-8"?>
<!-- Generator: Adobe Illustrator 19.2.1, SVG Export Plug-In . SVG Version: 6.00 Build 0)  -->
<svg version="1.1" xmlns="http://www.w3.org/2000/svg" xmlns:xlink="http://www.w3.org/1999/xlink" x="0px" y="0px"
	 viewBox="0 0 100 100" style="enable-background:new 0 0 100 100;" xml:space="preserve">
<style type="text/css">
	.st0{fill:#010202;}
	.st1{fill:#1E1E1C;}
	.st2{fill:#F19730;}
	.st3{fill:#C81C21;}
	.st4{fill:#F7B14E;}
	.st5{fill:#232A55;}
	.st6{fill:#FFFFFF;}
	.st7{fill:#293167;}
	.st8{fill:#E29626;}
	.st9{fill:#090909;}
</style>
<g id="NEHC_Logo">
</g>
<g id="Sail_Waves">
	<g id="close">
		<g>
			<path class="st0" d="M74.2,12.5H25.8c-7.3,0-13.3,6-13.3,13.3v48.4c0,7.3,6,13.3,13.3,13.3h48.4c7.3,0,13.3-6,13.3-13.3V25.8
				C87.5,18.5,81.5,12.5,74.2,12.5z M83.7,74.2c0,5.2-4.3,9.5-9.5,9.5H25.8c-5.2,0-9.5-4.3-9.5-9.5V25.8c0-5.2,4.3-9.5,9.5-9.5h48.4
				c5.2,0,9.5,4.3,9.5,9.5V74.2z"/>
			<polygon class="st0" points="45,74.9 21.9,57.1 19.6,60.1 46,80.5 80.9,23.3 77.7,21.4 			"/>
		</g>
	</g>
</g>
<g id="Bag">
</g>
<g id="User">
</g>
<g id="Burger_Menu">
</g>
<g id="Tick">
</g>
<g id="Instagram">
	<g id="instagram">
	</g>
</g>
<g id="Pinterest">
	<g id="pinterest">
	</g>
</g>
<g id="Tumblr">
</g>
<g id="Twitter">
</g>
<g id="Facebook">
</g>
<g id="Share">
</g>
<g id="Down_arrow">
	<g id="chevron-up">
	</g>
</g>
<g id="Edit">
</g>
</svg>
