<?xml version="1.0" encoding="utf-8"?>
<!-- Generator: Adobe Illustrator 19.2.1, SVG Export Plug-In . SVG Version: 6.00 Build 0)  -->
<svg version="1.1" id="Layer_1" xmlns="http://www.w3.org/2000/svg" xmlns:xlink="http://www.w3.org/1999/xlink" x="0px" y="0px"
	 viewBox="0 0 100 100" style="enable-background:new 0 0 100 100;" xml:space="preserve">
<g id="NEHC_Logo">
</g>
<g id="Sail_Waves">
	<g id="close">
		<g>
			<path d="M74.2,12.5H25.8c-7.3,0-13.3,6-13.3,13.3v48.4c0,7.3,6,13.3,13.3,13.3h48.4c7.3,0,13.3-6,13.3-13.3V25.8
				C87.5,18.5,81.5,12.5,74.2,12.5z M83.7,74.2c0,5.2-4.3,9.5-9.5,9.5H25.8c-5.2,0-9.5-4.3-9.5-9.5V25.8c0-5.2,4.3-9.5,9.5-9.5h48.4
				c5.2,0,9.5,4.3,9.5,9.5V74.2z" fill="#afdee6"/>
		</g>
	</g>
</g>
<g id="Bag">
</g>
<g id="User">
</g>
<g id="Burger_Menu">
</g>
<g id="Tick">
</g>
<g id="Instagram">
	<g id="instagram">
	</g>
</g>
<g id="Pinterest">
	<g id="pinterest">
	</g>
</g>
<g id="Tumblr">
</g>
<g id="Twitter">
</g>
<g id="Facebook">
</g>
<g id="Share">
</g>
<g id="Down_arrow">
	<g id="chevron-up">
	</g>
</g>
<g id="Edit">
</g>
</svg>
