<?xml version="1.0" encoding="utf-8"?>
<!-- Generator: Adobe Illustrator 19.2.1, SVG Export Plug-In . SVG Version: 6.00 Build 0)  -->
<svg version="1.1" id="Layer_1" xmlns="http://www.w3.org/2000/svg" xmlns:xlink="http://www.w3.org/1999/xlink" x="0px" y="0px"
	 viewBox="0 0 100 100" style="enable-background:new 0 0 100 100;" xml:space="preserve">
<g id="NEHC_Logo">
</g>
<g id="Sail_Waves">
	<g id="close">
	</g>
</g>
<g id="Bag">
</g>
<g id="User">
	<g>
		<path d="M32,53c-0.6-0.4-1.2-0.7-1.9-0.7c-0.1,0-0.2,0-0.4,0c-0.8,0.1-1.6,0.5-2.1,1.2C27.2,54.2,27,55,27,55.8
			c0.1,0.8,0.5,1.6,1.2,2.1l16.3,12.8c1.3,1,3.3,0.8,4.4-0.5L80,30.6c0.5-0.7,0.7-1.5,0.6-2.3s-0.5-1.6-1.2-2.1l0,0
			c-0.6-0.5-1.4-0.7-2.2-0.6c-0.8,0.1-1.5,0.5-2.1,1.1L45.9,63.9L32,53z"/>
		<path d="M89.6,45.6c-0.4-1.4-1.9-2.4-3.3-2.1c-1.5,0.4-2.4,1.8-2,3.3l0,0l0,0c3.6,14.6-3.2,29.4-16.4,37
			c-16.3,9.4-37.3,3.6-46.8-12.9S17.2,33.4,33.6,24c7.9-4.5,17.1-5.7,25.9-3.3c0.7,0.2,1.4,0.1,2.1-0.3c0.6-0.4,1.1-1,1.3-1.7
			c0.4-1.5-0.5-3-1.9-3.4c-10.2-2.8-20.9-1.5-30.1,3.8C11.9,30,5.4,54.4,16.4,73.5s35.3,25.9,54.3,15C85.9,79.8,93.7,62.6,89.6,45.6
			z"/>
	</g>
</g>
<g id="Burger_Menu">
</g>
<g id="Tick">
</g>
<g id="Instagram">
	<g id="instagram">
	</g>
</g>
<g id="Pinterest">
	<g id="pinterest">
	</g>
</g>
<g id="Tumblr">
</g>
<g id="Twitter">
</g>
<g id="Facebook">
</g>
<g id="Share">
</g>
<g id="Down_arrow">
	<g id="chevron-up">
	</g>
</g>
<g id="Edit">
</g>
</svg>
