<?xml version="1.0" encoding="utf-8"?>
<!-- Generator: Adobe Illustrator 19.2.1, SVG Export Plug-In . SVG Version: 6.00 Build 0)  -->
<svg version="1.1" id="Layer_1" xmlns="http://www.w3.org/2000/svg" xmlns:xlink="http://www.w3.org/1999/xlink" x="0px" y="0px"
	 viewBox="0 0 100 100" style="enable-background:new 0 0 100 100;" xml:space="preserve">
<g id="NEHC_Logo">
</g>
<g id="Sail_Waves">
	<g id="close">
		<path d="M50,10c-22.1,0-40,17.9-40,40s17.9,40,40,40s40-17.9,40-40S72.1,10,50,10z M50,84.7c-19.1,0-34.7-15.6-34.7-34.7
			S30.9,15.3,50,15.3S84.7,30.9,84.7,50S69.1,84.7,50,84.7z"/>
		<path d="M70.8,31.9c-0.6-0.5-1.3-0.7-2.1-0.6c-0.8,0.1-1.4,0.5-1.9,1.1L43.5,61.8l-10.8-8.5c-0.6-0.5-1.4-0.7-2.1-0.6
			c-0.7,0.1-1.4,0.5-1.9,1.1s-0.7,1.4-0.6,2.1c0.1,0.8,0.5,1.4,1.1,1.9l13,10.2c1.2,0.9,3,0.8,4.1-0.5l25-31.7
			c0.5-0.6,0.7-1.4,0.6-2.1C71.8,33.1,71.4,32.4,70.8,31.9z"/>
	</g>
</g>
<g id="Bag">
</g>
<g id="User">
</g>
<g id="Burger_Menu">
</g>
<g id="Tick">
</g>
<g id="Instagram">
	<g id="instagram">
	</g>
</g>
<g id="Pinterest">
	<g id="pinterest">
	</g>
</g>
<g id="Tumblr">
</g>
<g id="Twitter">
</g>
<g id="Facebook">
</g>
<g id="Share">
</g>
<g id="Down_arrow">
	<g id="chevron-up">
	</g>
</g>
<g id="Edit">
</g>
</svg>
