<?xml version="1.0" encoding="utf-8"?>
<!-- Generator: Adobe Illustrator 19.2.1, SVG Export Plug-In . SVG Version: 6.00 Build 0)  -->
<svg version="1.1" id="Layer_1" xmlns="http://www.w3.org/2000/svg" xmlns:xlink="http://www.w3.org/1999/xlink" x="0px" y="0px"
	 viewBox="0 0 100 100" style="enable-background:new 0 0 100 100;" xml:space="preserve">
<g id="NEHC_Logo">
</g>
<g id="Sail_Waves">
	<g id="close">
		<g>
			<path d="M50,10c-22.1,0-40,17.9-40,40s17.9,40,40,40s40-17.9,40-40S72.1,10,50,10z M50,84.7c-19.1,0-34.7-15.6-34.7-34.7
				S30.9,15.3,50,15.3S84.7,30.9,84.7,50S69.1,84.7,50,84.7z"/>
			<path d="M48.4,60.4c0.4-0.5,0.6-1.1,0.8-1.6s0.3-1,0.4-1.5c0.1-0.5,0.1-0.9,0.1-1.3c0-0.8-0.1-1.6-0.2-2.4
				c-0.1-0.5-0.2-0.9-0.3-1.4h5.2v-3.9h-6.8c-0.3-0.7-0.6-1.4-0.8-2.2c-0.3-0.8-0.4-1.8-0.4-2.9c0-1.4,0.4-2.4,1.2-3.2
				s1.9-1.2,3.4-1.2s2.7,0.1,3.7,0.4c1,0.2,1.8,0.5,2.4,0.8l0.5,0.2l1.4-3.9l-0.4-0.2c-0.8-0.4-1.9-0.7-3.2-1s-2.8-0.4-4.4-0.4
				c-2.8,0-5,0.7-6.6,2.2s-2.5,3.6-2.5,6.5c0,1.2,0.1,2.2,0.3,3.1c0.2,0.6,0.3,1.2,0.6,1.7h-2.5v3.9h4.1c0.2,0.5,0.4,1.1,0.5,1.7
				c0.2,0.7,0.3,1.5,0.3,2.3c0,0.6-0.1,1.2-0.3,1.8s-0.4,1.1-0.8,1.6c-0.3,0.4-0.8,0.8-1.4,1.1c-0.5,0.3-1.2,0.4-2,0.4h-0.5v4h19.3
				v-4H47.9C48.1,60.8,48.3,60.6,48.4,60.4z"/>
		</g>
	</g>
</g>
<g id="Bag">
</g>
<g id="User">
</g>
<g id="Burger_Menu">
</g>
<g id="Tick">
</g>
<g id="Instagram">
	<g id="instagram">
	</g>
</g>
<g id="Pinterest">
	<g id="pinterest">
	</g>
</g>
<g id="Tumblr">
</g>
<g id="Twitter">
</g>
<g id="Facebook">
</g>
<g id="Share">
</g>
<g id="Down_arrow">
	<g id="chevron-up">
	</g>
</g>
<g id="Edit">
</g>
</svg>
