<?xml version="1.0" encoding="utf-8"?>
<!-- Generator: Adobe Illustrator 19.2.1, SVG Export Plug-In . SVG Version: 6.00 Build 0)  -->
<svg version="1.1" xmlns="http://www.w3.org/2000/svg" xmlns:xlink="http://www.w3.org/1999/xlink" x="0px" y="0px"
	 viewBox="0 0 100 100" style="enable-background:new 0 0 100 100;" xml:space="preserve">
<style type="text/css">
	.st0{fill:#010202;}
	.st1{fill:#1E1E1C;}
	.st2{fill:#F19730;}
	.st3{fill:#C81C21;}
	.st4{fill:#F7B14E;}
	.st5{fill:#232A55;}
	.st6{fill:#FFFFFF;}
	.st7{fill:#293167;}
	.st8{fill:#E29626;}
	.st9{fill:#090909;}
</style>
<g id="NEHC_Logo">
</g>
<g id="Sail_Waves">
	<g id="close">
	</g>
</g>
<g id="Bag">
</g>
<g id="User">
	<path class="st0" d="M67.5,35.8c-1.1-1.4-2.7-2.2-4.4-2.4c-1.7-0.2-3.4,0.3-4.8,1.4l-1.9,1.6l-0.9,0.7L36.6,52.3
		c-0.1,0.1-0.2,0.2-0.3,0.4l-5.7,11.8c-0.2,0.4-0.1,0.8,0.1,1.2c0.2,0.2,0.5,0.4,0.8,0.4c0.1,0,0.2,0,0.3,0l11.4-2.3
		c0.2,0,0.3-0.1,0.5-0.2L66.5,45c1.4-1.1,2.2-2.7,2.4-4.4C69.1,38.8,68.6,37.1,67.5,35.8z M42.2,61.7l-1.6,0.3l-2.6,0.5
		c-0.2-0.7-0.5-1.4-0.9-2c-0.4-0.5-0.9-0.9-1.4-1.2l1.1-2.2l1.1-2.2l0,0l0.1-0.3c0.7,0.4,1.6,1,2.5,1.8c0.4,0.4,0.8,1,1.2,1.6
		c0.5,0.9,0.8,1.9,0.8,3.1c0,0.1,0,0.3,0,0.4L42.2,61.7z"/>
	<g>
		<path class="st0" d="M50,14c19.9,0,36,16.1,36,36S69.9,86,50,86S14,69.9,14,50S30.1,14,50,14 M50,10c-22.1,0-40,17.9-40,40
			s17.9,40,40,40s40-17.9,40-40S72.1,10,50,10L50,10z"/>
	</g>
</g>
<g id="Burger_Menu">
</g>
<g id="Tick">
</g>
<g id="Instagram">
	<g id="instagram">
	</g>
</g>
<g id="Pinterest">
	<g id="pinterest">
	</g>
</g>
<g id="Tumblr">
</g>
<g id="Twitter">
</g>
<g id="Facebook">
</g>
<g id="Share">
</g>
<g id="Down_arrow">
	<g id="chevron-up">
	</g>
</g>
<g id="Edit">
</g>
</svg>
