<?xml version="1.0" encoding="utf-8"?>
<!-- Generator: Adobe Illustrator 19.2.1, SVG Export Plug-In . SVG Version: 6.00 Build 0)  -->
<svg version="1.1" id="Layer_1" xmlns="http://www.w3.org/2000/svg" xmlns:xlink="http://www.w3.org/1999/xlink" x="0px" y="0px"
	 viewBox="0 0 100 100" style="enable-background:new 0 0 100 100;" xml:space="preserve">
<g id="NEHC_Logo">
</g>
<g id="Sail_Waves">
	<g id="close">
	</g>
</g>
<g id="Bag">
</g>
<g id="User">
</g>
<g id="Burger_Menu">
</g>
<g id="Tick">
</g>
<g id="Instagram">
	<g id="instagram">
	</g>
</g>
<g id="Pinterest">
	<g id="pinterest">
	</g>
</g>
<g id="Tumblr">
</g>
<g id="Twitter">
</g>
<g id="Facebook">
</g>
<g id="Share">
</g>
<g id="Down_arrow">
	<g id="chevron-up">
	</g>
</g>
<g id="Edit">
	<g>
		<g>
			<path d="M75.1,49.3c-1.2,0-2.2,0.9-2.2,2.2V81H57.6V68.9c0-1.1-0.9-2.1-2.1-2.1h-11c-1.2,0-2.2,1-2.2,2.1V81H27V52.4
				c0-1.1-0.9-2.1-2.2-2.1c-1.1,0-2.1,0.9-2.1,2.1v30.7c0,1.1,0.9,2.1,2.1,2.1h19.7c1.1,0,2.1-0.9,2.1-2.1v-12h6.8v12.1
				c0,1.1,0.9,2.1,2.2,2.1h19.6c1.1,0,2.1-0.9,2.1-2.1V51.5C77.2,50.2,76.3,49.3,75.1,49.3z"/>
			<path d="M86.9,51L69.8,33.9V22.2c0-1.2-1-2.2-2.2-2.2c-1.1,0-2.1,0.9-2.1,2.2v7.4l-14-14.2c-0.5-0.4-1-0.7-1.5-0.7
				c-0.6,0-1.1,0.2-1.5,0.7L13.2,50.7c-0.8,0.8-0.9,2.2,0,3c0.8,0.9,2.1,0.8,3,0L50,19.9L83.8,54c0.4,0.4,0.9,0.6,1.5,0.6
				s1.1-0.2,1.5-0.6C87.7,53.3,87.7,51.8,86.9,51z"/>
		</g>
	</g>
</g>
</svg>
