<?xml version="1.0" encoding="utf-8"?>
<!-- Generator: Adobe Illustrator 19.2.1, SVG Export Plug-In . SVG Version: 6.00 Build 0)  -->
<svg version="1.1" id="Layer_1" xmlns="http://www.w3.org/2000/svg" xmlns:xlink="http://www.w3.org/1999/xlink" x="0px" y="0px"
	 viewBox="0 0 100 100" style="enable-background:new 0 0 100 100;" xml:space="preserve">
<g id="NEHC_Logo">
</g>
<g id="Sail_Waves">
	<g id="close">
		<g>
			<path d="M38.3,32.8c0,6.4,5.2,11.7,11.7,11.7s11.7-5.2,11.7-11.7S56.4,21.1,50,21.1S38.3,26.3,38.3,32.8z M57.9,32.8
				c0,4.4-3.5,7.9-7.9,7.9s-7.9-3.5-7.9-7.9s3.5-7.9,7.9-7.9S57.9,28.4,57.9,32.8z"/>
			<path d="M73.5,58.7c-0.9-0.8-2-1.5-3.2-2c-1.6-0.7-3.4-1.1-5.3-1.1c-7.1,0-12.8,5.7-12.8,12.8c0,3.4,1.4,6.5,3.5,8.8
				c0.9,0.9,1.9,1.7,3,2.3c1.9,1.1,4,1.7,6.3,1.7c7.1,0,12.8-5.7,12.8-12.8C77.9,64.5,76.2,61,73.5,58.7z M65.1,77.4
				c-1.5,0-2.9-0.4-4.1-1c-1.2-0.6-2.2-1.4-3-2.4c-1.3-1.6-2-3.5-2-5.7c0-5,4.1-9.1,9.1-9.1c1.1,0,2.1,0.2,3,0.5
				c0.3,0.1,0.6,0.2,0.9,0.4l0,0c0.3,0.1,0.5,0.3,0.8,0.4l0,0c0.3,0.2,0.5,0.3,0.7,0.5l0,0c0.2,0.2,0.5,0.4,0.7,0.6
				c1.7,1.7,2.8,4,2.8,6.6C74.1,73.3,70.1,77.4,65.1,77.4z"/>
			<circle cx="65.1" cy="68.3" r="4.2"/>
			<path d="M50,85.4L29,55.7c-7.9-10.3-6.8-27.3,2.4-36.4c5.1-5,11.9-7.5,18.6-7.5s13.5,2.5,18.6,7.5c9.1,8.9,10.3,25.5,2.7,36
				l3.2,2c8.5-11.8,7.1-30.6-3.3-40.7c-11.7-11.4-30.7-11.4-42.4,0C18.3,27,17,46.3,26,58l24,33.9l7.9-11.1l-3-2.2L50,85.4z"/>
		</g>
	</g>
</g>
<g id="Bag">
</g>
<g id="User">
</g>
<g id="Burger_Menu">
</g>
<g id="Tick">
</g>
<g id="Instagram">
	<g id="instagram">
	</g>
</g>
<g id="Pinterest">
	<g id="pinterest">
	</g>
</g>
<g id="Tumblr">
</g>
<g id="Twitter">
</g>
<g id="Facebook">
</g>
<g id="Share">
</g>
<g id="Down_arrow">
	<g id="chevron-up">
	</g>
</g>
<g id="Edit">
</g>
</svg>
