<?xml version="1.0" encoding="utf-8"?>
<!-- Generator: Adobe Illustrator 16.0.0, SVG Export Plug-In . SVG Version: 6.00 Build 0)  -->
<!DOCTYPE svg PUBLIC "-//W3C//DTD SVG 1.1//EN" "http://www.w3.org/Graphics/SVG/1.1/DTD/svg11.dtd">
<svg xmlns="http://www.w3.org/2000/svg" viewBox="0 0 30 18" enable-background="new 0 0 30 18">
<path d="M15,3.467c1.803,0,2.018,0.007,2.729,0.039c1.828,0.083,2.685,0.951,2.768,2.767C20.527,6.985,20.533,7.198,20.533,9
	c0,1.803-0.006,2.016-0.038,2.729c-0.084,1.813-0.937,2.684-2.767,2.767c-0.713,0.032-0.926,0.039-2.729,0.039
	c-1.802,0-2.016-0.007-2.728-0.039c-1.833-0.084-2.684-0.956-2.767-2.767C9.473,11.018,9.466,10.803,9.466,9
	c0-1.802,0.007-2.015,0.039-2.728c0.084-1.815,0.936-2.684,2.767-2.767C12.985,3.474,13.198,3.467,15,3.467z M15,2.25
	c-1.833,0-2.063,0.008-2.783,0.041C9.766,2.403,8.403,3.763,8.291,6.217C8.258,6.937,8.25,7.167,8.25,9s0.008,2.063,0.041,2.782
	c0.112,2.452,1.473,3.813,3.926,3.928c0.72,0.032,0.95,0.04,2.783,0.04s2.063-0.008,2.782-0.04c2.45-0.112,3.815-1.474,3.928-3.928
	c0.032-0.72,0.04-0.949,0.04-2.782s-0.008-2.063-0.04-2.783c-0.11-2.449-1.474-3.814-3.926-3.926C17.063,2.258,16.833,2.25,15,2.25z
	 M15,5.534c-1.914,0-3.466,1.552-3.466,3.466s1.552,3.467,3.466,3.467S18.467,10.915,18.467,9C18.467,7.086,16.914,5.534,15,5.534z
	 M15,11.25c-1.243,0-2.25-1.007-2.25-2.25S13.757,6.75,15,6.75S17.25,7.757,17.25,9S16.243,11.25,15,11.25z M18.604,4.587
	c-0.447,0-0.811,0.363-0.811,0.811c0,0.447,0.361,0.81,0.811,0.81c0.447,0,0.811-0.363,0.811-0.81
	C19.413,4.95,19.051,4.587,18.604,4.587z"/>
</svg>
