<?xml version="1.0" encoding="utf-8"?>
<!-- Generator: Adobe Illustrator 19.2.1, SVG Export Plug-In . SVG Version: 6.00 Build 0)  -->
<svg version="1.1" id="Layer_1" xmlns="http://www.w3.org/2000/svg" xmlns:xlink="http://www.w3.org/1999/xlink" x="0px" y="0px"
	 viewBox="0 0 100 100" style="enable-background:new 0 0 100 100;" xml:space="preserve">
<g id="NEHC_Logo">
</g>
<g id="Sail_Waves">
	<g id="close">
	</g>
</g>
<g id="Bag">
</g>
<g id="User">
</g>
<g id="Burger_Menu">
</g>
<g id="Tick">
</g>
<g id="Instagram">
	<g id="instagram">
		<g id="XMLID_20_">
			<g>
				<path id="XMLID_21_" d="M50.4,62.7c-6.9,0-12.5-5.6-12.5-12.5s5.6-12.5,12.5-12.5s12.5,5.6,12.5,12.5S57.3,62.7,50.4,62.7
					L50.4,62.7z M65.4,39.8c-6.1-8.1-11.5-7.1-15.4-7.1s-10.3-0.3-15.2,6.7H12.5v-8.1c0-10.4,8.4-18.8,18.7-18.8h37.5
					c10.3,0,18.7,8.4,18.7,18.8v8.5L65.4,39.8z M76.3,20.7c0-1.1-0.9-2.1-2.1-2.1h-6.4c-1.1,0-2.1,0.9-2.1,2.1v6.4
					c0,1.1,0.9,2.1,2.1,2.1h6.4c1.2,0,2.1-0.9,2.1-2.1V20.7L76.3,20.7z M68.8,87.5H31.2c-10.3,0-18.7-8.4-18.7-16.6V44.4h21.4
					c-1.1,2.3-1.4,2.7-1.4,5.4c0,9.8,8,18.7,17.8,18.7s17.8-8.8,17.8-18.7c0-2.7-0.6-3.1-1.7-5.4h21v24.4
					C87.5,79.1,79.1,87.5,68.8,87.5L68.8,87.5z"/>
			</g>
		</g>
	</g>
</g>
<g id="Pinterest">
	<g id="pinterest">
	</g>
</g>
<g id="Tumblr">
</g>
<g id="Twitter">
</g>
<g id="Facebook">
</g>
<g id="Share">
</g>
<g id="Down_arrow">
	<g id="chevron-up">
	</g>
</g>
<g id="Edit">
</g>
</svg>
