<svg id="Layer_1" data-name="Layer 1" xmlns="http://www.w3.org/2000/svg" viewBox="0 0 100 100"><title>Instagram</title><path d="M50,19.25c10,0,11.19,0,15.15.21a20.76,20.76,0,0,1,7,1.29,12.55,12.55,0,0,1,7.14,7.14,20.76,20.76,0,0,1,1.29,7c0.18,4,.21,5.13.21,15.15s0,11.19-.21,15.15a20.76,20.76,0,0,1-1.29,7,12.42,12.42,0,0,1-7.11,7.11,20.76,20.76,0,0,1-7,1.29c-4,.18-5.13.21-15.15,0.21s-11.19,0-15.15-.21a20.76,20.76,0,0,1-7-1.29,12.55,12.55,0,0,1-7.14-7.14,20.76,20.76,0,0,1-1.29-7c-0.18-4-.21-5.13-0.21-15.15s0-11.19.21-15.15a20.76,20.76,0,0,1,1.29-7,12.55,12.55,0,0,1,7.14-7.14,20.76,20.76,0,0,1,7-1.29c4-.18,5.13-0.21,15.15-0.21m0-6.72c-10.17,0-11.46,0-15.45.24a27.54,27.54,0,0,0-9,1.74A18.92,18.92,0,0,0,14.48,25.43a27.51,27.51,0,0,0-1.74,9C12.5,38.54,12.5,39.83,12.5,50s0,11.46.24,15.45a27.51,27.51,0,0,0,1.74,9A18.92,18.92,0,0,0,25.43,85.52a27.54,27.54,0,0,0,9,1.74c4.11,0.24,5.4.24,15.57,0.24s11.46,0,15.45-.24a27.54,27.54,0,0,0,9-1.74,19.17,19.17,0,0,0,11-11,27.51,27.51,0,0,0,1.74-9c0.33-4.08.33-5.37,0.33-15.54s0-11.46-.24-15.45a27.51,27.51,0,0,0-1.74-9A18.92,18.92,0,0,0,74.57,14.48a27.54,27.54,0,0,0-9-1.74C61.46,12.5,60.17,12.5,50,12.5"/><path d="M50,30.74A19.26,19.26,0,1,0,69.26,50,19.26,19.26,0,0,0,50,30.74h0m0,31.77A12.51,12.51,0,1,1,62.51,50h0A12.51,12.51,0,0,1,50,62.51"/><path d="M74.51,30a4.5,4.5,0,1,1-4.5-4.5,4.5,4.5,0,0,1,4.5,4.5"/></svg>