<?xml version="1.0" encoding="utf-8"?>
<!-- Generator: Adobe Illustrator 19.2.1, SVG Export Plug-In . SVG Version: 6.00 Build 0)  -->
<svg version="1.1" xmlns="http://www.w3.org/2000/svg" xmlns:xlink="http://www.w3.org/1999/xlink" x="0px" y="0px"
	 viewBox="0 0 100 100" style="enable-background:new 0 0 100 100;" xml:space="preserve">
<style type="text/css">
	.st0{fill:#010202;}
	.st1{fill:#1E1E1C;}
	.st2{fill:#F19730;}
	.st3{fill:#C81C21;}
	.st4{fill:#F7B14E;}
	.st5{fill:#232A55;}
	.st6{fill:#FFFFFF;}
	.st7{fill:#293167;}
	.st8{fill:#E29626;}
	.st9{fill:#090909;}
</style>
<g id="NEHC_Logo">
</g>
<g id="Sail_Waves">
	<g id="close">
	</g>
</g>
<g id="Bag">
</g>
<g id="User">
</g>
<g id="Burger_Menu">
</g>
<g id="Tick">
</g>
<g id="Instagram">
	<g id="instagram">
		<g id="XMLID_20_">
			<defs>
				<path id="XMLID_21_" d="M50.4,62.7c-6.9,0-12.5-5.6-12.5-12.5c0-6.9,5.6-12.5,12.5-12.5c6.9,0,12.5,5.6,12.5,12.5
					C62.9,57.1,57.3,62.7,50.4,62.7L50.4,62.7z M65.4,39.8c-6.1-8.1-11.5-7.1-15.4-7.1s-10.3-0.3-15.2,6.7H12.5l0-8.1
					c0-10.4,8.4-18.8,18.7-18.8h37.5c10.3,0,18.7,8.4,18.7,18.8v8.5L65.4,39.8z M76.3,20.7c0-1.1-0.9-2.1-2.1-2.1h-6.4
					c-1.1,0-2.1,0.9-2.1,2.1v6.4c0,1.1,0.9,2.1,2.1,2.1h6.4c1.2,0,2.1-0.9,2.1-2.1V20.7L76.3,20.7z M68.8,87.5H31.2
					c-10.3,0-18.7-8.4-18.7-16.6V44.4h21.4c-1.1,2.3-1.4,2.7-1.4,5.4c0,9.8,8,18.7,17.8,18.7c9.8,0,17.8-8.8,17.8-18.7
					c0-2.7-0.6-3.1-1.7-5.4h21l0,24.4C87.5,79.1,79.1,87.5,68.8,87.5L68.8,87.5z"/>
			</defs>
			<use xlink:href="#XMLID_21_"  style="overflow:visible;"/>
			<clipPath id="XMLID_3_">
				<use xlink:href="#XMLID_21_"  style="overflow:visible;"/>
			</clipPath>
		</g>
	</g>
</g>
<g id="Pinterest">
	<g id="pinterest">
	</g>
</g>
<g id="Tumblr">
</g>
<g id="Twitter">
</g>
<g id="Facebook">
</g>
<g id="Share">
</g>
<g id="Down_arrow">
	<g id="chevron-up">
	</g>
</g>
<g id="Edit">
</g>
</svg>
