<svg id="Layer_1" data-name="Layer 1" xmlns="http://www.w3.org/2000/svg" viewBox="0 0 82.47 77.48"><title>logged-out</title><path d="M44.25,60A21.55,21.55,0,1,1,65.8,38.47,21.57,21.57,0,0,1,44.25,60Zm0-38.45a16.9,16.9,0,1,0,16.9,16.9A16.92,16.92,0,0,0,44.25,21.57Z" transform="translate(-8.1 -12.42)"/><polygon points="82.47 7.13 75.34 7.13 75.34 0 70.69 0 70.69 7.13 63.56 7.13 63.56 11.78 70.69 11.78 70.69 18.91 75.34 18.91 75.34 11.78 82.47 11.78 82.47 7.13"/><path d="M78.07,89.91H10.43A2.32,2.32,0,0,1,8.1,87.58c0-15,5.67-25.19,17.33-31.12a2.32,2.32,0,0,1,2.11,4.14C18.05,65.43,13.33,73.3,12.8,85.25H75.7C75.17,73.3,70.45,65.43,61,60.61a2.33,2.33,0,1,1,2.11-4.14C74.73,62.39,80.4,72.57,80.4,87.58A2.33,2.33,0,0,1,78.07,89.91Z" transform="translate(-8.1 -12.42)"/></svg>