<?xml version="1.0" encoding="utf-8"?>
<!-- Generator: Adobe Illustrator 19.2.1, SVG Export Plug-In . SVG Version: 6.00 Build 0)  -->
<svg version="1.1" id="Layer_1" xmlns="http://www.w3.org/2000/svg" xmlns:xlink="http://www.w3.org/1999/xlink" x="0px" y="0px"
	 viewBox="0 0 100 100" style="enable-background:new 0 0 100 100;" xml:space="preserve">
<style type="text/css">
	.st0{fill:#010202;}
</style>
<g id="NEHC_Logo">
</g>
<g id="Sail_Waves">
	<g id="close">
	</g>
</g>
<g id="Bag">
</g>
<g id="User">
	<path class="st0" d="M48.8,19.4c8.5,0,15.4,6.9,15.4,15.4c0,8.4-6.9,15.3-15.4,15.3s-15.4-6.9-15.4-15.4S40.3,19.4,48.8,19.4z
		 M48.8,13.2c-11.9,0-21.5,9.6-21.5,21.5s9.6,21.5,21.5,21.5s21.5-9.7,21.5-21.5C70.3,22.8,60.7,13.2,48.8,13.2z M68.3,54.2
		c-1.6,1.6-3.2,2.9-5.1,4c8.9,5.7,13.5,15.6,15.3,22.6H19c1.8-7,6.4-16.9,15.3-22.6c-1.8-1.1-3.6-2.5-5.1-4.1
		C16,63.6,11.9,80.3,11.9,87h73.8C85.6,80.4,81.2,63.7,68.3,54.2z"/>
</g>
<g id="Burger_Menu">
</g>
<g id="Tick">
</g>
<g id="Instagram">
	<g id="instagram">
	</g>
</g>
<g id="Pinterest">
	<g id="pinterest">
	</g>
</g>
<g id="Tumblr">
</g>
<g id="Twitter">
</g>
<g id="Facebook">
</g>
<g id="Share">
</g>
<g id="Down_arrow">
	<g id="chevron-up">
	</g>
</g>
<g id="Edit">
</g>
<polygon class="st0" points="92.3,19.5 86,19.5 86,13.2 79.9,13.2 79.9,19.5 73.7,19.5 73.7,25.6 79.9,25.6 79.9,31.8 86,31.8 
	86,25.6 92.3,25.6 "/>
</svg>
