<?xml version="1.0" encoding="utf-8"?>
<!-- Generator: Adobe Illustrator 19.2.1, SVG Export Plug-In . SVG Version: 6.00 Build 0)  -->
<svg version="1.1" xmlns="http://www.w3.org/2000/svg" xmlns:xlink="http://www.w3.org/1999/xlink" x="0px" y="0px"
	 viewBox="0 0 100 100" style="enable-background:new 0 0 100 100;" xml:space="preserve">
<style type="text/css">
	.st0{fill:#010202;}
	.st1{fill:#1E1E1C;}
	.st2{fill:#F19730;}
	.st3{fill:#C81C21;}
	.st4{fill:#F7B14E;}
	.st5{fill:#232A55;}
	.st6{fill:#FFFFFF;}
	.st7{fill:#293167;}
	.st8{fill:#E29626;}
	.st9{fill:#090909;}
</style>
<g id="NEHC_Logo">
</g>
<g id="Sail_Waves">
	<g id="close">
		<g id="layer1">
			<g id="g10305">
				<path id="path2268" class="st2" d="M87.5,50c0,12.4-10,22.4-22.4,22.5c-12.4,0-22.4-10-22.5-22.4c0,0,0,0,0,0
					c0-12.4,10-22.4,22.4-22.5C77.4,27.5,87.5,37.6,87.5,50C87.5,50,87.5,50,87.5,50z"/>
				<path id="path1350" class="st3" d="M34.8,27.6C22.5,27.6,12.5,37.7,12.5,50c0,12.4,10.1,22.4,22.4,22.4c5.8,0,11.1-2.2,15.1-5.8
					c0,0,0,0,0,0h0c0.8-0.7,1.6-1.5,2.3-2.4h-4.6c-0.6-0.7-1.2-1.5-1.7-2.3H54c0.5-0.8,0.9-1.6,1.3-2.4H44.8
					c-0.4-0.8-0.7-1.6-0.9-2.4h12.4c0.7-2.2,1.2-4.6,1.2-7.1c0-1.6-0.2-3.3-0.5-4.8H43.2c0.2-0.8,0.4-1.6,0.6-2.4h12.4
					c-0.3-0.8-0.6-1.6-1-2.4H44.7c0.4-0.8,0.8-1.6,1.3-2.4H54c-0.5-0.8-1.1-1.6-1.7-2.4h-4.4c0.7-0.8,1.4-1.6,2.3-2.3
					c-4-3.6-9.3-5.8-15.1-5.8C34.9,27.6,34.8,27.6,34.8,27.6z"/>
				<path id="use9412" class="st4" d="M85.2,61.7c0.1,0,0.2,0,0.4,0.1c0.1,0.1,0.2,0.2,0.3,0.3c0.1,0.1,0.1,0.2,0.1,0.4
					c0,0.1,0,0.2-0.1,0.4c-0.1,0.1-0.2,0.2-0.3,0.3c-0.1,0.1-0.2,0.1-0.4,0.1s-0.2,0-0.4-0.1c-0.1-0.1-0.2-0.2-0.3-0.3
					c-0.1-0.1-0.1-0.2-0.1-0.4c0-0.1,0-0.2,0.1-0.4c0.1-0.1,0.2-0.2,0.3-0.3C85,61.8,85.1,61.7,85.2,61.7 M85.2,61.9
					c-0.1,0-0.2,0-0.3,0.1c-0.1,0.1-0.2,0.1-0.2,0.2c-0.1,0.1-0.1,0.2-0.1,0.3c0,0.1,0,0.2,0.1,0.3c0.1,0.1,0.1,0.2,0.2,0.2
					c0.1,0.1,0.2,0.1,0.3,0.1c0.1,0,0.2,0,0.3-0.1c0.1-0.1,0.2-0.1,0.2-0.2c0.1-0.1,0.1-0.2,0.1-0.3c0-0.1,0-0.2-0.1-0.3
					c-0.1-0.1-0.1-0.2-0.2-0.2C85.4,61.9,85.3,61.9,85.2,61.9 M84.9,62.9v-0.8h0.3c0.1,0,0.2,0,0.2,0c0,0,0.1,0,0.1,0.1
					c0,0,0,0.1,0,0.1c0,0.1,0,0.1-0.1,0.1c0,0-0.1,0.1-0.2,0.1c0,0,0,0,0.1,0c0,0,0.1,0.1,0.1,0.2l0.1,0.2h-0.2l-0.1-0.1
					c-0.1-0.1-0.1-0.2-0.1-0.2c0,0-0.1,0-0.1,0h-0.1v0.3L84.9,62.9 M85.1,62.4h0.2c0.1,0,0.1,0,0.1,0c0,0,0-0.1,0-0.1c0,0,0,0,0-0.1
					c0,0,0,0-0.1,0c0,0-0.1,0-0.1,0h-0.1L85.1,62.4"/>
			</g>
			<g id="g16480">
				<g id="g13802" transform="translate(-13.74405,15.9939)">
					<path id="path13804" class="st5" d="M56.1,40.4l0.3-2c-0.2,0-0.4,0.1-0.6,0.1c-0.8,0-0.9-0.4-0.9-0.8l0.8-4.1H57l0.3-2.3h-1.2
						l0.2-1.4h-2.5c-0.1,0.1-1.4,7.9-1.4,8.8c0,1.4,0.8,2,1.9,2C55.2,40.8,55.9,40.5,56.1,40.4z"/>
					<path id="path13806" class="st5" d="M56.9,36.6c0,3.4,2.2,4.2,4.1,4.2c1.8,0,2.7-0.4,2.7-0.4l0.4-2.3c0,0-1.5,0.6-2.7,0.6
						c-2.6,0-2.1-1.9-2.1-1.9l4.9,0c0,0,0.3-1.5,0.3-2.2c0-1.6-0.9-3.5-3.5-3.5C58.7,31.1,56.9,33.6,56.9,36.6z M61.1,33.2
						c1.3,0,1.1,1.5,1.1,1.6h-2.7C59.5,34.7,59.8,33.2,61.1,33.2z"/>
					<path id="path13808" class="st5" d="M76.2,40.4l0.4-2.6c0,0-1.2,0.6-2,0.6c-1.7,0-2.4-1.3-2.4-2.7c0-2.8,1.5-4.4,3.1-4.4
						c1.2,0,2.2,0.7,2.2,0.7l0.4-2.5c0,0-1.2-0.8-2.4-0.8c-3.7,0-5.9,2.6-5.9,7.1c0,3,1.6,5,4.4,5C74.9,40.8,76.2,40.4,76.2,40.4z"
						/>
					<path id="path13810" class="st5" d="M43,31.1c-1.6,0-2.9,0.5-2.9,0.5l-0.3,2.1c0,0,1-0.4,2.6-0.4c0.9,0,1.5,0.1,1.5,0.8
						c0,0.4-0.1,0.6-0.1,0.6s-0.7-0.1-1-0.1c-2.3,0-4.2,0.9-4.2,3.5c0,2.1,1.4,2.6,2.3,2.6c1.7,0,2.4-1.1,2.4-1.1l0,0.9
						c0,0,2.1,0,2.1,0l0.9-6.6C46.3,31.2,43.8,31.1,43,31.1z M43.4,36.4c0,0.4-0.1,2.3-1.5,2.3c-0.7,0-0.9-0.6-0.9-0.9
						c0-0.7,0.4-1.4,2.1-1.4C43.4,36.4,43.3,36.4,43.4,36.4z"/>
					<path id="path13812" class="st5" d="M48.5,40.7c0.5,0,3.6,0.1,3.6-3c0-3-2.8-2.4-2.8-3.6c0-0.6,0.5-0.8,1.3-0.8
						c0.3,0,1.6,0.1,1.6,0.1l0.3-2.1c0,0-0.8-0.2-2.2-0.2c-1.8,0-3.6,0.7-3.6,3.1c0,2.7,3,2.5,3,3.6c0,0.8-0.8,0.8-1.5,0.8
						c-1.1,0-2.1-0.4-2.1-0.4l-0.3,2.1C45.9,40.4,46.5,40.7,48.5,40.7z"/>
					<path id="path13814" class="st5" d="M95.9,29.2l-0.4,3.2c0,0-0.9-1.2-2.3-1.2c-2.6,0-4,2.6-4,5.7c0,2,1,3.9,3,3.9
						c1.4,0,2.2-1,2.2-1l-0.1,0.9h2.3l1.8-11.4L95.9,29.2z M94.9,35.4c0,1.3-0.6,2.9-1.9,2.9c-0.9,0-1.3-0.7-1.3-1.9
						c0-1.9,0.8-3.1,1.9-3.1C94.5,33.5,94.9,34,94.9,35.4z"/>
					<path id="path13816" class="st5" d="M30.1,40.6l1.5-8.6l0.2,8.6h1.6l3.1-8.6l-1.4,8.6h2.4l1.9-11.4l-3.9,0l-2.3,7l-0.1-6.9
						h-3.6l-1.9,11.4L30.1,40.6L30.1,40.6z"/>
					<path id="path13818" class="st5" d="M66.9,40.6c0.7-4,0.9-7.1,3-6.4c0.3-1.5,1-2.9,1.3-3.5c0,0-0.1-0.1-0.7-0.1
						c-1.1,0-2.5,2.2-2.5,2.2l0.2-1.3h-2.2l-1.5,9.3L66.9,40.6L66.9,40.6z"/>
					<g id="use14699" transform="translate(845.3001,0)">
						<path id="path13810_1_" class="st5" d="M-764.1,31.1c-1.6,0-2.9,0.5-2.9,0.5l-0.3,2.1c0,0,1-0.4,2.6-0.4
							c0.9,0,1.5,0.1,1.5,0.8c0,0.4-0.1,0.6-0.1,0.6s-0.7-0.1-1-0.1c-2.3,0-4.2,0.9-4.2,3.5c0,2.1,1.4,2.6,2.3,2.6
							c1.7,0,2.4-1.1,2.4-1.1l0,0.9h2.1l0.9-6.6C-760.8,31.2-763.2,31.1-764.1,31.1z M-763.7,36.4c0,0.4-0.1,2.3-1.5,2.3
							c-0.7,0-0.9-0.6-0.9-0.9c0-0.7,0.4-1.4,2.1-1.4C-763.7,36.4-763.8,36.4-763.7,36.4z"/>
					</g>
					<path id="use14701" class="st5" d="M86.9,40.6c0.4-2.9,1.1-7,3-6.4c0.3-1.5,0-1.5-0.6-1.5c-1.1,0-1.3,0-1.3,0l0.2-1.3H86
						l-1.5,9.3L86.9,40.6L86.9,40.6z"/>
				</g>
				<g id="g10289">
					<path id="path4157" class="st6" d="M43,55.7l0.3-2c-0.2,0-0.4,0.1-0.6,0.1c-0.8,0-0.9-0.4-0.9-0.8l0.7-4.1h1.3l0.3-2.2h-1.2
						l0.2-1.4h-2.4c-0.1,0.1-1.4,7.9-1.4,8.8c0,1.4,0.8,2,1.9,2C42.1,56,42.8,55.8,43,55.7z"/>
					<path id="path4155" class="st6" d="M43.8,51.8c0,3.4,2.2,4.2,4.1,4.2c1.8,0,2.5-0.4,2.5-0.4l0.4-2.3c0,0-1.3,0.6-2.5,0.6
						c-2.6,0-2.1-1.9-2.1-1.9h4.9c0,0,0.3-1.5,0.3-2.2c0-1.6-0.8-3.5-3.4-3.5C45.6,46.3,43.8,48.9,43.8,51.8z M48,48.5
						c1.3,0,1.1,1.5,1.1,1.6h-2.7C46.4,49.9,46.7,48.5,48,48.5z"/>
					<path id="path4151" class="st6" d="M63.1,55.7l0.4-2.6c0,0-1.2,0.6-2,0.6c-1.7,0-2.4-1.3-2.4-2.7c0-2.8,1.5-4.4,3.1-4.4
						c1.2,0,2.2,0.7,2.2,0.7l0.4-2.5c0,0-1.4-0.6-2.7-0.6c-2.8,0-5.4,2.4-5.4,6.9c0,3,1.4,4.9,4.3,4.9C61.8,56,63.1,55.7,63.1,55.7z
						"/>
					<path id="path4149" class="st6" d="M29.9,46.4c-1.6,0-2.9,0.5-2.9,0.5l-0.3,2.1c0,0,1-0.4,2.6-0.4c0.9,0,1.5,0.1,1.5,0.8
						c0,0.4-0.1,0.6-0.1,0.6s-0.7-0.1-1-0.1c-2.1,0-4.2,0.9-4.2,3.5c0,2.1,1.4,2.6,2.3,2.6c1.7,0,2.4-1.1,2.5-1.1l-0.1,0.9h2.1
						l0.9-6.6C33.2,46.5,30.7,46.4,29.9,46.4z M30.4,51.7c0,0.4-0.3,2.3-1.7,2.3c-0.7,0-0.9-0.6-0.9-0.9c0-0.7,0.4-1.4,2.1-1.4
						C30.3,51.7,30.3,51.7,30.4,51.7z"/>
					<path id="path4145" class="st6" d="M35.4,56c0.5,0,3.6,0.1,3.6-3c0-3-2.8-2.4-2.8-3.6c0-0.6,0.5-0.8,1.3-0.8
						c0.3,0,1.6,0.1,1.6,0.1l0.3-2.1c0,0-0.8-0.2-2.2-0.2c-1.8,0-3.6,0.7-3.6,3.1c0,2.7,3,2.5,3,3.6c0,0.8-0.8,0.8-1.5,0.8
						c-1.1,0-2.1-0.4-2.1-0.4l-0.3,2.1C32.8,55.7,33.4,56,35.4,56z"/>
					<path id="path4139" class="st6" d="M82.9,44.5l-0.5,3.2c0,0-0.9-1.2-2.3-1.2c-2.2,0-4,2.6-4,5.7c0,2,1,3.9,3,3.9
						c1.4,0,2.2-1,2.2-1l-0.1,0.9h2.3l1.8-11.4L82.9,44.5z M81.8,50.7c0,1.3-0.6,2.9-1.9,2.9c-0.9,0-1.3-0.7-1.3-1.9
						c0-1.9,0.8-3.1,1.9-3.1C81.3,48.7,81.8,49.3,81.8,50.7z"/>
					<path id="path4133" class="st6" d="M16.9,55.8l1.5-8.6l0.2,8.6h1.6l3.1-8.6L22,55.8h2.4l1.9-11.4h-3.8l-2.4,7l-0.1-7h-3.5
						l-1.9,11.4C14.6,55.8,16.9,55.8,16.9,55.8z"/>
					<path id="path4131" class="st6" d="M53.8,55.9c0.7-4,0.8-7.2,2.5-6.6c0.3-1.5,0.6-2.1,0.9-2.8c0,0-0.1,0-0.5,0
						c-1.1,0-1.9,1.5-1.9,1.5l0.2-1.3h-2.2l-1.5,9.3H53.8z"/>
					<g id="use8523" transform="translate(847.0062,0)">
						<path id="path4149_1_" class="st6" d="M-778.4,46.4c-1.6,0-2.9,0.5-2.9,0.5l-0.3,2.1c0,0,1-0.4,2.6-0.4c0.9,0,1.5,0.1,1.5,0.8
							c0,0.4-0.1,0.6-0.1,0.6s-0.7-0.1-1-0.1c-2.1,0-4.2,0.9-4.2,3.5c0,2.1,1.4,2.6,2.3,2.6c1.7,0,2.4-1.1,2.5-1.1l-0.1,0.9
							c0,0,2.1,0,2.1,0l0.9-6.6C-775.1,46.5-777.5,46.4-778.4,46.4z M-777.9,51.7c0,0.4-0.3,2.3-1.7,2.3c-0.7,0-0.9-0.6-0.9-0.9
							c0-0.7,0.4-1.4,2.1-1.4C-778,51.7-777.9,51.7-777.9,51.7z"/>
					</g>
					<g id="use8525" transform="translate(442.2857,0)">
						<path id="path4131_1_" class="st6" d="M-368.5,55.9c0.7-4,0.8-7.2,2.5-6.6c0.3-1.5,0.6-2.1,0.9-2.8c0,0-0.1,0-0.5,0
							c-1.1,0-1.9,1.5-1.9,1.5l0.2-1.3h-2.2l-1.5,9.3H-368.5z"/>
					</g>
					<path id="text9407" class="st6" d="M85.2,54.4c0.1,0,0.2,0,0.4,0.1c0.1,0.1,0.2,0.2,0.3,0.3c0.1,0.1,0.1,0.2,0.1,0.4
						c0,0.1,0,0.2-0.1,0.4c-0.1,0.1-0.2,0.2-0.3,0.3c-0.1,0.1-0.2,0.1-0.4,0.1c-0.1,0-0.2,0-0.4-0.1c-0.1-0.1-0.2-0.2-0.3-0.3
						c-0.1-0.1-0.1-0.2-0.1-0.4c0-0.1,0-0.2,0.1-0.4c0.1-0.1,0.2-0.2,0.3-0.3C85,54.5,85.1,54.4,85.2,54.4 M85.2,54.5
						c-0.1,0-0.2,0-0.3,0.1c-0.1,0.1-0.2,0.1-0.2,0.2c-0.1,0.1-0.1,0.2-0.1,0.3c0,0.1,0,0.2,0.1,0.3c0.1,0.1,0.1,0.2,0.2,0.2
						c0.1,0.1,0.2,0.1,0.3,0.1c0.1,0,0.2,0,0.3-0.1c0.1-0.1,0.2-0.1,0.2-0.2c0.1-0.1,0.1-0.2,0.1-0.3c0-0.1,0-0.2-0.1-0.3
						c-0.1-0.1-0.1-0.2-0.2-0.2C85.4,54.6,85.3,54.5,85.2,54.5 M84.9,55.6v-0.8h0.3c0.1,0,0.2,0,0.2,0c0,0,0.1,0,0.1,0.1
						c0,0,0,0.1,0,0.1c0,0.1,0,0.1-0.1,0.1c0,0-0.1,0.1-0.2,0.1c0,0,0,0,0.1,0c0,0,0.1,0.1,0.1,0.2l0.1,0.2h-0.2l-0.1-0.1
						c-0.1-0.1-0.1-0.2-0.1-0.2c0,0-0.1,0-0.1,0H85v0.3L84.9,55.6 M85,55.1h0.2c0.1,0,0.1,0,0.1,0c0,0,0-0.1,0-0.1c0,0,0,0,0-0.1
						c0,0,0,0-0.1,0c0,0-0.1,0-0.1,0H85L85,55.1"/>
				</g>
			</g>
		</g>
	</g>
</g>
<g id="Bag">
</g>
<g id="User">
</g>
<g id="Burger_Menu">
</g>
<g id="Tick">
</g>
<g id="Instagram">
	<g id="instagram">
	</g>
</g>
<g id="Pinterest">
	<g id="pinterest">
	</g>
</g>
<g id="Tumblr">
</g>
<g id="Twitter">
</g>
<g id="Facebook">
</g>
<g id="Share">
</g>
<g id="Down_arrow">
	<g id="chevron-up">
	</g>
</g>
<g id="Edit">
</g>
</svg>
