<?xml version="1.0" encoding="utf-8"?>
<!-- Generator: Adobe Illustrator 19.2.1, SVG Export Plug-In . SVG Version: 6.00 Build 0)  -->
<svg version="1.1" id="Layer_1" xmlns="http://www.w3.org/2000/svg" xmlns:xlink="http://www.w3.org/1999/xlink" x="0px" y="0px"
	 viewBox="0 0 100 100" style="enable-background:new 0 0 100 100;" xml:space="preserve">
<g id="NEHC_Logo">
</g>
<g id="Sail_Waves">
	<g id="close">
	</g>
</g>
<g id="Bag">
</g>
<g id="User">
	<path d="M42.8,68.1c0,2-1.6,3.6-3.6,3.6s-3.6-1.6-3.6-3.6s1.6-3.6,3.6-3.6C41.2,64.4,42.8,66.1,42.8,68.1z M53.6,68.1
		c0,2-1.6,3.6-3.6,3.6s-3.6-1.6-3.6-3.6s1.6-3.6,3.6-3.6S53.6,66.1,53.6,68.1z M64.4,68.1c0,2-1.6,3.6-3.6,3.6s-3.6-1.6-3.6-3.6
		s1.6-3.6,3.6-3.6C62.8,64.4,64.4,66.1,64.4,68.1z M71.7,42.8V28.3c0-12-9.7-21.7-21.7-21.7s-21.7,9.7-21.7,21.7v14.4H17.5v50.6h65
		V42.8H71.7z M35.6,28.3c0-8,6.5-14.4,14.4-14.4s14.4,6.5,14.4,14.4v14.4H35.6V28.3z M75.3,86.1H24.7V50h50.6V86.1z"/>
</g>
<g id="Burger_Menu">
</g>
<g id="Tick">
</g>
<g id="Instagram">
	<g id="instagram">
	</g>
</g>
<g id="Pinterest">
	<g id="pinterest">
	</g>
</g>
<g id="Tumblr">
</g>
<g id="Twitter">
</g>
<g id="Facebook">
</g>
<g id="Share">
</g>
<g id="Down_arrow">
	<g id="chevron-up">
	</g>
</g>
<g id="Edit">
</g>
</svg>
