<?xml version="1.0" encoding="utf-8"?>
<!-- Generator: Adobe Illustrator 19.2.1, SVG Export Plug-In . SVG Version: 6.00 Build 0)  -->
<svg version="1.1" xmlns="http://www.w3.org/2000/svg" xmlns:xlink="http://www.w3.org/1999/xlink" x="0px" y="0px"
	 viewBox="0 0 100 100" style="enable-background:new 0 0 100 100;" xml:space="preserve">
<style type="text/css">
	.st0{fill:#010202;}
	.st1{fill:#1E1E1C;}
	.st2{fill:#F19730;}
	.st3{fill:#C81C21;}
	.st4{fill:#F7B14E;}
	.st5{fill:#232A55;}
	.st6{fill:#FFFFFF;}
	.st7{fill:#293167;}
	.st8{fill:#E29626;}
	.st9{fill:#090909;}
</style>
<g id="NEHC_Logo">
</g>
<g id="Sail_Waves">
	<g id="close">
	</g>
</g>
<g id="Bag">
</g>
<g id="User">
	<g>
		<path d="M87.4,32.5c0-4.6-3.6-8.4-8.3-8.4c-9.4,0-18.8,0-28.1,0c0,0,0,0,0,0c-1.3,0-2.6,0-4,0c-0.3,0-0.6,0-0.8,0c0,0,0,0,0,0
			c-8.5,0-16.9,0-25.4,0c-4.7,0-8.3,3.7-8.3,8.4c0,11.6,0.1,23.2-0.1,34.7c-0.1,4.2,3.4,8.8,8.7,8.8c10.7-0.1,21.3,0,32,0
			c1.4,0,2.7,0,4.1,0c0,0,0,0,0,0c7.2,0,14.4,0,21.6,0c5.2,0,8.7-4.6,8.7-8.8C87.3,55.6,87.4,44,87.4,32.5z M81.9,66.3
			c0,3.1-0.9,4-4,4c-9,0-17.9,0-26.9,0c-9.6,0-19.3,0-28.9,0c-3,0-4-0.9-4-4c0-10.8,0-21.7,0-32.5c0-3.2,0.9-4.1,4-4.1
			c8.3,0,16.7,0,25,0c0,0,0,0,0,0c1,0,1.9,0,2.9,0c0.5,0,1.1,0,1.6,0c0,0,0,0,0,0c8.7,0,17.5,0,26.2,0c3.2,0,4,0.9,4,4.1
			C81.9,44.7,81.9,55.5,81.9,66.3z"/>
		<path d="M38.4,51c-0.9,0.5-1.6,0.4-2.5-0.1c-5.6-2.8-12.1,1.2-12.3,7.5c-0.2,6.5,6.6,10.9,12.4,8c0.9-0.5,1.5-0.5,2.5,0
			c3.7,1.9,8,0.9,10.6-2.3c2.5-3.1,2.6-7.6,0.1-10.7C46.5,50.1,42.1,49.1,38.4,51z M42.5,64.5c-3.2,0.1-5.9-2.5-5.9-5.7
			c0-3.3,2.5-5.8,5.8-5.8c3.2,0,5.9,2.6,5.9,5.8C48.2,61.8,45.6,64.4,42.5,64.5z"/>
		<path d="M73.1,38.4H27c-1.6,0-2.9,1.3-2.9,2.9s1.3,2.9,2.9,2.9h46.1c1.6,0,2.9-1.3,2.9-2.9S74.7,38.4,73.1,38.4z"/>
		<path d="M73.1,55.8H58.8c-1.6,0-2.9,1.3-2.9,2.9s1.3,2.9,2.9,2.9h14.3c1.6,0,2.9-1.3,2.9-2.9S74.7,55.8,73.1,55.8z"/>
	</g>
</g>
<g id="Burger_Menu">
</g>
<g id="Tick">
</g>
<g id="Instagram">
	<g id="instagram">
	</g>
</g>
<g id="Pinterest">
	<g id="pinterest">
	</g>
</g>
<g id="Tumblr">
</g>
<g id="Twitter">
</g>
<g id="Facebook">
</g>
<g id="Share">
</g>
<g id="Down_arrow">
	<g id="chevron-up">
	</g>
</g>
<g id="Edit">
</g>
</svg>
