<svg id="Layer_1" data-name="Layer 1" xmlns="http://www.w3.org/2000/svg" viewBox="0 0 100 100"><title>phone</title><g id="g3015"><path id="path3017" d="M42.09,14.7q0.72,0.48,1.4,4,0.25,1,.66,2.74t0.76,3.22q0.35,1.45.71,2.73,0.08,0.21.46,1.31a12.73,12.73,0,0,1,.51,1.82,3,3,0,0,1,0,1.34,3.78,3.78,0,0,1-1.86,1.85,22.22,22.22,0,0,1-3.39,1.66,27.45,27.45,0,0,0-3.37,1.57,3.47,3.47,0,0,0-1.81,1.67,3.08,3.08,0,0,0-.06,1,10,10,0,0,0,.12,1q0.07,0.35.32,1.22t0.27,1a47.84,47.84,0,0,0,4.77,12.44,47.84,47.84,0,0,0,8.19,10.51l0.69,0.74q0.62,0.67.88,0.91a10,10,0,0,0,.8.62,3.08,3.08,0,0,0,.93.49,3.47,3.47,0,0,0,2.37-.69,27.45,27.45,0,0,0,3.08-2.07,22.22,22.22,0,0,1,3.17-2.05,3.78,3.78,0,0,1,2.54-.64,3,3,0,0,1,1.17.66,12.73,12.73,0,0,1,1.3,1.38l0.88,1.07q0.91,1,2,2t2.36,2.31q1.3,1.26,2,2,2.65,2.39,2.69,3.26a2.55,2.55,0,0,1-.12,1,15,15,0,0,1-1.3,3,18.11,18.11,0,0,1-1.76,2.75q-1.53,1.94-6.65,3.16a16.9,16.9,0,0,1-11.05-.83,19.7,19.7,0,0,1-2.37-1.25q-1.3-.79-1.91-1.22l-2.19-1.58q-1.57-1.15-1.93-1.39a41.28,41.28,0,0,1-6.67-5.78,67.61,67.61,0,0,1-9-12.69A67.61,67.61,0,0,1,25.4,46.62a41.28,41.28,0,0,1-1.51-8.7q0-.43-0.19-2.37t-0.22-2.69q-0.05-.75-0.06-2.26a19.7,19.7,0,0,1,.15-2.68,16.9,16.9,0,0,1,5-9.89q3.69-3.75,6.14-4.06A18.11,18.11,0,0,1,38,13.89a15,15,0,0,1,3.22.42A2.55,2.55,0,0,1,42.09,14.7Z"/></g></svg>