<?xml version="1.0" encoding="utf-8"?>
<!-- Generator: Adobe Illustrator 19.2.1, SVG Export Plug-In . SVG Version: 6.00 Build 0)  -->
<svg version="1.1" id="Layer_1" xmlns="http://www.w3.org/2000/svg" xmlns:xlink="http://www.w3.org/1999/xlink" x="0px" y="0px"
	 viewBox="0 0 100 100" style="enable-background:new 0 0 100 100;" xml:space="preserve">
<g id="NEHC_Logo">
</g>
<g id="Sail_Waves">
	<g id="close">
	</g>
</g>
<g id="Bag">
</g>
<g id="User">
</g>
<g id="Burger_Menu">
</g>
<g id="Tick">
</g>
<g id="Instagram">
	<g id="instagram">
	</g>
</g>
<g id="Pinterest">
	<g id="pinterest">
		<g id="XMLID_26_">
			<g>
				<path id="XMLID_27_" d="M51.7,12.5c-20.3,0-30.6,14.7-30.6,26.9c0,7.4,2.8,14,8.8,16.5c1,0.4,1.9,0,2.1-1.1
					c0.2-0.8,0.7-2.7,0.9-3.5c0.3-1.1,0.2-1.5-0.6-2.4c-1.7-2-2.8-4.7-2.8-8.4c0-10.9,8.1-20.6,21.1-20.6c11.5,0,17.8,7.1,17.8,16.5
					c0,12.4-5.5,22.9-13.6,22.9c-4.5,0-7.8-3.7-6.8-8.3c1.3-5.4,3.8-11.3,3.8-15.3c0-3.5-1.9-6.5-5.8-6.5c-4.6,0-8.2,4.8-8.2,11.2
					c0,4.1,1.4,6.8,1.4,6.8s-4.7,20-5.5,23.5c-1.6,7-0.2,15.5-0.1,16.4c0.1,0.5,0.7,0.6,1,0.2c0.4-0.5,5.9-7.3,7.7-14.1
					c0.5-1.9,3-11.8,3-11.8c1.5,2.9,5.8,5.4,10.5,5.4c13.8,0,23.1-12.6,23.1-29.5C78.8,24.4,68.1,12.5,51.7,12.5L51.7,12.5z"/>
			</g>
		</g>
	</g>
</g>
<g id="Tumblr">
</g>
<g id="Twitter">
</g>
<g id="Facebook">
</g>
<g id="Share">
</g>
<g id="Down_arrow">
	<g id="chevron-up">
	</g>
</g>
<g id="Edit">
</g>
</svg>
