<?xml version="1.0" encoding="utf-8"?>
<!-- Generator: Adobe Illustrator 19.2.1, SVG Export Plug-In . SVG Version: 6.00 Build 0)  -->
<svg version="1.1" id="Layer_1" xmlns="http://www.w3.org/2000/svg" xmlns:xlink="http://www.w3.org/1999/xlink" x="0px" y="0px"
	 viewBox="0 0 100 100" style="enable-background:new 0 0 100 100;" xml:space="preserve">
<g id="NEHC_Logo">
</g>
<g id="Sail_Waves">
	<g id="close">
		<path d="M50,10c-22.1,0-40,17.9-40,40s17.9,40,40,40s40-17.9,40-40S72.1,10,50,10z M50,84.7c-19.1,0-34.7-15.6-34.7-34.7
			S30.9,15.3,50,15.3S84.7,30.9,84.7,50S69.1,84.7,50,84.7z"/>
		<path d="M69,47.9H52.2V31.1c0-1.2-1-2.1-2.1-2.1c-1.2,0-2.1,1-2.1,2.1v16.8H31.2c-1.2,0-2.1,1-2.1,2.1c0,0.6,0.2,1.1,0.6,1.5
			s0.9,0.6,1.5,0.6H48v16.8c0,0.6,0.2,1.1,0.6,1.5c0.4,0.4,0.9,0.6,1.5,0.6c1.2,0,2.1-1,2.1-2.1V52.1H69c1.2,0,2.1-1,2.1-2.1
			C71.1,48.8,70.2,47.9,69,47.9z"/>
	</g>
</g>
<g id="Bag">
</g>
<g id="User">
</g>
<g id="Burger_Menu">
</g>
<g id="Tick">
</g>
<g id="Instagram">
	<g id="instagram">
	</g>
</g>
<g id="Pinterest">
	<g id="pinterest">
	</g>
</g>
<g id="Tumblr">
</g>
<g id="Twitter">
</g>
<g id="Facebook">
</g>
<g id="Share">
</g>
<g id="Down_arrow">
	<g id="chevron-up">
	</g>
</g>
<g id="Edit">
</g>
</svg>
