<svg xmlns="http://www.w3.org/2000/svg" xmlns:xlink="http://www.w3.org/1999/xlink" x="0px" y="0px"
	 viewBox="0 0 100 100" style="enable-background:new 0 0 100 100;" xml:space="preserve">
<path d="M80,26.6c0.8-0.8,1-2,0.6-3.1c-0.4-1-1.5-1.7-2.6-1.7H66.7l4.4-5.1c1-1.2,0.9-2.9-0.3-3.9c-1.2-1-2.9-0.9-3.9,0.3l-7.5,8.7
	H22c-1.1,0-2.2,0.7-2.6,1.7c-0.4,1-0.2,2.3,0.6,3.1l27.2,27.2v28.5H41c-1.5,0-2.8,1.3-2.8,2.8s1.3,2.8,2.8,2.8H59
	c1.5,0,2.8-1.3,2.8-2.8s-1.3-2.8-2.8-2.8h-6.2V53.8L80,26.6z M71.2,27.4L50,48.7L28.8,27.4L71.2,27.4L71.2,27.4z"/>
</svg>
