<?xml version="1.0" encoding="utf-8"?>
<!-- Generator: Adobe Illustrator 19.2.1, SVG Export Plug-In . SVG Version: 6.00 Build 0)  -->
<svg version="1.1" id="Layer_1" xmlns="http://www.w3.org/2000/svg" xmlns:xlink="http://www.w3.org/1999/xlink" x="0px" y="0px"
	 viewBox="0 0 100 100" style="enable-background:new 0 0 100 100;" xml:space="preserve">
<g id="NEHC_Logo">
</g>
<g id="Sail_Waves">
	<g id="close">
		<g>
			<path d="M50,10c-22.1,0-40,17.9-40,40s17.9,40,40,40s40-17.9,40-40S72.1,10,50,10z M50,84.7c-19.1,0-34.7-15.6-34.7-34.7
				S30.9,15.3,50,15.3S84.7,30.9,84.7,50S69.1,84.7,50,84.7z"/>
			<path d="M64.9,35.1c-0.8-0.8-2.2-0.8-3,0L50,47L38.1,35.1c-0.8-0.8-2.2-0.8-3,0s-0.8,2.2,0,3L47,50L35.1,61.9
				c-0.8,0.8-0.8,2.2,0,3c0.4,0.4,0.9,0.6,1.5,0.6s1.1-0.2,1.5-0.6L50,53l11.9,11.9c0.4,0.4,0.9,0.6,1.5,0.6s1.1-0.2,1.5-0.6
				c0.8-0.8,0.8-2.2,0-3L53,50l11.9-11.9C65.8,37.3,65.8,35.9,64.9,35.1z"/>
		</g>
	</g>
</g>
<g id="Bag">
</g>
<g id="User">
</g>
<g id="Burger_Menu">
</g>
<g id="Tick">
</g>
<g id="Instagram">
	<g id="instagram">
	</g>
</g>
<g id="Pinterest">
	<g id="pinterest">
	</g>
</g>
<g id="Tumblr">
</g>
<g id="Twitter">
</g>
<g id="Facebook">
</g>
<g id="Share">
</g>
<g id="Down_arrow">
	<g id="chevron-up">
	</g>
</g>
<g id="Edit">
</g>
</svg>
