<?xml version="1.0" encoding="utf-8"?>
<!-- Generator: Adobe Illustrator 19.2.1, SVG Export Plug-In . SVG Version: 6.00 Build 0)  -->
<svg version="1.1" id="Layer_1" xmlns="http://www.w3.org/2000/svg" xmlns:xlink="http://www.w3.org/1999/xlink" x="0px" y="0px"
	 viewBox="0 0 100 100" style="enable-background:new 0 0 100 100;" xml:space="preserve">
<g id="NEHC_Logo">
</g>
<g id="Sail_Waves">
	<g id="close">
	</g>
</g>
<g id="Bag">
</g>
<g id="User">
	<path d="M88.3,58.5l-7-4c0,0-1.9-0.9-1.8-4.4c0,0-0.5-4,2-5.3l6.8-4.2c0,0,2.2-1,1.3-3.4l-2.9-6.6c0,0-0.9-2.6-3.7-1.7l-7.9,2.5
		c0,0-2.7,0-4.4-1.9c0,0-2.8-2.7-2-5.1l1.8-7.9c0,0,0.5-2.3-1.3-3.2L61,10.2c0,0-1.8-0.1-2.3,1.3l-4.6,8.3c0,0-2.2,1.8-5.1,1.2
		c0,0-3.1-0.3-3.8-1c0,0-4.7-7.9-4.9-8.3c0,0-0.9-1.8-2.7-1.1L30,13.7c0,0-1.5,0.9-1.1,2.3l2.7,10c0,0-0.6,2.5-2.3,3.8
		c0,0-3.1,2.3-4.5,2l-8.2-2c0,0-2.4-0.9-3.3,1.2l-3.1,7.6c0,0-0.6,1.6,1,2.5l8.1,4.6c0,0,2.6,1.2,1.8,5.7c0,0,0.2,3.3-3.1,5.1
		s-6.1,3.6-6.1,3.6S10,61,10.8,63c0.8,1.9,3.7,7.5,3.7,7.5s0.5,1.4,3.1,0.4l7.1-1.9c0,0,2.1-0.6,4.2,1.3c0,0,3,2.1,2.8,3.8l-2,10
		c0,0-0.6,1.7,1.3,2.8l7.9,3c0,0,2.2,0.2,2.8-1.6l3.5-6.3c0,0,1.1-2.8,4.8-2.6c0,0,3.7-0.3,5,1.7l4.5,7.5c0,0,0.8,1.9,3.3,0.8l7-3
		c0,0,2-1.3,1.4-3.1L69,75.7c0,0-1-2.1,1.1-4.3c0,0,2.2-3.6,5.2-2.9l8.4,2c0,0,1.7,0.8,3.3-1.7l2.7-6.7
		C89.9,61.9,90.7,59.5,88.3,58.5z M35.8,56.1C32.4,48.2,36.1,39,44,35.6s17.1,0.3,20.5,8.2s-0.3,17.1-8.3,20.5
		C48.4,67.7,39.2,64,35.8,56.1z"/>
</g>
<g id="Burger_Menu">
</g>
<g id="Tick">
</g>
<g id="Instagram">
	<g id="instagram">
	</g>
</g>
<g id="Pinterest">
	<g id="pinterest">
	</g>
</g>
<g id="Tumblr">
</g>
<g id="Twitter">
</g>
<g id="Facebook">
</g>
<g id="Share">
</g>
<g id="Down_arrow">
	<g id="chevron-up">
	</g>
</g>
<g id="Edit">
</g>
</svg>
