<?xml version="1.0" encoding="utf-8"?>
<!-- Generator: Adobe Illustrator 19.2.1, SVG Export Plug-In . SVG Version: 6.00 Build 0)  -->
<svg version="1.1" id="Layer_1" xmlns="http://www.w3.org/2000/svg" xmlns:xlink="http://www.w3.org/1999/xlink" x="0px" y="0px"
	 viewBox="0 0 100 100" style="enable-background:new 0 0 100 100;" xml:space="preserve">
<g id="NEHC_Logo">
</g>
<g id="Sail_Waves">
	<g id="close">
	</g>
</g>
<g id="Bag">
</g>
<path d="M50,92C26.8,92,8,73.2,8,50S26.8,8,50,8s42,18.8,42,42S73.2,92,50,92z M50,12c-21,0-38,17-38,38s17,38,38,38s38-17,38-38
	S71,12,50,12z"/>
<path d="M60.7,56.1c-2.3,0-4.3,1-5.8,2.5l-12.4-6c0.3-0.8,0.5-1.7,0.5-2.6c0-0.9-0.2-1.8-0.5-2.6l12.4-6c1.4,1.6,3.5,2.5,5.8,2.5
	c4.3,0,7.8-3.5,7.8-7.8s-3.5-7.8-7.8-7.8s-7.8,3.5-7.8,7.8c0,0.4,0,0.8,0.1,1.2l-13.2,6.3c-1.3-0.9-2.9-1.5-4.6-1.5
	c-4.3,0-7.8,3.5-7.8,7.8s3.5,7.8,7.8,7.8c1.7,0,3.3-0.6,4.6-1.5L53,62.6c-0.1,0.4-0.1,0.8-0.1,1.2c0,4.3,3.5,7.8,7.8,7.8
	s7.8-3.5,7.8-7.8S65,56.1,60.7,56.1z"/>
<g id="Burger_Menu">
</g>
<g id="Tick">
</g>
<g id="Instagram">
	<g id="instagram">
	</g>
</g>
<g id="Pinterest">
	<g id="pinterest">
	</g>
</g>
<g id="Tumblr">
</g>
<g id="Twitter">
</g>
<g id="Facebook">
</g>
<g id="Share">
</g>
<g id="Down_arrow">
	<g id="chevron-up">
	</g>
</g>
<g id="Edit">
</g>
</svg>
