<?xml version="1.0" encoding="utf-8"?>
<!-- Generator: Adobe Illustrator 19.2.1, SVG Export Plug-In . SVG Version: 6.00 Build 0)  -->
<svg version="1.1" xmlns="http://www.w3.org/2000/svg" xmlns:xlink="http://www.w3.org/1999/xlink" x="0px" y="0px"
	 viewBox="0 0 100 100" style="enable-background:new 0 0 100 100;" xml:space="preserve">
<style type="text/css">
	.st0{fill:#010202;}
	.st1{fill:#1E1E1C;}
	.st2{fill:#006FB5;}
	.st3{fill:#F4981A;}
	.st4{fill:#CC1417;}
	.st5{fill:#F9B343;}
	.st6{fill:#232856;}
	.st7{fill:#FFFFFF;}
	.st8{fill:#292E69;}
	.st9{fill:#E49707;}
	.st10{fill:#1E201D;}
	.st11{fill:none;stroke:#000000;stroke-width:3;stroke-miterlimit:10;}
	.st12{fill:#090909;}
</style>
<g id="NEHC_Logo">
</g>
<g id="Sail_Waves">
	<g id="close">
	</g>
</g>
<g id="Bag">
</g>
<g id="User">
	<path class="st10" d="M52,13.3l8.4,26.2l27.5,0c1.1,0,2.1,0.9,2.1,2.1c0,0.7-0.4,1.3-0.9,1.7l0,0L66.9,59.3l8.5,26.2
		c0.4,1.1-0.2,2.2-1.3,2.6c-0.7,0.2-1.5,0.1-2-0.4L50,71.5L27.8,87.7c-0.9,0.7-2.2,0.5-2.9-0.4c-0.4-0.6-0.5-1.3-0.3-1.8h0l8.6-26.2
		L10.9,43.2c-0.9-0.7-1.1-2-0.5-2.9c0.4-0.6,1.1-0.9,1.8-0.9l27.4,0L48,13.3c0.4-1.1,1.5-1.7,2.6-1.4C51.3,12.2,51.8,12.7,52,13.3
		L52,13.3z M56.9,42.2L50,20.6l-7,21.5l0,0c-0.3,0.9-1.1,1.4-2,1.4l-22.6,0l18.3,13.2l0,0c0.7,0.5,1,1.4,0.7,2.3l-7,21.5l18.2-13.3
		c0.7-0.5,1.7-0.6,2.5,0l18.3,13.3l-7-21.4c-0.3-0.9-0.1-1.8,0.7-2.4l18.4-13.2l-22.6,0C58.1,43.7,57.2,43.1,56.9,42.2L56.9,42.2z"
		/>
</g>
<g id="Burger_Menu">
</g>
<g id="Tick">
</g>
<g id="Instagram">
	<g id="instagram">
	</g>
</g>
<g id="Pinterest">
	<g id="pinterest">
	</g>
</g>
<g id="Tumblr">
</g>
<g id="Twitter">
</g>
<g id="Facebook">
</g>
<g id="Share">
</g>
<g id="Down_arrow">
	<g id="chevron-up">
	</g>
</g>
<g id="Edit">
</g>
</svg>
