<?xml version="1.0" encoding="utf-8"?>
<!-- Generator: Adobe Illustrator 19.2.1, SVG Export Plug-In . SVG Version: 6.00 Build 0)  -->
<svg version="1.1" id="Layer_1" xmlns="http://www.w3.org/2000/svg" xmlns:xlink="http://www.w3.org/1999/xlink" x="0px" y="0px"
	 viewBox="0 0 100 100" style="enable-background:new 0 0 100 100;" xml:space="preserve">
<g id="NEHC_Logo">
</g>
<g id="Sail_Waves">
	<g id="close">
	</g>
</g>
<g id="Bag">
</g>
<g id="User">
	<g>
		<path d="M44.4,52.3c0.8,1.9,2.6,3.3,4.6,3.7c1.7,0.4,3.5,0.1,5-0.8c1.6-1,2.7-2.6,3-4.5s-0.3-3.7-1.6-5.1L31,18.6
			c-0.2-0.2-0.6-0.3-0.9-0.1c-0.3,0.2-0.4,0.5-0.2,0.8L44.4,52.3z"/>
		<ellipse cx="50" cy="14" rx="4" ry="4"/>
		<path d="M62.1,12.5c-1.4-0.4-3,0.4-3.5,1.8c-0.4,1.5,0.4,3,1.9,3.4l0,0l0,0c14.5,4.2,24,17.4,24,32.7C84.5,69.2,69,84.5,50,84.5
			S15.5,69.2,15.5,50.4c0-9.1,3.6-17.7,10.1-24.1c0.5-0.5,0.8-1.2,0.8-1.9c0-0.7-0.3-1.4-0.8-1.9c-1.1-1.1-2.8-1.1-3.9,0
			C14.1,29.8,10,39.8,10,50.4C10,72.2,27.9,90,50,90s40-17.8,40-39.6C90,32.7,78.9,17.3,62.1,12.5z"/>
	</g>
</g>
<g id="Burger_Menu">
</g>
<g id="Tick">
</g>
<g id="Instagram">
	<g id="instagram">
	</g>
</g>
<g id="Pinterest">
	<g id="pinterest">
	</g>
</g>
<g id="Tumblr">
</g>
<g id="Twitter">
</g>
<g id="Facebook">
</g>
<g id="Share">
</g>
<g id="Down_arrow">
	<g id="chevron-up">
	</g>
</g>
<g id="Edit">
</g>
</svg>
