<?xml version="1.0" encoding="utf-8"?>
<!-- Generator: Adobe Illustrator 19.2.1, SVG Export Plug-In . SVG Version: 6.00 Build 0)  -->
<svg version="1.1" xmlns="http://www.w3.org/2000/svg" xmlns:xlink="http://www.w3.org/1999/xlink" x="0px" y="0px"
	 viewBox="0 0 100 100" style="enable-background:new 0 0 100 100;" xml:space="preserve">
<style type="text/css">
	.st0{fill:#010202;}
	.st1{fill:#1E1E1C;}
	.st2{fill:#F19730;}
	.st3{fill:#C81C21;}
	.st4{fill:#F7B14E;}
	.st5{fill:#232A55;}
	.st6{fill:#FFFFFF;}
	.st7{fill:#293167;}
	.st8{fill:#E29626;}
	.st9{fill:#090909;}
</style>
<g id="NEHC_Logo">
</g>
<g id="Sail_Waves">
	<g id="close">
	</g>
</g>
<g id="Bag">
</g>
<g id="User">
</g>
<g id="Burger_Menu">
</g>
<g id="Tick">
</g>
<g id="Instagram">
	<g id="instagram">
	</g>
</g>
<g id="Pinterest">
	<g id="pinterest">
	</g>
</g>
<g id="Tumblr">
</g>
<g id="Twitter">
	<path id="XMLID_1096_" d="M88.2,27.1c-2.8,1.2-5.8,2-9,2.4c3.2-1.9,5.7-4.8,6.9-8.4c-3,1.7-6.4,3-10,3.7c-2.9-2.9-6.9-4.8-11.4-4.8
		C56,20,49,26.8,49,35.1c0,1.2,0.1,2.3,0.4,3.5c-13-0.6-24.6-6.7-32.3-15.8C15.8,25,15,27.6,15,30.4c0,5.3,2.8,9.9,7,12.6
		c-2.6-0.1-5-0.8-7.1-1.9c0,0.1,0,0.1,0,0.2c0,7.3,5.4,13.5,12.6,14.9c-1.3,0.3-2.7,0.5-4.1,0.5c-1,0-2-0.1-2.9-0.3
		c2,6,7.8,10.4,14.6,10.5c-5.4,4.1-12.1,6.5-19.5,6.5c-1.3,0-2.5-0.1-3.7-0.2c6.9,4.3,15.2,6.8,24,6.8c28.8,0,44.6-23.1,44.6-43.1
		c0-0.7,0-1.3,0-2C83.4,32.8,86.1,30.1,88.2,27.1L88.2,27.1z"/>
</g>
<g id="Facebook">
</g>
<g id="Share">
</g>
<g id="Down_arrow">
	<g id="chevron-up">
	</g>
</g>
<g id="Edit">
</g>
</svg>
