<?xml version="1.0" encoding="utf-8"?>
<!-- Generator: Adobe Illustrator 19.2.1, SVG Export Plug-In . SVG Version: 6.00 Build 0)  -->
<svg version="1.1" xmlns="http://www.w3.org/2000/svg" xmlns:xlink="http://www.w3.org/1999/xlink" x="0px" y="0px"
	 viewBox="0 0 100 100" style="enable-background:new 0 0 100 100;" xml:space="preserve">
<style type="text/css">
	.st0{fill:#010202;}
	.st1{fill:#1E1E1C;}
	.st2{fill:#F19730;}
	.st3{fill:#C81C21;}
	.st4{fill:#F7B14E;}
	.st5{fill:#232A55;}
	.st6{fill:#FFFFFF;}
	.st7{fill:#293167;}
	.st8{fill:#E29626;}
	.st9{fill:#090909;}
</style>
<g id="NEHC_Logo">
</g>
<g id="Sail_Waves">
	<g id="close">
	</g>
</g>
<g id="Bag">
</g>
<g id="User">
	<path class="st0" d="M50,16.7c9.2,0,16.7,7.5,16.7,16.7C66.7,42.5,59.2,50,50,50s-16.7-7.5-16.7-16.7C33.3,24.1,40.8,16.7,50,16.7z
		 M50,10c-12.9,0-23.3,10.4-23.3,23.3c0,12.9,10.4,23.3,23.3,23.3s23.3-10.5,23.3-23.3C73.3,20.4,62.9,10,50,10z M71.2,54.5
		c-1.7,1.7-3.5,3.1-5.5,4.3c9.6,6.2,14.6,16.9,16.6,24.5H17.7c1.9-7.6,6.9-18.3,16.6-24.5c-2-1.2-3.9-2.7-5.5-4.4
		C14.5,64.7,10,82.8,10,90h80C90,82.9,85.2,64.8,71.2,54.5z"/>
</g>
<g id="Burger_Menu">
</g>
<g id="Tick">
</g>
<g id="Instagram">
	<g id="instagram">
	</g>
</g>
<g id="Pinterest">
	<g id="pinterest">
	</g>
</g>
<g id="Tumblr">
</g>
<g id="Twitter">
</g>
<g id="Facebook">
</g>
<g id="Share">
</g>
<g id="Down_arrow">
	<g id="chevron-up">
	</g>
</g>
<g id="Edit">
</g>
</svg>
