<?xml version="1.0" encoding="utf-8"?>
<!-- Generator: Adobe Illustrator 19.2.1, SVG Export Plug-In . SVG Version: 6.00 Build 0)  -->
<svg version="1.1" id="Layer_1" xmlns="http://www.w3.org/2000/svg" xmlns:xlink="http://www.w3.org/1999/xlink" x="0px" y="0px"
	 viewBox="0 0 106.2 100" style="enable-background:new 0 0 106.2 100;" xml:space="preserve">
<style type="text/css">
	.st0{fill:#010202;}
</style>
<g id="NEHC_Logo">
</g>
<g id="Sail_Waves">
	<g id="close">
	</g>
</g>
<g id="Bag">
</g>
<g id="User">
	<path class="st0" d="M47.3,20.3c8.5,0,15.4,6.9,15.4,15.4c0,8.4-6.9,15.3-15.4,15.3s-15.4-6.9-15.4-15.4S38.8,20.3,47.3,20.3z
		 M47.3,14.1c-11.9,0-21.5,9.6-21.5,21.5s9.6,21.5,21.5,21.5s21.5-9.7,21.5-21.5C68.7,23.7,59.2,14.1,47.3,14.1z M66.8,55.1
		c-1.6,1.6-3.2,2.9-5.1,4c8.9,5.7,13.5,15.6,15.3,22.6H17.5c1.8-7,6.4-16.9,15.3-22.6c-1.8-1.1-3.6-2.5-5.1-4.1
		c-13.2,9.5-17.3,26.2-17.3,32.8h73.8C84.1,81.3,79.7,64.6,66.8,55.1z"/>
</g>
<g id="Burger_Menu">
</g>
<g id="Tick">
</g>
<g id="Instagram">
	<g id="instagram">
	</g>
</g>
<g id="Pinterest">
	<g id="pinterest">
	</g>
</g>
<g id="Tumblr">
</g>
<g id="Twitter">
</g>
<g id="Facebook">
</g>
<g id="Share">
</g>
<g id="Down_arrow">
	<g id="chevron-up">
	</g>
</g>
<g id="Edit">
</g>
<rect x="70.1" y="14" class="st0" width="25.5" height="6.1"/>
<rect x="79" y="26.2" class="st0" width="16.5" height="6.1"/>
<rect x="86.4" y="38.5" class="st0" width="9.3" height="6.1"/>
</svg>
