<?xml version="1.0" encoding="utf-8"?>
<!-- Generator: Adobe Illustrator 19.2.1, SVG Export Plug-In . SVG Version: 6.00 Build 0)  -->
<svg version="1.1" xmlns="http://www.w3.org/2000/svg" xmlns:xlink="http://www.w3.org/1999/xlink" x="0px" y="0px"
	 viewBox="0 0 100 100" style="enable-background:new 0 0 100 100;" xml:space="preserve">
<style type="text/css">
	.st0{fill:#010202;}
	.st1{fill:#1E1E1C;}
	.st2{fill:#F19730;}
	.st3{fill:#C81C21;}
	.st4{fill:#F7B14E;}
	.st5{fill:#232A55;}
	.st6{fill:#FFFFFF;}
	.st7{fill:#293167;}
	.st8{fill:#E29626;}
	.st9{fill:#090909;}
</style>
<g id="NEHC_Logo">
</g>
<g id="Sail_Waves">
	<g id="close">
		<g id="layer2">
			<rect id="rect1441" x="12.5" y="26.9" class="st7" width="75" height="12.2"/>
			<rect id="rect3194" x="12.5" y="60.8" class="st8" width="75" height="12.2"/>
			<path id="path3214" class="st7" d="M25.4,42l0-0.5l7.7,0.1l0.1,10.8l6.3-10.7l3.8,0L33.3,58.5H29c0,0-0.2-8.6-0.4-12.8
				C28.5,42.1,26.8,42.4,25.4,42z"/>
			<path id="path4089" class="st7" d="M39.5,58.5h4.4l5.5-17H45L39.5,58.5z"/>
			<path id="path4964" class="st7" d="M61.1,45.4c0,0-2.3-1.4-3.6-1.4c-0.8,0-2.3,0.7-2.3,2c0,2.7,4.9,2.6,4.9,6.9
				c0,2-1.1,5.9-7.1,5.9c-4.1,0-5.7-1.8-5.7-1.8l1.4-2.5c0,0,1.8,1.3,4.2,1.3c1.8,0,3-0.7,3-1.8c0-2.2-5.3-3.1-5.3-6.9
				c0-3.1,2.8-6,7.1-6c3.5,0,5.2,2.1,5.2,2.1L61.1,45.4z"/>
			<path id="path5839" class="st7" d="M73.8,41.7h-4.9l-9.2,16.9h3.9l1.7-3.4h5l0,3.4h4.2L73.8,41.7z M69.7,46.4l0.5,6h-3.7
				L69.7,46.4z"/>
		</g>
	</g>
</g>
<g id="Bag">
</g>
<g id="User">
</g>
<g id="Burger_Menu">
</g>
<g id="Tick">
</g>
<g id="Instagram">
	<g id="instagram">
	</g>
</g>
<g id="Pinterest">
	<g id="pinterest">
	</g>
</g>
<g id="Tumblr">
</g>
<g id="Twitter">
</g>
<g id="Facebook">
</g>
<g id="Share">
</g>
<g id="Down_arrow">
	<g id="chevron-up">
	</g>
</g>
<g id="Edit">
</g>
</svg>
