<?xml version="1.0" encoding="utf-8"?>
<!-- Generator: Adobe Illustrator 19.2.1, SVG Export Plug-In . SVG Version: 6.00 Build 0)  -->
<svg version="1.1" xmlns="http://www.w3.org/2000/svg" xmlns:xlink="http://www.w3.org/1999/xlink" x="0px" y="0px"
	 viewBox="0 0 100 100" style="enable-background:new 0 0 100 100;" xml:space="preserve">
<style type="text/css">
	.st0{fill:#010202;}
	.st1{fill:#1E1E1C;}
	.st2{fill:#F19730;}
	.st3{fill:#C81C21;}
	.st4{fill:#F7B14E;}
	.st5{fill:#232A55;}
	.st6{fill:#FFFFFF;}
	.st7{fill:#293167;}
	.st8{fill:#E29626;}
	.st9{fill:#090909;}
</style>
<g id="NEHC_Logo">
</g>
<g id="Sail_Waves">
	<g id="close">
	</g>
</g>
<g id="Bag">
</g>
<g id="User">
</g>
<g id="Burger_Menu">
</g>
<g id="Tick">
</g>
<g id="Instagram">
	<g id="instagram">
	</g>
</g>
<g id="Pinterest">
	<g id="pinterest">
	</g>
</g>
<g id="Tumblr">
</g>
<g id="Twitter">
</g>
<g id="Facebook">
</g>
<g id="Share">
</g>
<g id="Down_arrow">
	<g id="chevron-up">
	</g>
</g>
<g id="Edit">
	<g>
		<path class="st9" d="M82.4,9.6H17.6c-2.8,0-5.1,2.3-5.1,5.1v75.7H42h16h29.5V14.7C87.5,11.9,85.2,9.6,82.4,9.6z M83.5,86.4H58v-16
			H42v16H16.5V14.7c0-0.6,0.5-1.1,1.1-1.1h64.9c0.6,0,1.1,0.5,1.1,1.1V86.4z"/>
		<rect x="22.2" y="18.8" class="st9" width="16" height="11"/>
		<rect x="22.2" y="70.2" class="st9" width="16" height="11"/>
		<rect x="22.2" y="53.1" class="st9" width="16" height="11"/>
		<rect x="22.2" y="35.9" class="st9" width="16" height="11"/>
		<rect x="62" y="18.8" class="st9" width="16" height="11"/>
		<rect x="62" y="70.2" class="st9" width="16" height="11"/>
		<rect x="62" y="53.1" class="st9" width="16" height="11"/>
		<rect x="62" y="35.9" class="st9" width="16" height="11"/>
		<rect x="42" y="18.8" class="st9" width="16" height="11"/>
		<rect x="42" y="53.1" class="st9" width="16" height="11"/>
		<rect x="42" y="36" class="st9" width="16" height="11"/>
	</g>
</g>
</svg>
