<?xml version="1.0" encoding="utf-8"?><svg xmlns="http://www.w3.org/2000/svg" viewBox="0 0 100 100" width="100" height="100"><path d="M52.7 12s.1 0 0 0c14.7 1.9 23.6 17.4 18.4 31-2.7 7.1-7 13.2-11.8 19-3 3.6-6 7.1-9.1 10.6h-.3c-6.4-7.3-13-14.4-17.8-23-2.6-4.7-4.7-9.6-4.7-15.2.2-13 12.4-24 25.3-22.4zM50 65.4c5.7-6.4 11-12.8 14.8-20.3.9-1.8 1.7-3.8 2.3-5.8 2.5-8.8-2.1-18-10.5-21.4-8.3-3.4-17.9.1-22.2 8.1-3.2 5.8-2.7 11.7 0 17.6 3.8 8.2 9.6 15 15.6 21.8z"/><path d="M12.5 88.1c0-.3 0-.7.1-1 3-10.9 6.1-21.7 9.1-32.6.1-.3.2-.5.3-.9h8.7v4.7h-5.2c-2.3 8.3-4.6 16.6-7 24.9h62.7c-2.3-8.3-4.6-16.6-7-24.9H69v-4.7h8.9c1.1 4 2.2 8 3.4 12 2 7 3.9 14 5.9 21 .1.5.2 1 .3 1.4-25 .1-50 .1-75 .1zM59.5 33.5c-.1 5.3-4.4 9.5-9.7 9.4-5.2-.1-9.5-4.4-9.4-9.7.1-5.2 4.4-9.4 9.6-9.3 5.3 0 9.6 4.3 9.5 9.6zm-4.7-.2c0-2.6-2.2-4.7-4.8-4.7s-4.7 2.1-4.7 4.7c0 2.7 2.2 4.8 4.9 4.8 2.5 0 4.6-2.2 4.6-4.8z"/></svg>