<svg xmlns="http://www.w3.org/2000/svg" viewBox="0 0 100 100"><style>.st0{fill:#010202}.st1{fill:#1e1e1c}.st2{fill:#f19730}.st3{fill:#c81c21}.st4{fill:#f7b14e}.st5{fill:#232a55}.st6{fill:#fff}.st7{fill:#293167}.st8{fill:#e29626}.st9{fill:#090909}</style><g id="Sail_Waves"><g id="close"><path class="st0" d="M50 10c-22.1 0-40 17.9-40 40s17.9 40 40 40 40-17.9 40-40-17.9-40-40-40zm0 74.7c-19.1 0-34.7-15.6-34.7-34.7S30.9 15.3 50 15.3 84.7 30.9 84.7 50 69.1 84.7 50 84.7z"/><path class="st0" d="M50 58.6c1.7 0 3.1-1.4 3.1-3.1v-24c0-1.7-1.4-3.1-3.1-3.1-1.7 0-3.1 1.4-3.1 3.1v23.9c0 1.8 1.4 3.2 3.1 3.2z"/><circle class="st0" cx="50" cy="68.2" r="3.4"/></g></g></svg>