<svg xmlns="http://www.w3.org/2000/svg" viewBox="0 0 100 100"><style>.st0{fill:#010202}.st1{fill:#1e1e1c}.st2{fill:#0472b3}.st3{fill:#f19730}.st4{fill:#c81c21}.st5{fill:#f7b14e}.st6{fill:#232a55}.st7{fill:#fff}.st8{fill:#293167}.st9{fill:#e29626}.st10{fill:#090909}</style><g id="Sail_Waves"><g id="close"><path class="st2" d="M12.6 26.6v47h75v-47h-75zm62.2 23.2c2.1 2.3 4.1 4.6 6.2 6.8.2.2.3.4.5.6h-9.1c-.2 0-.4-.1-.5-.2-.6-.7-1.2-1.3-1.7-2-.1-.2-.2-.2-.4 0-.6.7-1.2 1.3-1.8 2-.2.2-.3.3-.6.3H32.6c-.5 0-.5 0-.7-.4-.3-.6-.5-1.2-.7-1.8-.1-.2-.2-.3-.4-.3H29c-.2 0-.3.1-.4.3-.3.7-.5 1.3-.8 2-.1.2-.2.3-.4.3H19.5c.3-.8.6-1.5.9-2.1 1.1-2.4 2.1-4.8 3.2-7.3.9-2 1.8-4 2.6-6 .1-.2.2-.2.4-.2h15.5c.2 0 .3.1.4.3.5 1.1 1 2.3 1.5 3.4 0 .1.1.2.2.3.2-.3.3-.6.4-.9l1.2-2.7c.1-.2.2-.3.5-.3h21.3c.2 0 .4.1.5.2.6.7 1.1 1.3 1.7 2l.2.2.4-.4c.6-.6 1.1-1.2 1.7-1.8.1-.1.2-.2.4-.2H81.8c-.3.3-.5.6-.8.9-2.1 2.2-4.1 4.4-6.2 6.6-.3.1-.3.1 0 .4z"/><path class="st2" d="M51.7 43.9h-3.8c-.2 0-.3.1-.4.2-.9 2.2-1.9 4.5-2.9 6.7l-.3.6h-.1c-.1-.3-.3-.5-.4-.8-1-2.1-2-4.3-3-6.4-.1-.2-.2-.3-.5-.3h-3.6c-.4 0-.4 0-.4.4v10.1c-.1-.1-.2-.1-.2-.2-.5-1.1-.9-2.1-1.4-3.2-1-2.3-1.9-4.5-2.9-6.8-.1-.2-.2-.3-.4-.3h-3.3c-.3 0-.4.1-.5.3-1.4 3.4-2.9 6.8-4.4 10.2-.1.2-.1.3-.2.5h2.4c.2 0 .3-.1.4-.3.3-.7.5-1.3.8-2 .1-.2.2-.3.4-.3h5c.3 0 .4.1.5.3.2.6.5 1.3.8 1.9.1.2.2.3.5.3h4.6c.4 0 .4 0 .4-.4v-8-.4h.1c.1.1.1.2.2.4l3.6 8.1c.1.2.2.2.4.2h1.7c.2 0 .3-.1.4-.3 1-2.3 2.1-4.6 3.1-6.9.2-.5.4-1 .7-1.5h.1v8.4c0 .2.1.3.3.3h2.1c.2 0 .3-.1.3-.3V43.9c.2.1.1 0-.1 0zm-20.2 6.4h-3.3c-.2 0-.3-.1-.2-.3.6-1.4 1.1-2.7 1.7-4.1 0-.1.1-.1.1-.2.1.1.1.1.1.2.6 1.4 1.1 2.7 1.7 4.1.1.2.1.3-.1.3zM75.5 45.1c.3-.3.6-.7 1-1.1h-2.9c-.3 0-.5.1-.7.3-1 1-1.9 2.1-2.9 3.1-.3.3-.3.3-.6 0-.7-.8-1.5-1.7-2.1-2.5-.5-.6-1-.9-1.8-.9H54.7c-.2 0-.4 0-.4.3v10.5c0 .2.1.3.3.3h11.3c.2 0 .4-.1.6-.2 1-1.1 2-2.1 2.9-3.2.3-.3.3-.3.6 0 1 1.1 1.9 2.2 2.9 3.2.1.1.3.2.4.2h2c.3 0 .7 0 1-.1-.1-.2-.2-.3-.3-.4-1.5-1.6-2.9-3.2-4.4-4.8-.2-.2-.2-.3 0-.5l3.9-4.2zm-7.6 4.6c-1.4 1.5-2.8 3-4.3 4.5l-.3.3h-.1v-1c0-.6 0-.6-.6-.6h-5.3c-.3 0-.4-.1-.4-.4v-1.6c0-.3.1-.3.3-.3h5.5c.3 0 .4-.1.4-.3v-1.5c0-.3-.1-.3-.3-.3h-5.3c-.5 0-.5 0-.5-.5v-1.3c0-.3.1-.4.4-.4h5.5c.5 0 .5 0 .5-.4v-1.5c.1.1.2.2.3.2 1.5 1.6 2.9 3.2 4.4 4.8 0 0 0 .1-.2.3z"/></g></g></svg>