<svg data-name="Layer 1" xmlns="http://www.w3.org/2000/svg" viewBox="0 0 417.74 120.3"><title>beautii-logo.colors-iconCol01-iconCol02</title><path d="M316.44 82.08a25.34 25.34 0 1 1-50.68 0V43.26H253.4v38.82a37.7 37.7 0 1 0 75.4 0V43.26h-12.36v38.82zM77.26 81.6zM50.71 46.22a28.47 28.47 0 0 0 6.15-17.73v-.05A28.26 28.26 0 0 0 28.77 0H0v119.9h39.44a37.68 37.68 0 0 0 11.27-73.68zM11.12 12.36h17.65a16.07 16.07 0 0 1 0 32.14H11.12V12.36zm28.31 95.18H11.12V56.86h28.32a25.34 25.34 0 1 1 0 50.68zM359.7 17.56l-12.36 3.36v22.34h-7.42v11.13h7.42v65.51h12.36V54.39h14.84V43.26H359.7v-25.7zM123.24 44.1a36.47 36.47 0 0 0-26.89 11.14 37 37 0 0 0-11.06 27.11 37.77 37.77 0 0 0 37.95 37.95 36.6 36.6 0 0 0 26.88-11.06 37.05 37.05 0 0 0 8.79-13.56l-11.81-3.19a26.3 26.3 0 0 1-5.44 8.69 24.07 24.07 0 0 1-18.44 7.76c-7.48 0-13.62-2.3-18.44-7.48a28.29 28.29 0 0 1-7-14.93H161c.1-1.24.15-2.67.15-3.89a37.67 37.67 0 0 0-11.06-27.4 36.48 36.48 0 0 0-26.85-11.14zM98.4 75.4a31.08 31.08 0 0 1 6.4-12q7.22-7.76 18.44-7.74a24.13 24.13 0 0 1 18.44 7.81 30.85 30.85 0 0 1 6.4 12H98.4zM232.38 55c-7.42-7.3-15.64-11-26.1-11a35.81 35.81 0 0 0-26.58 11.17c-7.37 7.43-10.91 16.46-10.91 27.12a36.67 36.67 0 0 0 11.14 26.88c7.37 7.37 15.78 11.06 26.33 11.06s18.72-3.63 26.14-10.88v10.55h11.12V43.26h-11.14V55zm-7.07 46.12a25.78 25.78 0 0 1-36.87 0 26.81 26.81 0 0 1-7.22-19 26.82 26.82 0 0 1 7.22-19 25.78 25.78 0 0 1 36.87 0 26.82 26.82 0 0 1 7.22 19 26.82 26.82 0 0 1-7.21 18.98z" fill="#231f20" fill-rule="evenodd"/><path fill="#231f20" d="M383.02 43.26h12.36v76.64h-12.36z"/><circle cx="389.2" cy="27.08" r="6.18" fill="#231f20"/><path fill="#231f20" d="M405.38 43.26h12.36v76.64h-12.36z"/><circle cx="411.56" cy="27.08" r="6.18" fill="#231f20"/></svg>