<?xml version="1.0" encoding="utf-8"?><svg xmlns="http://www.w3.org/2000/svg" viewBox="0 0 417.7 120.3" width="417.7" height="120.3"><title>beautii-logo.colors-iconCol01-iconCol02</title><path d="M316.4 82.1c0 14-11.3 25.3-25.3 25.4-14 0-25.3-11.3-25.4-25.3V43.3h-12.4v38.8c0 20.8 16.9 37.7 37.7 37.7 20.8 0 37.7-16.9 37.7-37.7V43.3h-12.4v38.8zM77.3 81.6zM50.7 46.2c4-5 6.2-11.3 6.2-17.7v-.1C57 12.8 44.4.1 28.8 0H0v119.9h39.4c20.8.1 37.7-16.7 37.8-37.5.1-16.6-10.7-31.3-26.5-36.2zM11.1 12.4h17.7c8.9 0 16.1 7.2 16.1 16.1s-7.2 16.1-16.1 16.1H11.1V12.4zm28.3 95.1H11.1V56.9h28.3c14 0 25.3 11.3 25.3 25.3.1 14-11.3 25.3-25.3 25.3zM359.7 17.6l-12.4 3.3v22.4h-7.4v11.1h7.4v65.5h12.4V54.4h14.8V43.3h-14.8zM123.2 44.1c-10.1-.2-19.9 3.9-26.9 11.1C89 62.3 85 72.1 85.2 82.3c-.1 20.9 16.7 37.9 37.6 38h.4c10.1.2 19.8-3.8 26.9-11.1 3.9-3.8 6.9-8.4 8.8-13.6l-11.8-3.2c-1.2 3.2-3.1 6.2-5.4 8.7-4.7 5.1-11.5 8-18.4 7.8-7.5 0-13.6-2.3-18.4-7.5-3.8-4.2-6.2-9.4-7-14.9H161c.1-1.2.1-2.7.1-3.9.2-10.3-3.8-20.2-11.1-27.4-6.9-7.2-16.7-11.3-26.8-11.1zM98.4 75.4c1.2-4.4 3.4-8.5 6.4-12 4.8-5.2 11-7.8 18.4-7.7 7-.2 13.7 2.7 18.4 7.8 3 3.5 5.2 7.6 6.4 12l-49.6-.1zM232.4 55c-7.4-7.3-15.6-11-26.1-11-10-.2-19.7 3.9-26.6 11.2-7.4 7.4-10.9 16.5-10.9 27.1-.2 10.1 3.9 19.8 11.1 26.9 7.4 7.4 15.8 11.1 26.3 11.1s18.7-3.6 26.1-10.9V120h11.1V43.3h-11.1V55zm-7.1 46.1c-10 10.2-26.3 10.4-36.5.4l-.4-.4c-4.8-5.1-7.4-12-7.2-19-.2-7 2.4-13.9 7.2-19 10-10.2 26.3-10.4 36.5-.4l.4.4c4.8 5.1 7.4 12 7.2 19 .2 7-2.4 13.9-7.2 19zM383 43.3h12.4v76.6H383z"/><circle cx="389.2" cy="27.1" r="6.2"/><path d="M405.4 43.3h12.4v76.6h-12.4z"/><circle cx="411.6" cy="27.1" r="6.2"/></svg>