<?xml version="1.0" encoding="utf-8"?><svg xmlns="http://www.w3.org/2000/svg" viewBox="0 0 100 100" width="100" height="100"><path d="M86.9 54.2l-31-31.1c-1.6-1.6-3.8-2.6-6.1-2.6h-.6L26.7 22c-2.4.2-4.4 2.1-4.6 4.6l-.5 8c-1.1-.7-2.2-1.5-3.2-2.5-2.4-2.4-3.9-5.4-4.2-8.4-.3-2.9.5-5.5 2.3-7.2 3.8-3.8 10.8-3 15.7 1.9.8.8 2.1.8 2.9 0 .8-.8.8-2.1 0-2.9C28.7 9 19 8.2 13.6 13.6c-2.7 2.7-3.9 6.4-3.5 10.6.4 4 2.3 7.9 5.4 10.9 1.7 1.7 3.7 3.1 5.9 4l-.7 10c-.2 2.5.8 5 2.5 6.7l31.1 31.1c2 2 4.6 3 7.4 3 2.8 0 5.4-1.1 7.4-3l18-18c2-2 3-4.6 3-7.4-.1-2.7-1.2-5.3-3.2-7.3zM84 66L66 84c-1.2 1.2-2.7 1.8-4.4 1.8-1.7 0-3.2-.7-4.4-1.8L26.1 52.9c-.9-.9-1.4-2.2-1.3-3.5l.6-9c.3.1.7.1 1 .1.5.1 1 .1 1.5.1 3.5 0 6.7-1.2 9-3.6.8-.8.8-2.1 0-2.9s-2.1-.8-2.9 0c-1.8 1.8-4.4 2.6-7.2 2.3-.4 0-.8-.1-1.2-.2l.6-9.3c0-.4.3-.7.7-.7l22.5-1.5h.3c1.2 0 2.4.5 3.2 1.3l31 31c1.2 1.2 1.8 2.7 1.8 4.4.1 1.8-.5 3.4-1.7 4.6z"/></svg>