<?xml version="1.0" encoding="utf-8"?><svg xmlns="http://www.w3.org/2000/svg" viewBox="0 0 100 100" width="100" height="100"><style>.afst0{fill:none}</style><path class="afst0" d="M76.6 60.6c1.3-.4 2.1-1.7 1.8-3l-.6-2.1-9.6 2.8v4.8l8.4-2.5zM68.1 40.3v10.8l7.6-2.2-7.1-24.6c-.4-1.3-1.8-2-3.1-1.6L36.8 31h21.9c5.2 0 9.4 4.2 9.4 9.3z"/><path d="M85 55.7l-9.7-33.4c-1.4-4.9-6.7-7.8-11.7-6.3l-33.2 9.6c-2.8.8-5 2.9-6.1 5.4h12.4l28.8-8.3c1.3-.4 2.7.3 3.1 1.6l7.1 24.6-7.6 2.2v7.2l9.6-2.8.6 2.1c.4 1.3-.4 2.6-1.8 3L68.1 63v7.2l10.3-3c5.1-1.4 8-6.6 6.6-11.5z"/><path d="M58.7 31H24.1c-5.2 0-9.5 4.2-9.5 9.3V75c0 5.1 4.2 9.3 9.5 9.3h34.6c5.2 0 9.5-4.2 9.5-9.3V40.3c-.1-5.1-4.3-9.3-9.5-9.3zm2.5 44c0 1.3-1.1 2.4-2.5 2.4H24.1c-1.4 0-2.5-1.1-2.5-2.4v-2.2h39.6V75zm0-14.7v4.8l-3 .9H21.6V40.3c0-1.3 1.1-2.4 2.5-2.4h34.5c1.4 0 2.5 1.1 2.5 2.4v20z"/></svg>