<?xml version="1.0" encoding="utf-8"?><svg xmlns="http://www.w3.org/2000/svg" viewBox="0 0 100 100" width="100" height="100"><title>Calendar</title><path d="M20.1 69.2c-.4 0-.8-.2-1.1-.4-.6-.6-.9-1.4-.8-2.2 0-8.7.2-17.4 0-26.1-.1-2.8 1-3.4 3.6-3.4h45.6c7.5 0 7.3 0 7.5-7.6.2-5.2-3.1-6.7-7.1-6.8h-2.3V12.5h-5.9v14.3c0 .5-.3 1.1-.7 1.4l-.4.2h-.7c-.9 0-1.7-.7-1.8-1.6v-4.7H34.3v-9.6h-5.9v14.6c-.3 1-1.2 1.5-2.2 1.3-.7-.2-1.2-.7-1.3-1.4v-4.3h-4.6c-1.5 0-3 .3-4.4.8-2.9 1.3-3.4 4-3.4 6.9V67.1c-.2 1.4.1 2.9.8 4.2 1.5 2.3 4.2 3.7 7 3.5 1.5 0 16.5.1 16.5-.2v-5.3c0-.3-15.3.2-16.7-.1z"/><path d="M66 44.5c-11.7-.7-21.4 10.2-21.7 20.6s7.9 22.4 21.4 22.4 21.7-8.9 21.7-21.6c.3-11.5-8.8-21.1-20.4-21.4h-1zM65.9 82c-10.7 0-16.2-9-16-16.7S57 49.2 66.1 50 82.2 57.1 82 65.8 75.3 82 65.9 82z"/><path d="M68.9 54h-5.4V68.7h5.4v-.1h5.6v-5.3h-5.6z"/></svg>