<?xml version="1.0" encoding="utf-8"?><svg xmlns="http://www.w3.org/2000/svg" viewBox="0 0 100 100" width="100" height="100"><path d="M43 16.6l8.9-4.1 12.6 24.7-8.5 4.1c-1.7 3.9 6.7 19.7 10.3 19.9.3-.2 8.4-4.1 8.4-4.1l12.8 24.8s-8.6 4.2-8.9 4.4C54 97.5 18.9 29.2 43 16.6zm6 4l-3.2 1.6C29.3 30.8 58.9 88.4 76 80.6l3-1.5-7.1-13.7-3.2 1.6c-9.9 4.8-25.8-25.7-15.8-31.1l3.1-1.6c.1.1-7-13.7-7-13.7zm-2.3 57.5c-4.6 4.5-12.2 5.3-14.4 1.6-1.5-2.5-1-5.4-.4-8.7.6-3.6 1.3-7.7-.9-11.6-3.8-6.5-12.2-6.2-18.5-2.1l3 4.6c2.6-1.7 5.6-2.4 7.8-1.9 5.2 1.2 3.6 7.9 3.2 10.1-.7 3.8-1.4 8.2 1.1 12.4 4.2 7.2 15.8 6.4 22.8-.3-1.3-1.3-2.5-2.7-3.7-4.1z"/></svg>