<svg xmlns="http://www.w3.org/2000/svg" viewBox="0 0 100 100"><style>.st0{fill:#010202}.st1{fill:#1e1e1c}.st2{fill:#006fb5}.st3{fill:#f4981a}.st4{fill:#cc1417}.st5{fill:#f9b343}.st6{fill:#232856}.st7{fill:#fff}.st8{fill:#292e69}.st9{fill:#e49707}.st10{fill:#1e201d}.st11{fill:none;stroke:#000;stroke-width:3;stroke-miterlimit:10}.st12{fill:#090909}</style><g id="User"><path class="st0" d="M80.8 25.1H68.5l-.9-3.2v-.1c-.5-2.3-2.6-3.9-5-3.9H37.4c-2.4 0-4.5 1.6-5 3.9l-1 3.3H19.2c-5.4 0-9.7 4.4-9.7 9.7v37.5c0 5.4 4.4 9.7 9.7 9.7h61.5c5.4 0 9.7-4.4 9.7-9.7V34.9c.1-5.4-4.3-9.8-9.6-9.8zM37.4 22h25.2c.5 0 .9.3 1 .8l1.8 6.4h15.3c3.1 0 5.7 2.5 5.7 5.7v37.5c0 3.1-2.5 5.7-5.7 5.7H19.2c-3.1 0-5.7-2.5-5.7-5.7V34.9c0-3.1 2.5-5.7 5.7-5.7h15.2l1.9-6.4c.2-.5.6-.8 1.1-.8z"/><circle class="st0" cx="78.8" cy="37.3" r="3.3"/><path class="st0" d="M50 72.8c11.1 0 20.1-9 20.1-20.1 0-11.1-9-20.1-20.1-20.1-11.1 0-20.1 9-20.1 20.1 0 11.1 9 20.1 20.1 20.1zM34 52.7c0-8.8 7.2-16 16-16s16 7.2 16 16-7.2 16-16 16-16-7.2-16-16z"/></g></svg>