<svg xmlns="http://www.w3.org/2000/svg" viewBox="0 0 100 100"><style>.st0{fill:#010202}.st1{fill:#1e1e1c}.st2{fill:#f19730}.st3{fill:#c81c21}.st4{fill:#f7b14e}.st5{fill:#232a55}.st6{fill:#fff}.st7{fill:#293167}.st8{fill:#e29626}.st9{fill:#090909}</style><g id="Sail_Waves"><g id="close"><path class="st0" d="M74.2 12.5H25.8c-7.3 0-13.3 6-13.3 13.3v48.4c0 7.3 6 13.3 13.3 13.3h48.4c7.3 0 13.3-6 13.3-13.3V25.8c0-7.3-6-13.3-13.3-13.3zm9.5 61.7c0 5.2-4.3 9.5-9.5 9.5H25.8c-5.2 0-9.5-4.3-9.5-9.5V25.8c0-5.2 4.3-9.5 9.5-9.5h48.4c5.2 0 9.5 4.3 9.5 9.5v48.4z"/><path class="st0" d="M45 74.9L21.9 57.1l-2.3 3L46 80.5l34.9-57.2-3.2-1.9z"/></g></g></svg>