<svg xmlns="http://www.w3.org/2000/svg" viewBox="0 0 100 100"><style>.st0{fill:#010202}.st1{fill:#1e1e1c}.st2{fill:#f19730}.st3{fill:#c81c21}.st4{fill:#f7b14e}.st5{fill:#232a55}.st6{fill:#fff}.st7{fill:#293167}.st8{fill:#e29626}.st9{fill:#090909}</style><g id="Sail_Waves"><g id="close"><path class="st0" d="M50 10c-22.1 0-40 17.9-40 40s17.9 40 40 40 40-17.9 40-40-17.9-40-40-40zm0 74.7c-19.1 0-34.7-15.6-34.7-34.7S30.9 15.3 50 15.3 84.7 30.9 84.7 50 69.1 84.7 50 84.7z"/><path class="st0" d="M70.8 31.9c-.6-.5-1.3-.7-2.1-.6-.8.1-1.4.5-1.9 1.1L43.5 61.8l-10.8-8.5c-.6-.5-1.4-.7-2.1-.6-.7.1-1.4.5-1.9 1.1-.5.6-.7 1.4-.6 2.1.1.8.5 1.4 1.1 1.9l13 10.2a3 3 0 0 0 4.1-.5l25-31.7c.5-.6.7-1.4.6-2.1-.1-.6-.5-1.3-1.1-1.8z"/></g></g></svg>