<?xml version="1.0" encoding="utf-8"?><svg xmlns="http://www.w3.org/2000/svg" viewBox="0 0 100 100" width="100" height="100"><path d="M50 10c-22.1 0-40 17.9-40 40s17.9 40 40 40 40-17.9 40-40-17.9-40-40-40zm0 74.7c-19.1 0-34.7-15.6-34.7-34.7S30.9 15.3 50 15.3 84.7 30.9 84.7 50 69.1 84.7 50 84.7z"/><path d="M70.8 31.9c-.6-.5-1.3-.7-2.1-.6-.8.1-1.4.5-1.9 1.1L43.5 61.8l-10.8-8.5c-.6-.5-1.4-.7-2.1-.6-.7.1-1.4.5-1.9 1.1s-.7 1.4-.6 2.1c.1.8.5 1.4 1.1 1.9l13 10.2a3 3 0 0 0 4.1-.5l25-31.7c.5-.6.7-1.4.6-2.1-.1-.6-.5-1.3-1.1-1.8z"/></svg>