<svg xmlns="http://www.w3.org/2000/svg" viewBox="0 0 100 100"><style>.st0{fill:#010202}.st1{fill:#1e1e1c}.st2{fill:#f19730}.st3{fill:#c81c21}.st4{fill:#f7b14e}.st5{fill:#232a55}.st6{fill:#fff}.st7{fill:#293167}.st8{fill:#e29626}.st9{fill:#090909}</style><g id="Sail_Waves"><g id="close"><path d="M50 10c-22.1 0-40 17.9-40 40s17.9 40 40 40 40-17.9 40-40-17.9-40-40-40zm0 74.7c-19.1 0-34.7-15.6-34.7-34.7S30.9 15.3 50 15.3 84.7 30.9 84.7 50 69.1 84.7 50 84.7z"/><path d="M48.4 60.4c.4-.5.6-1.1.8-1.6.2-.5.3-1 .4-1.5.1-.5.1-.9.1-1.3 0-.8-.1-1.6-.2-2.4-.1-.5-.2-.9-.3-1.4h5.2v-3.9h-6.8c-.3-.7-.6-1.4-.8-2.2-.3-.8-.4-1.8-.4-2.9 0-1.4.4-2.4 1.2-3.2.8-.8 1.9-1.2 3.4-1.2s2.7.1 3.7.4c1 .2 1.8.5 2.4.8l.5.2 1.4-3.9-.4-.2c-.8-.4-1.9-.7-3.2-1-1.3-.3-2.8-.4-4.4-.4-2.8 0-5 .7-6.6 2.2-1.6 1.5-2.5 3.6-2.5 6.5 0 1.2.1 2.2.3 3.1.2.6.3 1.2.6 1.7h-2.5v3.9h4.1c.2.5.4 1.1.5 1.7.2.7.3 1.5.3 2.3 0 .6-.1 1.2-.3 1.8-.2.6-.4 1.1-.8 1.6-.3.4-.8.8-1.4 1.1-.5.3-1.2.4-2 .4h-.5v4h19.3v-4H47.9c.2-.2.4-.4.5-.6z"/></g></g></svg>