<?xml version="1.0" encoding="utf-8"?><svg xmlns="http://www.w3.org/2000/svg" viewBox="0 0 100 100" width="100" height="100"><path d="M67.5 35.8c-1.1-1.4-2.7-2.2-4.4-2.4-1.7-.2-3.4.3-4.8 1.4l-1.9 1.6-.9.7-18.9 15.2c-.1.1-.2.2-.3.4l-5.7 11.8c-.2.4-.1.8.1 1.2.2.2.5.4.8.4h.3l11.4-2.3c.2 0 .3-.1.5-.2L66.5 45c1.4-1.1 2.2-2.7 2.4-4.4.2-1.8-.3-3.5-1.4-4.8zM42.2 61.7l-1.6.3-2.6.5c-.2-.7-.5-1.4-.9-2-.4-.5-.9-.9-1.4-1.2l1.1-2.2 1.1-2.2.1-.3c.7.4 1.6 1 2.5 1.8.4.4.8 1 1.2 1.6.5.9.8 1.9.8 3.1v.4l-.3.2z"/><path d="M50 14c19.9 0 36 16.1 36 36S69.9 86 50 86 14 69.9 14 50s16.1-36 36-36m0-4c-22.1 0-40 17.9-40 40s17.9 40 40 40 40-17.9 40-40-17.9-40-40-40z"/></svg>