<svg xmlns="http://www.w3.org/2000/svg" viewBox="0 0 100 100"><style>.st0{fill:#010202}.st1{fill:#1e1e1c}.st2{fill:#f19730}.st3{fill:#c81c21}.st4{fill:#f7b14e}.st5{fill:#232a55}.st6{fill:#fff}.st7{fill:#293167}.st8{fill:#e29626}.st9{fill:#090909}</style><g id="Edit"><path class="st0" d="M75.1 49.3c-1.2 0-2.2.9-2.2 2.2V81H57.6V68.9c0-1.1-.9-2.1-2.1-2.1h-11c-1.2 0-2.2 1-2.2 2.1V81H27V52.4c0-1.1-.9-2.1-2.2-2.1-1.1 0-2.1.9-2.1 2.1v30.7c0 1.1.9 2.1 2.1 2.1h19.7c1.1 0 2.1-.9 2.1-2.1v-12h6.8v12.1c0 1.1.9 2.1 2.2 2.1h19.6c1.1 0 2.1-.9 2.1-2.1V51.5c-.1-1.3-1-2.2-2.2-2.2z"/><path class="st0" d="M86.9 51L69.8 33.9V22.2c0-1.2-1-2.2-2.2-2.2-1.1 0-2.1.9-2.1 2.2v7.4l-14-14.2c-.5-.4-1-.7-1.5-.7-.6 0-1.1.2-1.5.7L13.2 50.7c-.8.8-.9 2.2 0 3 .8.9 2.1.8 3 0L50 19.9 83.8 54c.4.4.9.6 1.5.6s1.1-.2 1.5-.6c.9-.7.9-2.2.1-3z"/></g></svg>