<svg xmlns="http://www.w3.org/2000/svg" viewBox="0 0 100 100"><style>.st0{fill:#010202}.st1{fill:#1e1e1c}.st2{fill:#f19730}.st3{fill:#c81c21}.st4{fill:#f7b14e}.st5{fill:#232a55}.st6{fill:#fff}.st7{fill:#293167}.st8{fill:#e29626}.st9{fill:#090909}</style><g id="Sail_Waves"><g id="close"><path class="st1" d="M38.3 32.8c0 6.4 5.2 11.7 11.7 11.7s11.7-5.2 11.7-11.7S56.4 21.1 50 21.1s-11.7 5.2-11.7 11.7zm19.6 0c0 4.4-3.5 7.9-7.9 7.9s-7.9-3.5-7.9-7.9 3.5-7.9 7.9-7.9 7.9 3.5 7.9 7.9zM73.5 58.7c-.9-.8-2-1.5-3.2-2-1.6-.7-3.4-1.1-5.3-1.1-7.1 0-12.8 5.7-12.8 12.8 0 3.4 1.4 6.5 3.5 8.8.9.9 1.9 1.7 3 2.3 1.9 1.1 4 1.7 6.3 1.7 7.1 0 12.8-5.7 12.8-12.8.1-3.9-1.6-7.4-4.3-9.7zm-8.4 18.7c-1.5 0-2.9-.4-4.1-1-1.2-.6-2.2-1.4-3-2.4-1.3-1.6-2-3.5-2-5.7 0-5 4.1-9.1 9.1-9.1 1.1 0 2.1.2 3 .5.3.1.6.2.9.4.3.1.5.3.8.4.3.2.5.3.7.5.2.2.5.4.7.6 1.7 1.7 2.8 4 2.8 6.6.1 5.1-3.9 9.2-8.9 9.2z"/><circle class="st1" cx="65.1" cy="68.3" r="4.2"/><path class="st1" d="M50 85.4L29 55.7c-7.9-10.3-6.8-27.3 2.4-36.4 5.1-5 11.9-7.5 18.6-7.5 6.7 0 13.5 2.5 18.6 7.5 9.1 8.9 10.3 25.5 2.7 36l3.2 2c8.5-11.8 7.1-30.6-3.3-40.7-11.7-11.4-30.7-11.4-42.4 0C18.3 27 17 46.3 26 58l24 33.9 7.9-11.1-3-2.2-4.9 6.8z"/></g></g></svg>