<svg xmlns="http://www.w3.org/2000/svg" viewBox="0 0 30 18"><path d="M15 3.467c1.803 0 2.018.007 2.729.039 1.828.083 2.685.951 2.768 2.767.03.712.036.925.036 2.727 0 1.803-.006 2.016-.038 2.729-.084 1.813-.937 2.684-2.767 2.767-.713.032-.926.039-2.729.039-1.802 0-2.016-.007-2.728-.039-1.833-.084-2.684-.956-2.767-2.767-.031-.711-.038-.926-.038-2.729 0-1.802.007-2.015.039-2.728.084-1.815.936-2.684 2.767-2.767.713-.031.926-.038 2.728-.038zm0-1.217c-1.833 0-2.063.008-2.783.041-2.451.112-3.814 1.472-3.926 3.926-.033.72-.041.95-.041 2.783s.008 2.063.041 2.782c.112 2.452 1.473 3.813 3.926 3.928.72.032.95.04 2.783.04s2.063-.008 2.782-.04c2.45-.112 3.815-1.474 3.928-3.928.032-.72.04-.949.04-2.782s-.008-2.063-.04-2.783c-.11-2.449-1.474-3.814-3.926-3.926-.721-.033-.951-.041-2.784-.041zm0 3.284a3.466 3.466 0 1 0 0 6.933 3.466 3.466 0 0 0 0-6.933zm0 5.716a2.25 2.25 0 1 1 0-4.5 2.25 2.25 0 0 1 0 4.5zm3.604-6.663a.812.812 0 1 0 .001 1.623.812.812 0 0 0-.001-1.623z"/></svg>