<?xml version="1.0" encoding="utf-8"?><svg xmlns="http://www.w3.org/2000/svg" viewBox="0 0 100 100" width="100" height="100"><path d="M50.4 62.7c-6.9 0-12.5-5.6-12.5-12.5s5.6-12.5 12.5-12.5 12.5 5.6 12.5 12.5-5.6 12.5-12.5 12.5zm15-22.9c-6.1-8.1-11.5-7.1-15.4-7.1s-10.3-.3-15.2 6.7H12.5v-8.1c0-10.4 8.4-18.8 18.7-18.8h37.5c10.3 0 18.7 8.4 18.7 18.8v8.5h-22zm10.9-19.1c0-1.1-.9-2.1-2.1-2.1h-6.4c-1.1 0-2.1.9-2.1 2.1v6.4c0 1.1.9 2.1 2.1 2.1h6.4c1.2 0 2.1-.9 2.1-2.1v-6.4zm-7.5 66.8H31.2c-10.3 0-18.7-8.4-18.7-16.6V44.4h21.4c-1.1 2.3-1.4 2.7-1.4 5.4 0 9.8 8 18.7 17.8 18.7s17.8-8.8 17.8-18.7c0-2.7-.6-3.1-1.7-5.4h21v24.4c.1 10.3-8.3 18.7-18.6 18.7z"/></svg>