<?xml version="1.0" encoding="utf-8"?><svg data-name="Layer 1" xmlns="http://www.w3.org/2000/svg" viewBox="0 0 82.47 77.48" width="82.47" height="77.48"><title>logged-out</title><path d="M36.15 47.58A21.55 21.55 0 1 1 57.7 26.05a21.57 21.57 0 0 1-21.55 21.53zm0-38.45a16.9 16.9 0 1 0 16.9 16.9 16.92 16.92 0 0 0-16.9-16.88zM82.47 7.13h-7.13V0h-4.65v7.13h-7.13v4.65h7.13v7.13h4.65v-7.13h7.13V7.13z"/><path d="M69.97 77.49H2.33A2.32 2.32 0 0 1 0 75.16c0-15 5.67-25.19 17.33-31.12a2.323 2.323 0 0 1 2.11 4.14C9.95 53.01 5.23 60.88 4.7 72.83h62.9c-.53-11.95-5.25-19.82-14.7-24.64a2.33 2.33 0 1 1 2.11-4.14c11.62 5.92 17.29 16.1 17.29 31.11a2.33 2.33 0 0 1-2.33 2.33z"/></svg>