<?xml version="1.0" encoding="utf-8"?><svg id="bmLayer_1" xmlns="http://www.w3.org/2000/svg" viewBox="0 0 100 100" width="100" height="100"><style>.bmst0{fill:#010202}</style><path class="bmst0" d="M48.8 19.4c8.5 0 15.4 6.9 15.4 15.4 0 8.4-6.9 15.3-15.4 15.3s-15.4-6.9-15.4-15.4 6.9-15.3 15.4-15.3zm0-6.2c-11.9 0-21.5 9.6-21.5 21.5s9.6 21.5 21.5 21.5 21.5-9.7 21.5-21.5c0-11.9-9.6-21.5-21.5-21.5zm19.5 41c-1.6 1.6-3.2 2.9-5.1 4 8.9 5.7 13.5 15.6 15.3 22.6H19c1.8-7 6.4-16.9 15.3-22.6-1.8-1.1-3.6-2.5-5.1-4.1C16 63.6 11.9 80.3 11.9 87h73.8c-.1-6.6-4.5-23.3-17.4-32.8z" id="bmUser"/><path class="bmst0" d="M92.3 19.5H86v-6.3h-6.1v6.3h-6.2v6.1h6.2v6.2H86v-6.2h6.3z"/></svg>