<?xml version="1.0" encoding="utf-8"?><svg xmlns="http://www.w3.org/2000/svg" viewBox="0 0 100 100" width="100" height="100"><style>.st0{fill:#010202}.st1{fill:#1e1e1c}.bost2{fill:#f19730}.bost3{fill:#c81c21}.bost4{fill:#f7b14e}.bost5{fill:#232a55}.bost6{fill:#fff}.st7{fill:#293167}.st8{fill:#e29626}.st9{fill:#090909}</style><g id="boSail_Waves"><g id="boclose"><g id="bolayer1"><g id="bog10305"><path id="bopath2268" class="bost2" d="M87.5 50c0 12.4-10 22.4-22.4 22.5-12.4 0-22.4-10-22.5-22.4 0-12.4 10-22.4 22.4-22.5 12.4-.1 22.5 10 22.5 22.4z"/><path id="bopath1350" class="bost3" d="M34.8 27.6c-12.3 0-22.3 10.1-22.3 22.4 0 12.4 10.1 22.4 22.4 22.4 5.8 0 11.1-2.2 15.1-5.8.8-.7 1.6-1.5 2.3-2.4h-4.6c-.6-.7-1.2-1.5-1.7-2.3h8c.5-.8.9-1.6 1.3-2.4H44.8c-.4-.8-.7-1.6-.9-2.4h12.4c.7-2.2 1.2-4.6 1.2-7.1 0-1.6-.2-3.3-.5-4.8H43.2l.6-2.4h12.4c-.3-.8-.6-1.6-1-2.4H44.7c.4-.8.8-1.6 1.3-2.4h8c-.5-.8-1.1-1.6-1.7-2.4h-4.4c.7-.8 1.4-1.6 2.3-2.3-4-3.6-9.3-5.8-15.1-5.8-.2.1-.3.1-.3.1z"/><path id="bouse9412" class="bost4" d="M85.2 61.7c.1 0 .2 0 .4.1l.3.3c.1.1.1.2.1.4 0 .1 0 .2-.1.4l-.3.3c-.1.1-.2.1-.4.1s-.2 0-.4-.1l-.3-.3c-.1-.1-.1-.2-.1-.4 0-.1 0-.2.1-.4l.3-.3c.2 0 .3-.1.4-.1m0 .2c-.1 0-.2 0-.3.1-.1.1-.2.1-.2.2-.1.1-.1.2-.1.3 0 .1 0 .2.1.3.1.1.1.2.2.2.1.1.2.1.3.1.1 0 .2 0 .3-.1.1-.1.2-.1.2-.2.1-.1.1-.2.1-.3 0-.1 0-.2-.1-.3-.1-.1-.1-.2-.2-.2-.1-.1-.2-.1-.3-.1m-.3 1v-.8h.5s.1 0 .1.1v.1c0 .1 0 .1-.1.1 0 0-.1.1-.2.1h.1s.1.1.1.2l.1.2h-.2l-.1-.1c-.1-.1-.1-.2-.1-.2h-.2v.3m.2-.5H85.4v-.1-.1h-.1-.2v.2"/></g><g id="bog16480"><g id="bog13802" transform="translate(-13.744 15.994)"><path id="bopath13804" class="bost5" d="M56.1 40.4l.3-2c-.2 0-.4.1-.6.1-.8 0-.9-.4-.9-.8l.8-4.1H57l.3-2.3h-1.2l.2-1.4h-2.5c-.1.1-1.4 7.9-1.4 8.8 0 1.4.8 2 1.9 2 .9.1 1.6-.2 1.8-.3z"/><path id="bopath13806" class="bost5" d="M56.9 36.6c0 3.4 2.2 4.2 4.1 4.2 1.8 0 2.7-.4 2.7-.4l.4-2.3s-1.5.6-2.7.6c-2.6 0-2.1-1.9-2.1-1.9h4.9s.3-1.5.3-2.2c0-1.6-.9-3.5-3.5-3.5-2.3 0-4.1 2.5-4.1 5.5zm4.2-3.4c1.3 0 1.1 1.5 1.1 1.6h-2.7c0-.1.3-1.6 1.6-1.6z"/><path id="bopath13808" class="bost5" d="M76.2 40.4l.4-2.6s-1.2.6-2 .6c-1.7 0-2.4-1.3-2.4-2.7 0-2.8 1.5-4.4 3.1-4.4 1.2 0 2.2.7 2.2.7l.4-2.5s-1.2-.8-2.4-.8c-3.7 0-5.9 2.6-5.9 7.1 0 3 1.6 5 4.4 5 .9 0 2.2-.4 2.2-.4z"/><path id="bopath13810" class="bost5" d="M43 31.1c-1.6 0-2.9.5-2.9.5l-.3 2.1s1-.4 2.6-.4c.9 0 1.5.1 1.5.8 0 .4-.1.6-.1.6s-.7-.1-1-.1c-2.3 0-4.2.9-4.2 3.5 0 2.1 1.4 2.6 2.3 2.6 1.7 0 2.4-1.1 2.4-1.1v.9h2.1l.9-6.6c0-2.7-2.5-2.8-3.3-2.8zm.4 5.3c0 .4-.1 2.3-1.5 2.3-.7 0-.9-.6-.9-.9 0-.7.4-1.4 2.1-1.4h.3z"/><path id="bopath13812" class="bost5" d="M48.5 40.7c.5 0 3.6.1 3.6-3 0-3-2.8-2.4-2.8-3.6 0-.6.5-.8 1.3-.8.3 0 1.6.1 1.6.1l.3-2.1s-.8-.2-2.2-.2c-1.8 0-3.6.7-3.6 3.1 0 2.7 3 2.5 3 3.6 0 .8-.8.8-1.5.8-1.1 0-2.1-.4-2.1-.4l-.3 2.1c.1.1.7.4 2.7.4z"/><path id="bopath13814" class="bost5" d="M95.9 29.2l-.4 3.2s-.9-1.2-2.3-1.2c-2.6 0-4 2.6-4 5.7 0 2 1 3.9 3 3.9 1.4 0 2.2-1 2.2-1l-.1.9h2.3l1.8-11.4-2.5-.1zm-1 6.2c0 1.3-.6 2.9-1.9 2.9-.9 0-1.3-.7-1.3-1.9 0-1.9.8-3.1 1.9-3.1.9.2 1.3.7 1.3 2.1z"/><path id="bopath13816" class="bost5" d="M30.1 40.6l1.5-8.6.2 8.6h1.6l3.1-8.6-1.4 8.6h2.4l1.9-11.4h-3.9l-2.3 7-.1-6.9h-3.6l-1.9 11.4 2.5-.1z"/><path id="bopath13818" class="bost5" d="M66.9 40.6c.7-4 .9-7.1 3-6.4.3-1.5 1-2.9 1.3-3.5 0 0-.1-.1-.7-.1-1.1 0-2.5 2.2-2.5 2.2l.2-1.3H66l-1.5 9.3 2.4-.2z"/><g id="bouse14699" transform="translate(845.3)"><path id="bopath13810_1_" class="bost5" d="M-764.1 31.1c-1.6 0-2.9.5-2.9.5l-.3 2.1s1-.4 2.6-.4c.9 0 1.5.1 1.5.8 0 .4-.1.6-.1.6s-.7-.1-1-.1c-2.3 0-4.2.9-4.2 3.5 0 2.1 1.4 2.6 2.3 2.6 1.7 0 2.4-1.1 2.4-1.1v.9h2.1l.9-6.6c0-2.7-2.4-2.8-3.3-2.8zm.4 5.3c0 .4-.1 2.3-1.5 2.3-.7 0-.9-.6-.9-.9 0-.7.4-1.4 2.1-1.4h.3z"/></g><path id="bouse14701" class="bost5" d="M86.9 40.6c.4-2.9 1.1-7 3-6.4.3-1.5 0-1.5-.6-1.5H88l.2-1.3H86l-1.5 9.3 2.4-.1z"/></g><g id="bog10289"><path id="bopath4157" class="bost6" d="M43 55.7l.3-2c-.2 0-.4.1-.6.1-.8 0-.9-.4-.9-.8l.7-4.1h1.3l.3-2.2h-1.2l.2-1.4h-2.4c-.1.1-1.4 7.9-1.4 8.8 0 1.4.8 2 1.9 2 .9-.1 1.6-.3 1.8-.4z"/><path id="bopath4155" class="bost6" d="M43.8 51.8c0 3.4 2.2 4.2 4.1 4.2 1.8 0 2.5-.4 2.5-.4l.4-2.3s-1.3.6-2.5.6c-2.6 0-2.1-1.9-2.1-1.9h4.9s.3-1.5.3-2.2c0-1.6-.8-3.5-3.4-3.5-2.4 0-4.2 2.6-4.2 5.5zm4.2-3.3c1.3 0 1.1 1.5 1.1 1.6h-2.7c0-.2.3-1.6 1.6-1.6z"/><path id="bopath4151" class="bost6" d="M63.1 55.7l.4-2.6s-1.2.6-2 .6c-1.7 0-2.4-1.3-2.4-2.7 0-2.8 1.5-4.4 3.1-4.4 1.2 0 2.2.7 2.2.7l.4-2.5s-1.4-.6-2.7-.6c-2.8 0-5.4 2.4-5.4 6.9 0 3 1.4 4.9 4.3 4.9.8 0 2.1-.3 2.1-.3z"/><path id="bopath4149" class="bost6" d="M29.9 46.4c-1.6 0-2.9.5-2.9.5l-.3 2.1s1-.4 2.6-.4c.9 0 1.5.1 1.5.8 0 .4-.1.6-.1.6s-.7-.1-1-.1c-2.1 0-4.2.9-4.2 3.5 0 2.1 1.4 2.6 2.3 2.6 1.7 0 2.4-1.1 2.5-1.1l-.1.9h2.1l.9-6.6c0-2.7-2.5-2.8-3.3-2.8zm.5 5.3c0 .4-.3 2.3-1.7 2.3-.7 0-.9-.6-.9-.9 0-.7.4-1.4 2.1-1.4h.5z"/><path id="bopath4145" class="bost6" d="M35.4 56c.5 0 3.6.1 3.6-3 0-3-2.8-2.4-2.8-3.6 0-.6.5-.8 1.3-.8.3 0 1.6.1 1.6.1l.3-2.1s-.8-.2-2.2-.2c-1.8 0-3.6.7-3.6 3.1 0 2.7 3 2.5 3 3.6 0 .8-.8.8-1.5.8-1.1 0-2.1-.4-2.1-.4l-.3 2.1c.1.1.7.4 2.7.4z"/><path id="bopath4139" class="bost6" d="M82.9 44.5l-.5 3.2s-.9-1.2-2.3-1.2c-2.2 0-4 2.6-4 5.7 0 2 1 3.9 3 3.9 1.4 0 2.2-1 2.2-1l-.1.9h2.3l1.8-11.4-2.4-.1zm-1.1 6.2c0 1.3-.6 2.9-1.9 2.9-.9 0-1.3-.7-1.3-1.9 0-1.9.8-3.1 1.9-3.1.8.1 1.3.7 1.3 2.1z"/><path id="bopath4133" class="bost6" d="M16.9 55.8l1.5-8.6.2 8.6h1.6l3.1-8.6-1.3 8.6h2.4l1.9-11.4h-3.8l-2.4 7-.1-7h-3.5l-1.9 11.4h2.3z"/><path id="bopath4131" class="bost6" d="M53.8 55.9c.7-4 .8-7.2 2.5-6.6.3-1.5.6-2.1.9-2.8h-.5c-1.1 0-1.9 1.5-1.9 1.5l.2-1.3h-2.2L51.3 56h2.5z"/><g id="bouse8523" transform="translate(847.006)"><path id="bopath4149_1_" class="bost6" d="M-778.4 46.4c-1.6 0-2.9.5-2.9.5l-.3 2.1s1-.4 2.6-.4c.9 0 1.5.1 1.5.8 0 .4-.1.6-.1.6s-.7-.1-1-.1c-2.1 0-4.2.9-4.2 3.5 0 2.1 1.4 2.6 2.3 2.6 1.7 0 2.4-1.1 2.5-1.1l-.1.9h2.1l.9-6.6c0-2.7-2.4-2.8-3.3-2.8zm.5 5.3c0 .4-.3 2.3-1.7 2.3-.7 0-.9-.6-.9-.9 0-.7.4-1.4 2.1-1.4h.5z"/></g><g id="bouse8525" transform="translate(442.286)"><path id="bopath4131_1_" class="bost6" d="M-368.5 55.9c.7-4 .8-7.2 2.5-6.6.3-1.5.6-2.1.9-2.8h-.5c-1.1 0-1.9 1.5-1.9 1.5l.2-1.3h-2.2L-371 56h2.5z"/></g><path id="botext9407" class="bost6" d="M85.2 54.4c.1 0 .2 0 .4.1l.3.3c.1.1.1.2.1.4 0 .1 0 .2-.1.4l-.3.3c-.1.1-.2.1-.4.1-.1 0-.2 0-.4-.1l-.3-.3c-.1-.1-.1-.2-.1-.4 0-.1 0-.2.1-.4l.3-.3c.2 0 .3-.1.4-.1m0 .1c-.1 0-.2 0-.3.1-.1.1-.2.1-.2.2-.1.1-.1.2-.1.3 0 .1 0 .2.1.3.1.1.1.2.2.2.1.1.2.1.3.1.1 0 .2 0 .3-.1.1-.1.2-.1.2-.2.1-.1.1-.2.1-.3 0-.1 0-.2-.1-.3-.1-.1-.1-.2-.2-.2s-.2-.1-.3-.1m-.3 1.1v-.8h.5s.1 0 .1.1v.1c0 .1 0 .1-.1.1 0 0-.1.1-.2.1h.1s.1.1.1.2l.1.2h-.2l-.1-.1c-.1-.1-.1-.2-.1-.2H85v.3h-.1m.1-.5H85.3V55v-.1h-.1-.2v.2"/></g></g></g></g></g></svg>