<svg xmlns="http://www.w3.org/2000/svg" viewBox="0 0 100 100"><style>.st0{fill:#010202}.st1{fill:#1e1e1c}.st2{fill:#f19730}.st3{fill:#c81c21}.st4{fill:#f7b14e}.st5{fill:#232a55}.st6{fill:#fff}.st7{fill:#293167}.st8{fill:#e29626}.st9{fill:#090909}</style><path class="st0" d="M42.8 68.1c0 2-1.6 3.6-3.6 3.6s-3.6-1.6-3.6-3.6 1.6-3.6 3.6-3.6c2-.1 3.6 1.6 3.6 3.6zm10.8 0c0 2-1.6 3.6-3.6 3.6s-3.6-1.6-3.6-3.6 1.6-3.6 3.6-3.6 3.6 1.6 3.6 3.6zm10.8 0c0 2-1.6 3.6-3.6 3.6s-3.6-1.6-3.6-3.6 1.6-3.6 3.6-3.6c2-.1 3.6 1.6 3.6 3.6zm7.3-25.3V28.3c0-12-9.7-21.7-21.7-21.7s-21.7 9.7-21.7 21.7v14.4H17.5v50.6h65V42.8H71.7zM35.6 28.3c0-8 6.5-14.4 14.4-14.4s14.4 6.5 14.4 14.4v14.4H35.6V28.3zm39.7 57.8H24.7V50h50.6v36.1z" id="User"/></svg>