<?xml version="1.0" encoding="utf-8"?><svg xmlns="http://www.w3.org/2000/svg" viewBox="0 0 100 100" width="100" height="100"><path d="M42.8 68.1c0 2-1.6 3.6-3.6 3.6s-3.6-1.6-3.6-3.6 1.6-3.6 3.6-3.6c2-.1 3.6 1.6 3.6 3.6zm10.8 0c0 2-1.6 3.6-3.6 3.6s-3.6-1.6-3.6-3.6 1.6-3.6 3.6-3.6 3.6 1.6 3.6 3.6zm10.8 0c0 2-1.6 3.6-3.6 3.6s-3.6-1.6-3.6-3.6 1.6-3.6 3.6-3.6c2-.1 3.6 1.6 3.6 3.6zm7.3-25.3V28.3c0-12-9.7-21.7-21.7-21.7s-21.7 9.7-21.7 21.7v14.4H17.5v50.6h65V42.8H71.7zM35.6 28.3c0-8 6.5-14.4 14.4-14.4s14.4 6.5 14.4 14.4v14.4H35.6V28.3zm39.7 57.8H24.7V50h50.6v36.1z"/></svg>