<?xml version="1.0" encoding="utf-8"?><svg xmlns="http://www.w3.org/2000/svg" viewBox="0 0 100 100" width="100" height="100"><path d="M87.4 32.5c0-4.6-3.6-8.4-8.3-8.4H20.8c-4.7 0-8.3 3.7-8.3 8.4 0 11.6.1 23.2-.1 34.7-.1 4.2 3.4 8.8 8.7 8.8 10.7-.1 21.3 0 32 0H78.8c5.2 0 8.7-4.6 8.7-8.8-.2-11.6-.1-23.2-.1-34.7zm-5.5 33.8c0 3.1-.9 4-4 4H22.1c-3 0-4-.9-4-4V33.8c0-3.2.9-4.1 4-4.1h55.7c3.2 0 4 .9 4 4.1.1 10.9.1 21.7.1 32.5z"/><path d="M38.4 51c-.9.5-1.6.4-2.5-.1-5.6-2.8-12.1 1.2-12.3 7.5-.2 6.5 6.6 10.9 12.4 8 .9-.5 1.5-.5 2.5 0 3.7 1.9 8 .9 10.6-2.3 2.5-3.1 2.6-7.6.1-10.7-2.7-3.3-7.1-4.3-10.8-2.4zm4.1 13.5c-3.2.1-5.9-2.5-5.9-5.7 0-3.3 2.5-5.8 5.8-5.8 3.2 0 5.9 2.6 5.9 5.8-.1 3-2.7 5.6-5.8 5.7zM73.1 38.4H27c-1.6 0-2.9 1.3-2.9 2.9s1.3 2.9 2.9 2.9h46.1c1.6 0 2.9-1.3 2.9-2.9s-1.3-2.9-2.9-2.9zM73.1 55.8H58.8c-1.6 0-2.9 1.3-2.9 2.9s1.3 2.9 2.9 2.9h14.3c1.6 0 2.9-1.3 2.9-2.9s-1.3-2.9-2.9-2.9z"/></svg>