<?xml version="1.0" encoding="utf-8"?><svg data-name="Layer 1" xmlns="http://www.w3.org/2000/svg" viewBox="0 0 100 100" width="100" height="100"><title>phone</title><path d="M58.8 14.31a15 15 0 0 1 3.2-.42 18.11 18.11 0 0 1 3.26.09q2.45.31 6.14 4.06a16.9 16.9 0 0 1 5 9.89 19.7 19.7 0 0 1 .15 2.68q0 1.52-.06 2.26t-.19 2.68q-.17 1.94-.19 2.37a41.28 41.28 0 0 1-1.51 8.7 67.61 67.61 0 0 1-6.23 14.25 67.61 67.61 0 0 1-9 12.69 41.28 41.28 0 0 1-6.67 5.78q-.36.24-1.93 1.39l-2.17 1.58q-.61.43-1.91 1.22a19.7 19.7 0 0 1-2.37 1.25 16.9 16.9 0 0 1-11.05.83q-5.12-1.23-6.65-3.16a18.11 18.11 0 0 1-1.76-2.75 15 15 0 0 1-1.3-3 2.55 2.55 0 0 1-.12-1q0-.86 2.69-3.26.7-.72 2-2t2.36-2.31q1.06-1.05 2-2l.88-1.07a12.73 12.73 0 0 1 1.3-1.38 3 3 0 0 1 1.17-.66 3.78 3.78 0 0 1 2.54.64 22.22 22.22 0 0 1 3.17 2.05 27.45 27.45 0 0 0 3.08 2.07 3.47 3.47 0 0 0 2.37.69 3.08 3.08 0 0 0 .93-.49 10 10 0 0 0 .8-.62q.26-.24.88-.91l.69-.74a47.84 47.84 0 0 0 8.19-10.51 47.84 47.84 0 0 0 4.77-12.44q0-.1.27-1t.32-1.22a10 10 0 0 0 .12-1 3.08 3.08 0 0 0-.06-1 3.47 3.47 0 0 0-1.81-1.67 27.45 27.45 0 0 0-3.37-1.57 22.22 22.22 0 0 1-3.39-1.66 3.78 3.78 0 0 1-1.86-1.85 3 3 0 0 1 0-1.34 12.73 12.73 0 0 1 .51-1.82q.38-1.1.46-1.31.35-1.28.71-2.73t.76-3.22q.41-1.77.66-2.74.68-3.5 1.4-4a2.55 2.55 0 0 1 .82-.32z"/></svg>