<?xml version="1.0" encoding="utf-8"?><svg xmlns="http://www.w3.org/2000/svg" viewBox="0 0 100 100" width="100" height="100"><path d="M51.7 12.5c-20.3 0-30.6 14.7-30.6 26.9 0 7.4 2.8 14 8.8 16.5 1 .4 1.9 0 2.1-1.1.2-.8.7-2.7.9-3.5.3-1.1.2-1.5-.6-2.4-1.7-2-2.8-4.7-2.8-8.4 0-10.9 8.1-20.6 21.1-20.6 11.5 0 17.8 7.1 17.8 16.5 0 12.4-5.5 22.9-13.6 22.9-4.5 0-7.8-3.7-6.8-8.3 1.3-5.4 3.8-11.3 3.8-15.3 0-3.5-1.9-6.5-5.8-6.5-4.6 0-8.2 4.8-8.2 11.2 0 4.1 1.4 6.8 1.4 6.8s-4.7 20-5.5 23.5c-1.6 7-.2 15.5-.1 16.4.1.5.7.6 1 .2.4-.5 5.9-7.3 7.7-14.1.5-1.9 3-11.8 3-11.8 1.5 2.9 5.8 5.4 10.5 5.4 13.8 0 23.1-12.6 23.1-29.5-.1-12.9-10.8-24.8-27.2-24.8z"/></svg>