<?xml version="1.0" encoding="utf-8"?><svg xmlns="http://www.w3.org/2000/svg" viewBox="0 0 100 100" width="100" height="100"><path d="M50 10c-22.1 0-40 17.9-40 40s17.9 40 40 40 40-17.9 40-40-17.9-40-40-40zm0 74.7c-19.1 0-34.7-15.6-34.7-34.7S30.9 15.3 50 15.3 84.7 30.9 84.7 50 69.1 84.7 50 84.7z"/><path d="M69 47.9H52.2V31.1c0-1.2-1-2.1-2.1-2.1-1.2 0-2.1 1-2.1 2.1v16.8H31.2c-1.2 0-2.1 1-2.1 2.1 0 .6.2 1.1.6 1.5s.9.6 1.5.6H48v16.8c0 .6.2 1.1.6 1.5.4.4.9.6 1.5.6 1.2 0 2.1-1 2.1-2.1V52.1H69c1.2 0 2.1-1 2.1-2.1 0-1.2-.9-2.1-2.1-2.1z"/></svg>