<svg xmlns="http://www.w3.org/2000/svg" viewBox="0 0 100 100"><style>.st0{fill:#010202}.st1{fill:#1e1e1c}.st2{fill:#006fb5}.st3{fill:#f4981a}.st4{fill:#cc1417}.st5{fill:#f9b343}.st6{fill:#232856}.st7{fill:#fff}.st8{fill:#292e69}.st9{fill:#e49707}.st10{fill:#1e201d}.st11{fill:none;stroke:#000;stroke-width:3;stroke-miterlimit:10}.st12{fill:#090909}</style><g id="User"><path d="M32 53c-.6-.4-1.2-.7-1.9-.7h-.4c-.8.1-1.6.5-2.1 1.2-.4.7-.6 1.5-.6 2.3.1.8.5 1.6 1.2 2.1l16.3 12.8c1.3 1 3.3.8 4.4-.5L80 30.6c.5-.7.7-1.5.6-2.3s-.5-1.6-1.2-2.1c-.6-.5-1.4-.7-2.2-.6-.8.1-1.5.5-2.1 1.1L45.9 63.9 32 53z"/><path d="M89.6 45.6c-.4-1.4-1.9-2.4-3.3-2.1-1.5.4-2.4 1.8-2 3.3 3.6 14.6-3.2 29.4-16.4 37-16.3 9.4-37.3 3.6-46.8-12.9S17.2 33.4 33.6 24c7.9-4.5 17.1-5.7 25.9-3.3.7.2 1.4.1 2.1-.3.6-.4 1.1-1 1.3-1.7.4-1.5-.5-3-1.9-3.4-10.2-2.8-20.9-1.5-30.1 3.8C11.9 30 5.4 54.4 16.4 73.5s35.3 25.9 54.3 15c15.2-8.7 23-25.9 18.9-42.9z"/></g></svg>