<?xml version="1.0" encoding="utf-8"?><svg xmlns="http://www.w3.org/2000/svg" viewBox="0 0 100 100" width="100" height="100"><path d="M50 10c-22.1 0-40 17.9-40 40s17.9 40 40 40 40-17.9 40-40-17.9-40-40-40zm0 74.7c-19.1 0-34.7-15.6-34.7-34.7S30.9 15.3 50 15.3 84.7 30.9 84.7 50 69.1 84.7 50 84.7z"/><path d="M64.9 35.1c-.8-.8-2.2-.8-3 0L50 47 38.1 35.1c-.8-.8-2.2-.8-3 0s-.8 2.2 0 3L47 50 35.1 61.9c-.8.8-.8 2.2 0 3 .4.4.9.6 1.5.6s1.1-.2 1.5-.6L50 53l11.9 11.9c.4.4.9.6 1.5.6s1.1-.2 1.5-.6c.8-.8.8-2.2 0-3L53 50l11.9-11.9c.9-.8.9-2.2 0-3z"/></svg>