<svg xmlns="http://www.w3.org/2000/svg" viewBox="0 0 100 100"><style>.st0{fill:#010202}.st1{fill:#1e1e1c}.st2{fill:#f19730}.st3{fill:#c81c21}.st4{fill:#f7b14e}.st5{fill:#232a55}.st6{fill:#fff}.st7{fill:#293167}.st8{fill:#e29626}.st9{fill:#090909}</style><path class="st0" d="M88.3 58.5l-7-4s-1.9-.9-1.8-4.4c0 0-.5-4 2-5.3l6.8-4.2s2.2-1 1.3-3.4l-2.9-6.6s-.9-2.6-3.7-1.7l-7.9 2.5s-2.7 0-4.4-1.9c0 0-2.8-2.7-2-5.1l1.8-7.9s.5-2.3-1.3-3.2L61 10.2s-1.8-.1-2.3 1.3l-4.6 8.3S51.9 21.6 49 21c0 0-3.1-.3-3.8-1 0 0-4.7-7.9-4.9-8.3 0 0-.9-1.8-2.7-1.1L30 13.7s-1.5.9-1.1 2.3l2.7 10s-.6 2.5-2.3 3.8c0 0-3.1 2.3-4.5 2l-8.2-2s-2.4-.9-3.3 1.2l-3.1 7.6s-.6 1.6 1 2.5l8.1 4.6s2.6 1.2 1.8 5.7c0 0 .2 3.3-3.1 5.1-3.3 1.8-6.1 3.6-6.1 3.6S10 61 10.8 63c.8 1.9 3.7 7.5 3.7 7.5s.5 1.4 3.1.4l7.1-1.9s2.1-.6 4.2 1.3c0 0 3 2.1 2.8 3.8l-2 10s-.6 1.7 1.3 2.8l7.9 3s2.2.2 2.8-1.6l3.5-6.3s1.1-2.8 4.8-2.6c0 0 3.7-.3 5 1.7l4.5 7.5s.8 1.9 3.3.8l7-3s2-1.3 1.4-3.1L69 75.7s-1-2.1 1.1-4.3c0 0 2.2-3.6 5.2-2.9l8.4 2s1.7.8 3.3-1.7l2.7-6.7c.2-.2 1-2.6-1.4-3.6zm-52.5-2.4c-3.4-7.9.3-17.1 8.2-20.5 7.9-3.4 17.1.3 20.5 8.2 3.4 7.9-.3 17.1-8.3 20.5-7.8 3.4-17-.3-20.4-8.2z" id="User"/></svg>