<?xml version="1.0" encoding="utf-8"?><svg xmlns="http://www.w3.org/2000/svg" viewBox="0 0 100 100" width="100" height="100"><path d="M50 92C26.8 92 8 73.2 8 50S26.8 8 50 8s42 18.8 42 42-18.8 42-42 42zm0-80c-21 0-38 17-38 38s17 38 38 38 38-17 38-38-17-38-38-38z"/><path d="M60.7 56.1c-2.3 0-4.3 1-5.8 2.5l-12.4-6c.3-.8.5-1.7.5-2.6 0-.9-.2-1.8-.5-2.6l12.4-6c1.4 1.6 3.5 2.5 5.8 2.5 4.3 0 7.8-3.5 7.8-7.8s-3.5-7.8-7.8-7.8-7.8 3.5-7.8 7.8c0 .4 0 .8.1 1.2l-13.2 6.3c-1.3-.9-2.9-1.5-4.6-1.5-4.3 0-7.8 3.5-7.8 7.8s3.5 7.8 7.8 7.8c1.7 0 3.3-.6 4.6-1.5L53 62.6c-.1.4-.1.8-.1 1.2 0 4.3 3.5 7.8 7.8 7.8s7.8-3.5 7.8-7.8-3.5-7.7-7.8-7.7z"/></svg>