<?xml version="1.0" encoding="utf-8"?><svg xmlns="http://www.w3.org/2000/svg" viewBox="0 0 100 100" width="100" height="100"><path d="M52 13.3l8.4 26.2h27.5c1.1 0 2.1.9 2.1 2.1 0 .7-.4 1.3-.9 1.7l-22.2 16 8.5 26.2c.4 1.1-.2 2.2-1.3 2.6-.7.2-1.5.1-2-.4L50 71.5 27.8 87.7c-.9.7-2.2.5-2.9-.4-.4-.6-.5-1.3-.3-1.8l8.6-26.2-22.3-16.1c-.9-.7-1.1-2-.5-2.9.4-.6 1.1-.9 1.8-.9h27.4L48 13.3c.4-1.1 1.5-1.7 2.6-1.4.7.3 1.2.8 1.4 1.4zm4.9 28.9L50 20.6l-7 21.5c-.3.9-1.1 1.4-2 1.4H18.4l18.3 13.2c.7.5 1 1.4.7 2.3l-7 21.5 18.2-13.3c.7-.5 1.7-.6 2.5 0l18.3 13.3-7-21.4c-.3-.9-.1-1.8.7-2.4l18.4-13.2H58.9c-.8.2-1.7-.4-2-1.3z"/></svg>