<?xml version="1.0" encoding="utf-8"?><svg xmlns="http://www.w3.org/2000/svg" viewBox="0 0 100 100" width="100" height="100"><path d="M44.4 52.3c.8 1.9 2.6 3.3 4.6 3.7 1.7.4 3.5.1 5-.8 1.6-1 2.7-2.6 3-4.5s-.3-3.7-1.6-5.1L31 18.6c-.2-.2-.6-.3-.9-.1-.3.2-.4.5-.2.8l14.5 33z"/><ellipse cx="50" cy="14" rx="4" ry="4"/><path d="M62.1 12.5c-1.4-.4-3 .4-3.5 1.8-.4 1.5.4 3 1.9 3.4 14.5 4.2 24 17.4 24 32.7C84.5 69.2 69 84.5 50 84.5S15.5 69.2 15.5 50.4c0-9.1 3.6-17.7 10.1-24.1.5-.5.8-1.2.8-1.9s-.3-1.4-.8-1.9c-1.1-1.1-2.8-1.1-3.9 0C14.1 29.8 10 39.8 10 50.4 10 72.2 27.9 90 50 90s40-17.8 40-39.6c0-17.7-11.1-33.1-27.9-37.9z"/></svg>