<svg xmlns="http://www.w3.org/2000/svg" viewBox="0 0 100 100"><style>.st0{fill:#010202}.st1{fill:#1e1e1c}.st2{fill:#f19730}.st3{fill:#c81c21}.st4{fill:#f7b14e}.st5{fill:#232a55}.st6{fill:#fff}.st7{fill:#293167}.st8{fill:#e29626}.st9{fill:#090909}</style><g id="Twitter"><path id="XMLID_1096_" d="M88.2 27.1c-2.8 1.2-5.8 2-9 2.4 3.2-1.9 5.7-4.8 6.9-8.4-3 1.7-6.4 3-10 3.7-2.9-2.9-6.9-4.8-11.4-4.8C56 20 49 26.8 49 35.1c0 1.2.1 2.3.4 3.5-13-.6-24.6-6.7-32.3-15.8-1.3 2.2-2.1 4.8-2.1 7.6 0 5.3 2.8 9.9 7 12.6-2.6-.1-5-.8-7.1-1.9v.2c0 7.3 5.4 13.5 12.6 14.9-1.3.3-2.7.5-4.1.5-1 0-2-.1-2.9-.3 2 6 7.8 10.4 14.6 10.5-5.4 4.1-12.1 6.5-19.5 6.5-1.3 0-2.5-.1-3.7-.2 6.9 4.3 15.2 6.8 24 6.8 28.8 0 44.6-23.1 44.6-43.1v-2c2.9-2.1 5.6-4.8 7.7-7.8z"/></g></svg>