<svg xmlns="http://www.w3.org/2000/svg" viewBox="0 0 100 100"><style>.st0{fill:#010202}.st1{fill:#1e1e1c}.st2{fill:#f19730}.st3{fill:#c81c21}.st4{fill:#f7b14e}.st5{fill:#232a55}.st6{fill:#fff}.st7{fill:#293167}.st8{fill:#e29626}.st9{fill:#090909}</style><path class="st0" d="M50 16.7c9.2 0 16.7 7.5 16.7 16.7C66.7 42.5 59.2 50 50 50s-16.7-7.5-16.7-16.7S40.8 16.7 50 16.7zm0-6.7c-12.9 0-23.3 10.4-23.3 23.3S37.1 56.6 50 56.6s23.3-10.5 23.3-23.3C73.3 20.4 62.9 10 50 10zm21.2 44.5c-1.7 1.7-3.5 3.1-5.5 4.3 9.6 6.2 14.6 16.9 16.6 24.5H17.7c1.9-7.6 6.9-18.3 16.6-24.5-2-1.2-3.9-2.7-5.5-4.4C14.5 64.7 10 82.8 10 90h80c0-7.1-4.8-25.2-18.8-35.5z" id="User"/></svg>