<?xml version="1.0" encoding="utf-8"?><svg id="bzLayer_1" xmlns="http://www.w3.org/2000/svg" viewBox="0 0 106.2 100" width="106.2" height="100"><style>.bzst0{fill:#010202}</style><path class="bzst0" d="M47.3 20.3c8.5 0 15.4 6.9 15.4 15.4 0 8.4-6.9 15.3-15.4 15.3s-15.4-6.9-15.4-15.4 6.9-15.3 15.4-15.3zm0-6.2c-11.9 0-21.5 9.6-21.5 21.5s9.6 21.5 21.5 21.5 21.5-9.7 21.5-21.5c-.1-11.9-9.6-21.5-21.5-21.5zm19.5 41c-1.6 1.6-3.2 2.9-5.1 4 8.9 5.7 13.5 15.6 15.3 22.6H17.5c1.8-7 6.4-16.9 15.3-22.6-1.8-1.1-3.6-2.5-5.1-4.1-13.2 9.5-17.3 26.2-17.3 32.8h73.8c-.1-6.5-4.5-23.2-17.4-32.7z" id="bzUser"/><path class="bzst0" d="M70.1 14h25.5v6.1H70.1zM79 26.2h16.5v6.1H79zM86.4 38.5h9.3v6.1h-9.3z"/></svg>