<svg xmlns="http://www.w3.org/2000/svg" viewBox="0 0 100 100"><style>.st0{fill:#010202}.st1{fill:#1e1e1c}.st2{fill:#f19730}.st3{fill:#c81c21}.st4{fill:#f7b14e}.st5{fill:#232a55}.st6{fill:#fff}.st7{fill:#293167}.st8{fill:#e29626}.st9{fill:#090909}</style><g id="Sail_Waves"><g id="close"><g id="layer2"><path id="rect1441" class="st7" d="M12.5 26.9h75v12.2h-75z"/><path id="rect3194" class="st8" d="M12.5 60.8h75V73h-75z"/><path id="path3214" class="st7" d="M25.4 42v-.5l7.7.1.1 10.8 6.3-10.7h3.8l-10 16.8H29s-.2-8.6-.4-12.8c-.1-3.6-1.8-3.3-3.2-3.7z"/><path id="path4089" class="st7" d="M39.5 58.5h4.4l5.5-17H45l-5.5 17z"/><path id="path4964" class="st7" d="M61.1 45.4S58.8 44 57.5 44c-.8 0-2.3.7-2.3 2 0 2.7 4.9 2.6 4.9 6.9 0 2-1.1 5.9-7.1 5.9-4.1 0-5.7-1.8-5.7-1.8l1.4-2.5s1.8 1.3 4.2 1.3c1.8 0 3-.7 3-1.8 0-2.2-5.3-3.1-5.3-6.9 0-3.1 2.8-6 7.1-6 3.5 0 5.2 2.1 5.2 2.1l-1.8 2.2z"/><path id="path5839" class="st7" d="M73.8 41.7h-4.9l-9.2 16.9h3.9l1.7-3.4h5v3.4h4.2l-.7-16.9zm-4.1 4.7l.5 6h-3.7l3.2-6z"/></g></g></g></svg>