<?xml version="1.0" encoding="utf-8"?><svg xmlns="http://www.w3.org/2000/svg" viewBox="0 0 100 100" width="100" height="100"><path d="M82.4 9.6H17.6c-2.8 0-5.1 2.3-5.1 5.1v75.7h75V14.7c0-2.8-2.3-5.1-5.1-5.1zm1.1 76.8H58v-16H42v16H16.5V14.7c0-.6.5-1.1 1.1-1.1h64.9c.6 0 1.1.5 1.1 1.1l-.1 71.7z"/><path d="M22.2 18.8h16v11h-16zM22.2 70.2h16v11h-16zM22.2 53.1h16v11h-16zM22.2 35.9h16v11h-16zM62 18.8h16v11H62zM62 70.2h16v11H62zM62 53.1h16v11H62zM62 35.9h16v11H62zM42 18.8h16v11H42zM42 53.1h16v11H42zM42 36h16v11H42z"/></svg>