<svg xmlns="http://www.w3.org/2000/svg" viewBox="0 0 100 100"><style>.st0{fill:#010202}.st1{fill:#1e1e1c}.st2{fill:#f19730}.st3{fill:#c81c21}.st4{fill:#f7b14e}.st5{fill:#232a55}.st6{fill:#fff}.st7{fill:#293167}.st8{fill:#e29626}.st9{fill:#090909}</style><g id="Edit"><path class="st9" d="M82.4 9.6H17.6c-2.8 0-5.1 2.3-5.1 5.1v75.7h75V14.7c0-2.8-2.3-5.1-5.1-5.1zm1.1 76.8H58v-16H42v16H16.5V14.7c0-.6.5-1.1 1.1-1.1h64.9c.6 0 1.1.5 1.1 1.1v71.7z"/><path class="st9" d="M22.2 18.8h16v11h-16zM22.2 70.2h16v11h-16zM22.2 53.1h16v11h-16zM22.2 35.9h16v11h-16zM62 18.8h16v11H62zM62 70.2h16v11H62zM62 53.1h16v11H62zM62 35.9h16v11H62zM42 18.8h16v11H42zM42 53.1h16v11H42zM42 36h16v11H42z"/></g></svg>